<?xml version="1.0" encoding="UTF-8"?>
<svg width="70px" height="70px" viewBox="0 0 70 70" version="1.1" xmlns="http://www.w3.org/2000/svg" xmlns:xlink="http://www.w3.org/1999/xlink">
    <!-- Generator: Sketch 46.1 (44463) - http://www.bohemiancoding.com/sketch -->
    <title>gonghang</title>
    <desc>Created with Sketch.</desc>
    <defs></defs>
    <g id="Symbols" stroke="none" stroke-width="1" fill="none" fill-rule="evenodd">
        <g id="gonghang">
            <g id="Oval-Copy">
                <circle id="Oval" fill="#FFFFFF" cx="35" cy="35" r="35"></circle>
                <path d="M35.0018964,65 C18.4344578,65 5,51.5687296 5,35.0002474 C5,18.4281372 18.4344578,5 35.0018964,5 C51.5710666,5 65,18.4281372 65,35.0002474 C65,51.5687296 51.5710666,65 35.0018964,65 Z M35.0018964,8.86033383 C20.5695054,8.86033383 8.86442467,20.5641094 8.86442467,35.0002474 C8.86442467,49.4309434 20.5695054,61.1383469 35.0018964,61.1383469 C49.4397293,61.1383469 61.1420067,49.4309434 61.1420067,35.0002474 C61.1420067,20.5640269 49.4397293,8.86033383 35.0018964,8.86033383 Z M36.0088995,47.6941312 L47.5866722,47.6941312 L47.5866722,42.1688027 L36.0088995,42.1688027 L36.0088995,29.1257259 L47.5866722,29.1257259 L47.5866722,24.6079859 L36.0088995,24.6079859 L36.0088995,19.8297736 L52.3245255,19.8297736 L52.3245255,33.3833234 L40.5059889,33.3833234 L40.5059889,37.3407056 L52.3245255,37.3407056 L52.3245255,51.9517286 L36.0088995,51.9517286 L36.0088995,47.6941312 Z M29.4977215,37.3407881 L29.4977215,33.3834058 L17.6819059,33.3834058 L17.6819059,19.8297736 L34.0002529,19.8297736 L34.0002529,24.6079859 L22.4142348,24.6079859 L22.4142348,29.1257259 L34.0003353,29.1257259 L34.0003353,42.1688027 L22.4142348,42.1688027 L22.4142348,47.6941312 L34.0003353,47.6941312 L34.0003353,51.9517286 L17.6819059,51.9517286 L17.6819059,37.3407881 L29.4977215,37.3407881 Z" id="工商银行" fill="#BE181F"></path>
            </g>
        </g>
    </g>
</svg>