<?xml version="1.0" encoding="UTF-8"?>
<svg width="70px" height="70px" viewBox="0 0 70 70" version="1.1" xmlns="http://www.w3.org/2000/svg" xmlns:xlink="http://www.w3.org/1999/xlink">
    <!-- Generator: Sketch 46.1 (44463) - http://www.bohemiancoding.com/sketch -->
    <title>guangda</title>
    <desc>Created with Sketch.</desc>
    <defs></defs>
    <g id="Symbols" stroke="none" stroke-width="1" fill="none" fill-rule="evenodd">
        <g id="guangda">
            <g id="Oval-Copy" fill="#FFFFFF">
                <circle id="Oval" cx="35" cy="35" r="35"></circle>
            </g>
            <g id="光大银行" transform="translate(17.000000, 10.000000)" fill-rule="nonzero" fill="#E7A700">
                <path d="M24.5422018,50.5723242 L26.7938838,50.5723242 C28.2365443,50.2611621 29.4811927,49.7859327 30.5561162,49.1975535 L24.5422018,49.1975535 L24.5422018,47.6134557 L32.7964832,47.6134557 C33.2830275,47.1665138 33.7299694,46.7195719 34.1033639,46.238685 L24.5422018,46.238685 L24.5422018,44.5244648 L35.2065749,44.5244648 C35.4555046,44.0775229 35.6648318,43.6192661 35.8515291,43.1496942 L6.90214067,43.1496942 L6.90214067,41.4977064 L36.3889908,41.4977064 C36.5077982,41.045107 36.6152905,40.5868502 36.7001529,40.1229358 L6.90214067,40.1229358 L6.90214067,38.3295107 L36.9264526,38.3295107 C36.966055,37.8429664 36.988685,37.3847095 36.988685,36.966055 L6.90214067,36.966055 L6.90214067,35.3310398 L36.9490826,35.3310398 L36.9207951,34.8218654 C36.8585627,34.5050459 36.7340979,34.2448012 36.6492355,33.9449541 L6.90214067,33.9449541 L6.90214067,32.0836391 L36.1004587,32.0836391 C35.919419,31.6197248 35.7214067,31.1671254 35.5007645,30.7201835 L6.90214067,30.7201835 L6.90214067,29.4189602 L34.7539755,29.4189602 C34.4654434,28.9380734 34.1429664,28.4798165 33.7865443,28.0441896 L21.5946483,28.0441896 L21.5946483,26.1149847 L31.8856269,26.1149847 C31.2689602,25.6171254 30.6240061,25.1588685 29.945107,24.7515291 L21.5946483,24.7515291 L21.5946483,22.8279817 L27.6594801,22.8279817 C28.6325688,22.5168196 29.5490826,22.0529052 30.3750765,21.453211 L7.00397554,21.453211 L7.00397554,19.982263 L32.0214067,19.982263 C32.4117737,19.5353211 32.7568807,19.0883792 33.0567278,18.6188073 L7.00397554,18.6188073 L7.00397554,16.8140673 L34.012844,16.8140673 C34.2108563,16.3388379 34.4088685,15.8862385 34.5503058,15.4392966 L7.00397554,15.4392966 L7.00397554,13.6458716 L35.0198777,13.6458716 C35.12737,13.0970948 35.2009174,12.6388379 35.2178899,12.4408257 L35.2065749,12.2824159 L7.00397554,12.2824159 L7.00397554,10.4889908 L35.0594801,10.4889908 C35.0198777,10.0420489 35.0198777,9.5441896 34.9406728,9.13685015 L7.00397554,9.13685015 L7.00397554,7.51314985 L24.6327217,7.51314985 L24.6327217,7.4735474 L34.437156,7.4735474 C34.2787462,7.01529052 34.1599388,6.50611621 33.9619266,6.11009174 L24.6327217,6.11009174 L24.6327217,4.39021407 L32.8474006,4.39021407 C32.4740061,3.90366972 32.0666667,3.44541284 31.6253823,3.02675841 L24.6327217,3.02675841 L24.6327217,1.37477064 L29.4529052,1.37477064 C28.4571865,0.780733945 27.3879205,0.322477064 26.2733945,0 L0.0113149847,0 L0.0113149847,50.6911315 L24.5422018,50.6911315 L24.5422018,50.5723242 Z" id="Shape"></path>
            </g>
        </g>
    </g>
</svg>