<?xml version="1.0" encoding="UTF-8"?>
<svg width="70px" height="70px" viewBox="0 0 70 70" version="1.1" xmlns="http://www.w3.org/2000/svg" xmlns:xlink="http://www.w3.org/1999/xlink">
    <!-- Generator: Sketch 46.1 (44463) - http://www.bohemiancoding.com/sketch -->
    <title>guangfa</title>
    <desc>Created with Sketch.</desc>
    <defs></defs>
    <g id="Symbols" stroke="none" stroke-width="1" fill="none" fill-rule="evenodd">
        <g id="guangfa">
            <g id="Oval-Copy" fill="#FFFFFF">
                <circle id="Oval" cx="35" cy="35" r="35"></circle>
            </g>
            <g id="广发银行" transform="translate(5.000000, 9.000000)" fill-rule="nonzero">
                <path d="M29.9077362,20.7069281 C27.5104177,25.5086377 24.8190515,30.1578229 21.848984,34.6279739 C14.2222222,35.087344 6.77494952,36.228164 5.1159077e-13,38.0778134 C9.67719551,27.5031729 17.6872727,13.7190256 21.9128699,0.0504812834 L21.9280808,0.0504812834 C23.7655615,6.8254308 26.5035294,13.8620083 29.9077362,20.7069281" id="Shape" fill="#BD0016"></path>
                <path d="M21.8459418,34.6218895 C27.2131255,34.3034655 32.594848,34.3166735 37.9604041,34.6614379 C42.2133809,41.0743672 46.9774451,46.9762091 52.0122638,51.913678 C37.9908259,48.7558883 21.979798,48.6798336 7.95227572,51.8467498 L7.94010695,51.8254545 L8.17435529,51.5942483 L8.4055615,51.36 L8.6367677,51.1257517 L8.86797385,50.8915033 L9.09918005,50.6511705 L9.3303862,50.4047534 L9.55855021,50.1674629 L9.78975636,49.9240879 L10.0209626,49.680713 L10.2491266,49.4373381 L10.4742483,49.1939632 L10.7024124,48.9384195 L10.9305764,48.6950445 L11.1587403,48.4425431 L11.3869043,48.1869994 L11.6150683,47.9375401 L11.8432323,47.6850386 L12.0653119,47.4264528 L12.2873916,47.1739513 L12.5094712,46.9184076 L12.7315508,46.6598218 L12.9566726,46.3981937 L13.1848366,46.1396079 L13.403874,45.881022 C16.432903,42.2941058 19.2516453,38.534767 21.8459418,34.6218895" id="Shape" fill="#730000"></path>
                <path d="M37.9604041,34.6583957 C34.9902118,30.179985 32.3008198,25.5215558 29.9077362,20.7099703 C33.3149852,13.8650505 36.0377421,6.84064171 37.8143791,0.0504812834 C42.1677481,13.7768271 50.1626144,27.6522401 59.9614973,38.1477837 L59.9493286,38.169079 C53.1348306,36.3315983 45.6388829,35.1542721 37.9604041,34.6583957" id="Shape" fill="#E5001F"></path>
                <path d="M37.9634462,34.6583957 C45.6388829,35.1542721 53.1378728,36.3315983 59.9523707,38.169079 L52.015306,51.9106358 C46.9804872,46.973167 42.216423,41.071325 37.9634462,34.6583957" id="Shape" fill="#BD0016"></path>
                <path d="M21.848984,34.6218895 C17.6233868,40.9800594 12.9019133,46.860606 7.94010695,51.8254545 L0,38.0808556 C6.77494952,36.228164 14.2222222,35.0843018 21.848984,34.6218895" id="Shape" fill="#E5001F"></path>
                <path d="M37.8143791,0.0535234759 C36.0377421,6.8436839 33.3149851,13.8650505 29.904694,20.7069281 C26.5004872,13.8620083 23.7625193,6.82847294 21.931123,0.0535234759 L37.8143791,0.0535234759 L37.8143791,0.0535234759 Z" id="Shape" fill="#730000"></path>
            </g>
        </g>
    </g>
</svg>