<?xml version="1.0" encoding="UTF-8"?>
<svg width="70px" height="70px" viewBox="0 0 70 70" version="1.1" xmlns="http://www.w3.org/2000/svg" xmlns:xlink="http://www.w3.org/1999/xlink">
    <!-- Generator: Sketch 46.1 (44463) - http://www.bohemiancoding.com/sketch -->
    <title>huaxia </title>
    <desc>Created with Sketch.</desc>
    <defs></defs>
    <g id="Symbols" stroke="none" stroke-width="1" fill="none" fill-rule="evenodd">
        <g id="huaxia-">
            <g id="Oval-Copy" transform="translate(-1.000000, 0.000000)" fill="#FFFFFF">
                <circle id="Oval" cx="35" cy="35" r="35"></circle>
            </g>
            <g id="华夏银行" transform="translate(4.000000, 8.000000)" fill-rule="nonzero" fill="#E50012">
                <path d="M54.004947,10.8160385 L52.009894,8.27158607 C52.009894,8.27158607 44.2412785,9.54381229 44.3924189,5.18189382 C44.3924189,5.18189382 44.9365243,1.91045497 39.3141022,3.18268119 C39.3141022,3.18268119 37.9538387,1.91045497 38.044523,1.18346856 C38.044523,1.18346856 38.437488,-0.724870767 32.3314166,0.305026649 C32.3314166,0.305026649 23.293222,1.42579737 13.3784131,12.78496 C13.3784131,12.78496 3.40314809,20.9635572 3.40314809,12.5426312 C3.40314809,12.5426312 -2.06813364,18.1161937 0.863989718,22.5689855 C0.863989718,22.5689855 4.18907806,27.2641061 10.536974,23.4474274 C10.536974,23.4474274 8.54192097,38.8655975 18.6985544,46.8927391 C18.6985544,46.8927391 29.3086091,56.7373468 41.5509798,53.2538702 C41.5509798,53.2538702 51.7680694,51.1032021 55.6674912,40.7739369 C55.6674912,40.7739369 53.8538066,42.5914029 53.0678766,42.4399474 C53.0678766,42.4399474 55.8488596,39.1079263 56,37.6842446 C56,37.6842446 55.9093158,35.7153231 54.3374558,38.8050153 C54.3374558,38.8050153 54.7304208,36.896676 53.611982,37.8659912 C53.611982,37.8659912 48.2313845,44.136249 45.9340508,44.4694511 C45.9340508,44.4694511 28.885416,54.5563876 21.1168005,34.2310592 C21.1168005,34.2310592 17.7917122,24.5984892 25.6510119,17.3892073 C33.5103116,10.1496343 41.1882429,10.8766207 48.2616126,16.1169811 C48.2616126,16.1169811 51.8285255,12.0579736 53.3399293,12.8455422 C53.3097013,12.8152511 54.6699647,11.9973914 54.004947,10.8160385 Z" id="Shape"></path>
                <polygon id="Shape" points="31 23.0915493 48 23 48 36 31 36"></polygon>
            </g>
        </g>
    </g>
</svg>