<?xml version="1.0" encoding="UTF-8"?>
<svg width="70px" height="70px" viewBox="0 0 70 70" version="1.1" xmlns="http://www.w3.org/2000/svg" xmlns:xlink="http://www.w3.org/1999/xlink">
    <!-- Generator: Sketch 46.1 (44463) - http://www.bohemiancoding.com/sketch -->
    <title>jianhang</title>
    <desc>Created with Sketch.</desc>
    <defs></defs>
    <g id="Symbols" stroke="none" stroke-width="1" fill="none" fill-rule="evenodd">
        <g id="jianhang">
            <g id="Oval-Copy" fill="#FFFFFF">
                <circle id="Oval" cx="35" cy="35" r="35"></circle>
            </g>
            <g id="建设银行" transform="translate(7.000000, 5.000000)" fill-rule="nonzero" fill="#053D8F">
                <path d="M54.5145117,31.8854883 L43.69875,31.8854883 C43.69875,31.8854883 42.9217383,31.8854883 42.5977734,32.0175 C42.4034766,32.0834766 41.7554883,32.6122266 41.7554883,32.6122266 L28.4145117,46.2059766 C28.1688866,46.4046222 27.8178517,46.4046222 27.5722266,46.2059766 L13.3897266,31.7527734 C13.1954883,31.5547266 13.1954883,31.15875 13.3897266,30.96 L27.6375,16.5075 C27.8291016,16.2426563 28.2236133,16.2426563 28.4152734,16.5075 L40.9147266,29.2447266 C40.9147266,29.2447266 41.4322266,29.83875 42.0157617,30.0367383 C42.5984766,30.1695117 43.4407617,29.4427734 43.4407617,29.4427734 L49.2052734,23.4367383 L32.3647266,6.41097656 C28.8022266,2.78097656 24.9165234,3.11097656 23.3625,3.30902344 C9.82722656,5.61902344 0.0472265625,17.4322266 0.0472265625,31.4895117 C0.0472265625,47.3279883 12.9359766,60 28.0259766,60 C42.8565234,60 55.2915234,47.8567383 56.0040234,32.5454883 C56.0040234,32.3475 56.0684766,32.21625 55.68,31.9515234 C55.2915234,31.6875 54.5145117,31.8854883 54.5145117,31.8854883 Z M36.8332617,5.94902344 L51.6,20.8642383 L55.68,16.8382617 C55.68,16.8382617 56.0684766,16.1782617 56.1975,15.5842383 C56.2620117,15.2542383 55.6147266,14.72625 55.6147266,14.72625 L46.6132617,5.48701172 C38.1284766,-3.15826172 28.6732617,0.999726563 28.6732617,0.999726563 C28.6732617,0.999726563 32.6242383,1.065 36.8332617,5.94902344 Z" id="Shape"></path>
            </g>
        </g>
    </g>
</svg>