<?xml version="1.0" encoding="UTF-8"?>
<svg width="70px" height="70px" viewBox="0 0 70 70" version="1.1" xmlns="http://www.w3.org/2000/svg" xmlns:xlink="http://www.w3.org/1999/xlink">
    <!-- Generator: Sketch 46.1 (44463) - http://www.bohemiancoding.com/sketch -->
    <title>jiaotong</title>
    <desc>Created with Sketch.</desc>
    <defs></defs>
    <g id="Symbols" stroke="none" stroke-width="1" fill="none" fill-rule="evenodd">
        <g id="jiaotong">
            <g id="Oval-Copy" fill="#FFFFFF">
                <circle id="Oval" cx="35" cy="35" r="35"></circle>
            </g>
            <g id="交通银行" transform="translate(10.000000, 5.000000)" fill-rule="nonzero" fill="#1D2087">
                <path d="M44.7800678,44.99925 C41.2772203,45.1125 38.0398644,45.2265 34.5385085,45.33975 C32.3206102,54.82575 13.9808136,52.2645 16.0242034,40.22625 C17.0511186,33.09525 26.632678,29.9805 32.5778983,35.3655 C33.8837288,36.84975 34.524339,38.229 34.9434576,41.25 C37.8810169,41.13675 41.8432542,41.02275 44.7800678,40.9095 C44.9284746,25.56825 27.6021695,17.7825 14.6102373,25.227 C2.15525424,32.3625 3.59308475,54.105 16.644678,59.658 L16.644678,60 C9.52786441,59.859 1.72122034,54.315 0.0216271186,47.727 L0.117830508,12.3585 C5.76698305,8.4945 12.0112542,3.86325 17.6611525,0 L18.3397966,0.34125 C17.9482712,5.673 18.1966102,14.4645 18.5090847,20.88075 C22.0484746,17.42625 24.4334237,13.8135 30.5434576,12.6135 C34.4810847,11.84025 38.2509153,12.30675 40.6284068,13.125 C58.4782373,19.275 59.5894237,42.471 44.4422373,50.45475 C44.1021695,50.45475 43.3653559,51.126 42.8030508,51.237 C42.8030508,51.12375 43.1572881,50.631 43.4242712,50.1135 L44.7800678,44.99925 L44.7800678,44.99925 Z" id="Shape"></path>
            </g>
        </g>
    </g>
</svg>