<?xml version="1.0" encoding="UTF-8"?>
<svg width="70px" height="70px" viewBox="0 0 70 70" version="1.1" xmlns="http://www.w3.org/2000/svg" xmlns:xlink="http://www.w3.org/1999/xlink">
    <!-- Generator: Sketch 46.1 (44463) - http://www.bohemiancoding.com/sketch -->
    <title>mingshen</title>
    <desc>Created with Sketch.</desc>
    <defs></defs>
    <g id="Symbols" stroke="none" stroke-width="1" fill="none" fill-rule="evenodd">
        <g id="mingshen">
            <g id="Oval-Copy" fill="#FFFFFF">
                <circle id="Oval" cx="35" cy="35" r="35"></circle>
            </g>
            <g id="民生银行-2" transform="translate(5.000000, 12.000000)" fill-rule="nonzero">
                <path d="M57.5089541,26.6041045 C52.1174897,19.6783489 37.3941324,18.0107884 37.3941324,18.0107884 L43.3380556,14.3192934 L30.0790467,6.83544304 L17.552212,14.036884 L27.97571,19.9473103 C44.8955898,19.7724854 49.9209671,29.0045848 49.9209671,29.0045848 C54.1276406,42.7754074 29.3468725,43.66298 29.3468725,43.66298 C15.2625037,45.22968 8.5997186,32.5145308 8.5997186,32.5145308 L0,32.7902162 C10.0574108,53.3926579 46.6994007,44.3555556 46.6994007,44.3555556 C65.6294314,38.3577168 57.5089541,26.6041045 57.5089541,26.6041045 Z M30.0790467,17.4594175 L24.1351236,14.4067059 L29.8061454,10.7084869 L35.7500686,13.9494715 L30.0790467,17.4594175 L30.0790467,17.4594175 Z" id="Shape" fill="#1D2087"></path>
                <path d="M30.8655778,0.141986433 C21.5746005,-0.505555948 2.51207817,0.662690616 0.169310191,12.1782639 C-1.69956455,21.3439926 12.3103214,26.7312782 22.1152393,27.7526595 C20.1128735,28.9409332 18.1038331,30.1091797 16.1014673,31.2974534 C20.4666248,33.7808118 24.8317822,36.2574945 29.1969396,38.7341772 L41.1911107,31.7046707 L29.2102887,25.336058 C27.0744319,24.8420566 24.8117585,25.6164372 23.4034279,25.6364643 C16.6154079,25.7365997 7.19093956,18.3065516 9.72059501,11.8311278 C14.6397403,-2.30131781 47.5586339,-0.265230941 50.7891174,13.9539987 L60,13.9539987 C55.4880024,3.03256222 40.156555,0.78285312 30.8655778,0.141986433 Z M29.7242293,28.4602831 L35.7780485,31.7580763 L29.5440163,35.0558695 L23.7638538,31.7580763 L29.7242293,28.4602831 L29.7242293,28.4602831 Z" id="Shape" fill="#5AA472"></path>
            </g>
        </g>
    </g>
</svg>