<?xml version="1.0" encoding="UTF-8"?>
<svg width="70px" height="70px" viewBox="0 0 70 70" version="1.1" xmlns="http://www.w3.org/2000/svg" xmlns:xlink="http://www.w3.org/1999/xlink">
    <!-- Generator: Sketch 46.1 (44463) - http://www.bohemiancoding.com/sketch -->
    <title>nonghang</title>
    <desc>Created with Sketch.</desc>
    <defs></defs>
    <g id="Symbols" stroke="none" stroke-width="1" fill="none" fill-rule="evenodd">
        <g id="nonghang">
            <g id="Oval-Copy" fill="#FFFFFF">
                <circle id="Oval" cx="35" cy="35" r="35"></circle>
            </g>
            <g id="中国农业银行" transform="translate(5.000000, 5.000000)" fill-rule="nonzero" fill="#049175">
                <path d="M27.2771681,0.133710937 L28.6781711,0 L31.45587,0 L32.7228906,0.133710937 L32.7228906,18.5288672 L32.601003,18.6504492 L32.4791741,18.9058008 L32.3329794,18.9058008 L32.2111505,19.0273828 L31.8335103,19.1489648 L28.3005309,19.1489648 L27.9228319,19.0273828 L27.7888495,18.9058008 L27.5329794,18.9058008 L27.5329794,18.6503906 L27.4111505,18.5288086 L27.2893216,18.0303516 L27.2893216,0.133710937 L27.2771681,0.133710937 Z M40.0446608,29.8723828 L40.0446608,38.8206445 L39.9228319,39.0638086 L39.7888495,39.1975781 L39.6670206,39.4528711 L39.4233628,39.4528711 L39.1553392,39.5744531 L38.6436578,39.6960352 L33.3441887,39.6960352 L33.3441887,53.8115625 L34.4771681,53.5683984 L35.6101475,53.4468164 L36.621298,53.0698828 L37.6446608,52.8145898 L38.1441887,52.6930078 L38.6436578,52.4377148 L39.6548083,52.0607812 L40.6660176,51.5501367 L41.5553392,51.0516797 L42.5664897,50.5410352 L43.4558113,50.0425781 L44.2111505,49.4103516 L45.1005309,48.778125 L46.7451917,47.3920898 L47.5005309,46.6382812 L48.1218289,45.8723437 L48.8771681,44.9969531 L49.5106784,44.2310156 L50.1441887,43.355625 L50.6436578,42.4681055 L51.1431269,41.4589453 L51.6548083,40.5714258 L52.1543362,39.5623242 L52.5319764,38.5531641 L53.1654867,36.5349609 L53.5431269,35.5258594 L53.6649558,34.3951172 L53.9208259,33.3860156 L54.0426548,32.255332 L54.1644837,29.9817773 L54.0426548,28.2188672 L53.9329794,27.3556055 L53.9329794,26.4680859 L53.5553392,24.7051758 L53.0558113,22.9422656 L52.8,22.188457 L52.5441887,21.4225195 L51.9106784,19.7933203 L51.0335103,18.2735742 L50.2660176,16.765957 L49.2548083,15.5015039 L48.1218289,14.1155273 L46.9888495,12.8632031 L45.7218289,11.7203906 L44.4670206,10.7112305 L43.0660176,9.70212891 L41.5553392,8.82673828 L40.0446608,8.06080078 L40.0446608,28.7295117 L39.9228319,28.9726758 L39.7888495,29.1185742 L39.6670206,29.3617383 L39.4233628,29.4954492 L39.1553392,29.4954492 L38.6436578,29.6170312 L31.2,29.6170312 L31.0781711,29.7386133 L30.9441887,29.8723242 L30.9441887,21.1793555 L31.0660176,20.9240039 L31.1878465,20.6808398 L31.4436578,20.5592578 L34.854867,20.5592578 L35.3664897,20.4255469 L35.7441887,20.2917773 L36,20.1580664 L36.2558113,19.7811328 L36.2558113,0.632226562 L38.7776402,1.38603516 L40.0446608,1.76291016 L41.1776402,2.13984375 L42.4446608,2.63830078 L43.5776402,3.28265625 L44.7106784,3.78117187 L45.7218289,4.41339844 L46.8548083,5.16714844 L47.8660176,5.78724609 L48.8771681,6.55318359 L49.7543362,7.42857422 L50.7654867,8.31609375 L51.6548083,9.19148437 L53.2994691,10.966582 L54.0548083,11.9635547 L54.8223598,12.9848437 L55.4436578,14.1155273 L56.0771681,15.1246289 L57.3441887,17.3859961 L57.8436578,18.5167383 L58.2335103,19.7933203 L58.9888495,22.188457 L59.3664897,23.4529102 L59.6223598,24.7173633 L59.7563422,25.9696289 L60,27.3556055 L60,31.5136523 L59.8781711,33.033457 L59.7441887,34.5288867 L59.4883186,36.0486328 L59.1106784,37.434668 L58.7329794,38.9422852 L58.2335103,40.3282617 L57.7218289,41.6048437 L57.0883186,42.97875 L56.4548083,44.2432031 L55.6994691,45.5075977 L54.9441887,46.7598633 L54.0670206,47.9027344 L53.1776402,49.033418 L52.2883186,50.1641602 L51.2771681,51.1732617 L50.2660176,52.1823633 L49.1329794,53.0698828 L48,53.9452734 L46.8548083,54.8328516 L45.6,55.5866016 L44.3329794,56.3525977 L43.0659589,56.9726367 L41.6771681,57.6048633 L40.4223598,58.1033203 L38.8994691,58.6018359 L37.5106784,58.9908984 L36.1218289,59.3677734 L34.598997,59.6109375 L33.0883186,59.744707 L31.5776402,59.8662891 L30.0669619,60 L28.5441887,59.878418 L27.0335103,59.7568359 L25.5106784,59.623125 L24,59.3677734 L22.4893216,58.9908984 L21.1005309,58.6018359 L19.6994691,58.1033203 L18.3106784,57.6048633 L17.0558113,56.9726367 L15.7887908,56.3525977 L14.5218289,55.5866016 L13.2670206,54.8328516 L12.1218289,53.9452734 L10.9888495,53.0698828 L9.8436578,52.1823633 L8.84466081,51.1732617 L7.83351029,50.1641602 L6.82235976,49.033418 L5.93297943,47.9027344 L5.17764024,46.7598633 L4.42235976,45.5075977 L3.66702057,44.2431445 L3.03351029,42.9786914 L2.4,41.6048437 L1.90053086,40.3282617 L1.38884948,38.9422266 L1.01115052,37.4346094 L0.633510287,36.0486328 L0.377640238,34.5288867 L0.121828901,33.0212695 L0,31.5015234 L0,28.6079297 L0.121828901,27.3556055 L0.243657803,25.9696289 L0.499469139,24.7173047 L0.755339188,23.4528516 L1.01115052,22.1883984 L1.77870196,19.7933203 L2.2781711,18.5288672 L2.77764024,17.3859961 L3.28932162,16.2553125 L3.92283191,15.1246289 L4.5563422,14.1155273 L5.31168139,12.9847852 L6.07917411,11.9756836 L6.82235976,10.966582 L7.58985248,10.0790039 L8.46702057,9.19148437 L9.3563422,8.31609375 L10.2335103,7.42857422 L12.2558113,5.92095703 L13.2670206,5.16714844 L14.2781711,4.41339844 L15.4111505,3.78117187 L16.5441887,3.28265625 L17.6893216,2.63830078 L18.8223598,2.13984375 L19.9553392,1.76291016 L21.2223598,1.38603516 L22.4893803,1.00910156 L23.7441887,0.632226562 L23.7441887,19.7933203 L23.8660176,20.0486133 L23.9878465,20.1701953 L24.3654867,20.3039648 L24.7553392,20.4255469 L25.1329794,20.5471289 L28.5441887,20.5471289 L28.8,20.6687109 L29.0558113,20.911875 L29.0558113,29.8601953 L28.8,29.6170312 L21.3441887,29.6170312 L20.8325073,29.4954492 L20.5888495,29.4954492 L20.4548083,29.3616797 L20.198997,29.1185156 L20.0771681,28.9848047 L20.0771681,28.7416406 L19.9553392,28.3647656 L19.9553392,8.06074219 L18.4446608,8.82667969 L17.0558113,9.70207031 L15.6670206,10.7111719 L14.2781711,11.720332 L13.0111505,12.8631445 L11.8781711,14.1154687 L10.8548083,15.5014453 L9.8436578,16.8874805 L8.96648971,18.2735156 L8.21115052,19.7932617 L7.83351029,20.5470703 L7.58985248,21.4224609 L6.94418866,23.0637891 L6.56648971,24.7051172 L6.18884948,26.4680273 L6.06702057,27.3555469 L6.06702057,28.243125 L5.94519167,30.0060352 L5.94519167,31.1367187 L6.06702057,32.2674023 L6.18884948,33.2765625 L6.31067838,34.4072461 L6.56648971,35.5379297 L6.82235976,36.5470312 L7.18784647,37.5561914 L7.3218289,38.0546484 L7.57764024,38.565293 L7.95533919,39.5743945 L8.33297943,40.5835547 L9.34418866,42.4680469 L10.6112092,44.109375 L11.2447195,44.9968945 L11.8781711,45.8722852 L12.6335103,46.6382227 L13.3888495,47.3920312 L14.8995279,48.7780664 L15.7888495,49.410293 L16.6660176,50.0425195 L18.4325073,51.0516211 L19.45587,51.5500781 L20.3330381,52.0607227 L21.3441887,52.4376562 L22.3553392,52.8145312 L23.4883186,53.0698242 L24.4994691,53.4467578 L25.5106784,53.5683398 L26.6436578,53.8236328 L26.6436578,39.7082227 L21.3441887,39.7082227 L20.8325073,39.5866406 L20.7106784,39.4528711 L20.4548083,39.4528711 L20.2111505,39.1975781 L20.0893216,39.0638086 L20.0893216,38.8206445 L19.9674927,38.4437695 L19.9674927,29.8723242 L20.0893216,30.0060937 L20.2111505,30.1276758 L20.5888495,30.3829687 L20.9664897,30.5045508 L21.3441887,30.6261328 L28.54413,30.6261328 L28.8,30.7477148 L29.0436578,31.0030664 L29.0436578,39.5744531 L30.9441887,39.5744531 L30.9441887,31.2583594 L31.0660176,31.0030664 L31.1878465,30.7477148 L31.4436578,30.6261328 L38.6436578,30.6261328 L39.021298,30.5045508 L39.398997,30.3829687 L39.7766372,30.1276758 L40.0446608,29.8723242 L40.0446608,29.8723828 Z" id="Shape"></path>
            </g>
        </g>
    </g>
</svg>