<?xml version="1.0" encoding="UTF-8"?>
<svg width="70px" height="70px" viewBox="0 0 70 70" version="1.1" xmlns="http://www.w3.org/2000/svg" xmlns:xlink="http://www.w3.org/1999/xlink">
    <!-- Generator: Sketch 46.1 (44463) - http://www.bohemiancoding.com/sketch -->
    <title>youzchuxu</title>
    <desc>Created with Sketch.</desc>
    <defs>
        <circle id="path-1" cx="35" cy="35" r="35"></circle>
    </defs>
    <g id="Symbols" stroke="none" stroke-width="1" fill="none" fill-rule="evenodd">
        <g id="youzchuxu">
            <g id="Shape">
                <mask id="mask-2" fill="white">
                    <use xlink:href="#path-1"></use>
                </mask>
                <use id="Mask" fill="#FFFFFF" xlink:href="#path-1"></use>
                <path d="M35.5545,10 L34.02015,17.3405 L21.9017,17.3405 L18.8277,31.8466 L7.81694999,31.8466 L6.53435002,37.7296 L6.27995,39.1871 L5,45.07805 L16.09555,45.07805 L13.0242,59.58415 L39.4818,59.58415 L40.76175,53.70115 L42.55315,45.07805 L50.66215,45.07805 L51.85465,39.1871 L40.42255,39.1871 L39.23005,45.07805 L37.34855,53.70115 L17.63255,53.70115 L17.8896,52.32845 L35.4697,52.32845 L38.5437,37.7296 L52.11965,37.7296 L53.3943,31.8466 L36.41045,31.8466 L35.2153,37.7296 L33.3391,46.44545 L19.1722,46.44545 L19.4266,45.07805 L31.5477,45.07805 L32.7402,39.1871 L33.0794,37.7296 L34.2772,31.8466 L22.1561,31.8466 L22.5006,30.48185 L40.0754,30.48185 L41.6124,23.2288 L55.18835,23.2288 L56.463,17.33785 L39.4818,17.33785 L38.20185,23.2288 L37.9501,24.59355 L23.6931,24.59355 L24.03495,23.2288 L36.1534,23.2288 L37.3459,17.33785 L37.6056,15.89095 L56.72535,15.89095 L58,10 L35.5545,10 Z M29.6715,37.7296 L29.40915,39.1871 L20.61645,39.1871 L20.96095,37.7296 L29.6715,37.7296 Z M17.63255,37.7296 L17.28805,39.1871 L9.61099999,39.1871 L9.86805002,37.7296 L17.63255,37.7296 Z" fill="#007E3E" fill-rule="nonzero" mask="url(#mask-2)"></path>
                <g id="民生银行-2" mask="url(#mask-2)" fill-rule="nonzero">
                    <g transform="translate(68.000000, -575.000000)" id="Shape">
                        <path d="M864,398.9 C783,295.9 561.8,271.1 561.8,271.1 L651.1,216.2 L451.9,104.9 L263.7,212 L420.3,299.9 C674.5,297.3 750,434.6 750,434.6 C813.2,639.4 440.9,652.6 440.9,652.6 C229.3,675.9 129.2,486.8 129.2,486.8 L0,490.9 C151.1,797.3 701.6,662.9 701.6,662.9 C986,573.7 864,398.9 864,398.9 Z M451.9,262.9 L362.6,217.5 L447.8,162.5 L537.1,210.7 L451.9,262.9 L451.9,262.9 Z" fill="#1D2087"></path>
                        <path d="M463.5,2.2 C324.3,-7.5 38.7,10 3.6,182.5 C-24.4,319.8 185.5,400.5 332.4,415.8 C302.4,433.6 272.3,451.1 242.3,468.9 C307.7,506.1 373.1,543.2 438.5,580.3 L618.2,475 L438.7,379.6 C406.7,372.2 372.8,383.8 351.7,384.1 C250,385.6 108.8,274.3 146.7,177.3 C220.4,-34.4 713.6,-3.9 762,209.1 L900,209.1 C832.4,45.5 602.7,11.8 463.5,2.2 Z M446.4,426.4 L537.1,475.8 L443.7,525.2 L357.1,475.8 L446.4,426.4 L446.4,426.4 Z" fill="#5AA472"></path>
                    </g>
                </g>
            </g>
        </g>
    </g>
</svg>