<?xml version="1.0" encoding="UTF-8"?>
<svg width="70px" height="70px" viewBox="0 0 70 70" version="1.1" xmlns="http://www.w3.org/2000/svg" xmlns:xlink="http://www.w3.org/1999/xlink">
    <!-- Generator: Sketch 46.1 (44463) - http://www.bohemiancoding.com/sketch -->
    <title>zhonghang copy</title>
    <desc>Created with Sketch.</desc>
    <defs></defs>
    <g id="Symbols" stroke="none" stroke-width="1" fill="none" fill-rule="evenodd">
        <g id="zhonghang-copy">
            <g id="Oval-Copy" fill="#FFFFFF">
                <circle id="Oval" cx="35" cy="35" r="35"></circle>
            </g>
            <g id="招商银行" transform="translate(5.000000, 5.000000)" fill-rule="nonzero" fill="#E41E26">
                <path d="M27.5136914,42.1276758 L35.6474414,21.5805469 L44.13375,42.1276172 L27.5136328,42.1276172 L27.5136914,42.1276758 Z M10.4802539,42.1276758 L18.6140039,21.5805469 L27.1003125,42.1276172 L10.4801953,42.1276172 L10.4802539,42.1276758 Z M59.100293,37.4467969 L58.7598633,38.6139844 L53.3130469,38.6139844 L52.7538281,37.4467969 L59.100293,37.4467969 L59.100293,37.4467969 Z M59.4529102,35.7932813 L52.0607812,35.7932813 L51.5136914,34.5532031 L59.6595703,34.5532031 L59.4529102,35.7932813 Z M59.8541016,32.8996875 L50.8207031,32.8996875 L50.2735547,31.6474219 L60,31.6474219 L59.8541016,32.8996875 Z M60,29.9939063 L49.5805664,29.9939063 L49.0942383,28.7538281 L60,28.7538281 L60,29.9939063 Z M59.8541016,27.1003125 L48.3404297,27.1003125 L47.8541016,25.8601758 L59.7203906,25.8601758 L59.8541016,27.1003125 Z M59.4529102,24.2066602 L47.1732422,24.2066602 L46.6139648,22.966582 L59.1732422,22.966582 L59.4529102,24.2066602 Z" id="Shape"></path>
                <polygon id="Shape" points="30.0060938 0 31.234043 0 32.5471289 0.133710938 33.787207 0.206660156 34.966582 0.413378906 36.2066602 0.620039063 37.3738477 0.887519531 38.5531641 1.24013672 39.7203516 1.58056641 40.2675 1.78722656 40.8267187 1.99394531 41.9331445 2.48021484 43.0273828 2.96654297 44.0608008 3.51369141 45.0942187 4.06078125 46.1398242 4.68087891 47.100293 5.37386719 48.0729492 6.06685547 48.9604687 6.75990234 49.8601758 7.51365234 50.7598828 8.34041016 51.5866406 9.16716797 52.4133984 9.99392578 53.1671484 10.8936328 53.5197656 11.3799609 53.8601953 11.8541016 54.6140039 12.8267578 55.2461719 13.7872266 55.8662695 14.7598828 56.4741797 15.7933008 56.9605078 16.8875391 57.5197852 17.9331445 57.9331055 19.0273828 58.3464844 20.2066992 58.7598633 21.3130664 45.9331055 21.3130664 37.9939453 2.75988281 29.7264258 23.6595703 21.033457 2.96654297 5.72642578 42.4802344 12.6929883 51.1732617 48.1337109 51.1732617 54.6140039 41.7142969 53.9939062 40.2675 58.2005859 40.2675 57.787207 41.3738672 57.3009375 42.4072852 56.8267383 43.4407031 56.3404102 44.4133594 55.7203711 45.4468359 55.1732813 46.4073047 54.4802344 47.3070117 53.8601953 48.1945313 53.1671484 49.1063672 52.4133984 49.9939453 51.6595898 50.7598828 50.8206445 51.5866406 49.9939453 52.3404492 49.1671875 53.1063867 48.2796094 53.799375 47.3799609 54.4802344 46.4802539 55.100332 45.5197852 55.7203711 44.5471289 56.2674609 43.5136523 56.8267383 42.4802344 57.3009375 41.4468164 57.7264453 40.3404492 58.1398242 39.3069727 58.5532031 38.2006055 58.8936328 37.033418 59.1732422 35.9270508 59.4529102 34.7598633 59.6595703 34.2127734 59.7203906 33.5805469 59.7933398 32.4133594 59.9270508 31.234043 60 28.4863477 60 26.966543 59.8541016 25.4467969 59.6595703 23.9270508 59.3799609 22.4802539 59.0273437 21.1064063 58.6869141 19.7203711 58.2005859 18.3343359 57.6534961 17.0334375 57.033457 15.7203516 56.4133594 15.1003125 55.9999805 14.4802148 55.6595508 13.2401367 54.8936133 12.0607617 54.0668555 10.8936328 53.1793359 10.3464844 52.6930078 9.86015625 52.2066797 9.31306641 51.7203516 8.82673828 51.2340234 7.79332031 50.2006055 6.82066406 49.1063672 6.41947266 48.5470898 5.99390625 47.9270508 5.10638672 46.7598633 4.75382813 46.2005859 4.34044922 45.5805469 4.00001953 44.9605078 3.64740234 44.2674609 2.96654297 43.0395117 2.34650391 41.6534766 1.86017578 40.3404492 1.37384766 38.8935938 0.96046875 37.5197461 0.753808594 36.7538086 0.620039063 36.0729492 0.486328125 35.3070117 0.340429688 34.5532031 0.133710938 33.1064062 0.0607617188 31.5136523 0 30.7599023 0 29.9939063 0.0607617187 28.4863477 0.133710937 26.9544141 0.340429688 25.4467969 0.620039063 23.9270508 0.96046875 22.4802539 1.37384766 21.0942188 1.86017578 19.7203711 2.34650391 18.3465234 2.96654297 17.0334375 3.64740234 15.7203516 4.00001953 15.1003125 4.34044922 14.4802148 5.10638672 13.2401367 5.99390625 12.0607617 6.82066406 10.8936328 7.30699219 10.3464844 7.79332031 9.86015625 8.27964844 9.31306641 8.82673828 8.82673828 9.86015625 7.79332031 10.8936328 6.82066406 11.5136719 6.40728516 12.0607617 5.99390625 13.2401367 5.10638672 13.8601758 4.75382812 14.4802148 4.34044922 15.1003125 3.98783203 15.7203516 3.64740234 17.0334375 2.96654297 18.3343359 2.34650391 19.7203711 1.78722656 21.1064062 1.37384766 22.4802539 0.96046875 23.2340625 0.753808594 23.9270508 0.620039062 24.6808594 0.486328125 25.4467969 0.340429688 26.966543 0.133710938 28.4863477 0.0607617188 29.2400977 0"></polygon>
            </g>
        </g>
    </g>
</svg>