<?xml version="1.0" encoding="UTF-8"?>
<svg width="70px" height="70px" viewBox="0 0 70 70" version="1.1" xmlns="http://www.w3.org/2000/svg" xmlns:xlink="http://www.w3.org/1999/xlink">
    <!-- Generator: Sketch 46.1 (44463) - http://www.bohemiancoding.com/sketch -->
    <title>zhongxin</title>
    <desc>Created with Sketch.</desc>
    <defs></defs>
    <g id="Symbols" stroke="none" stroke-width="1" fill="none" fill-rule="evenodd">
        <g id="zhongxin">
            <g id="Oval-Copy" fill="#FFFFFF">
                <circle id="Oval" cx="35" cy="35" r="35"></circle>
            </g>
            <g id="中信银行" transform="translate(5.000000, 5.000000)" fill-rule="nonzero" fill="#D7000F">
                <path d="M36.140105,18.5453571 L36.140105,54.8905462 C37.9164076,54.4351261 39.6015756,53.8430672 41.2412395,53.0231723 L41.2412395,11.4403361 C40.6946849,11.6680462 39.6471429,12.1690336 38.7817437,12.8522269 C37.0510714,14.2186134 36.140105,15.9948529 36.140105,18.5454202 M21.2468067,12.8521008 C20.3814706,12.1689076 19.3338655,11.6679202 18.7873109,11.4402101 L18.7873109,53.0231092 C20.3814076,53.7973739 22.1121429,54.435063 23.8884454,54.8905462 L23.8884454,18.5452941 C23.8884454,15.9947269 22.977542,14.2184874 21.2468067,12.8521008" id="Shape"></path>
                <path d="M40.1936975,6.43027311 C37.0966387,5.06388655 33.635105,4.33518908 30.0370588,4.33518908 C26.4390126,4.33518908 23.0230462,5.06388655 19.9259244,6.38476891 C19.425,6.65798319 18.7873109,7.11346639 18.7873109,7.88773109 C18.7873109,9.25411765 20.6547479,8.93521008 23.0230462,10.8481513 C25.2092647,12.5788866 26.3478782,15.0383193 26.3478782,17.7710924 L26.3478782,55.3460294 C27.5692257,55.5275928 28.8022896,55.6189324 30.0370588,55.6193067 C31.3123109,55.6193067 32.5420588,55.5281723 33.7262395,55.3460294 L33.7262395,17.7710294 C33.7262395,15.0383193 34.8648529,12.5788866 37.0510714,10.8481513 C39.4193697,8.98077731 41.2867437,9.25405462 41.2867437,7.88773109 C41.2867437,7.15897059 40.6491176,6.65798319 40.1936975,6.43027311" id="Shape"></path>
                <path d="M30.0370588,57.4411134 C14.8704202,57.4411134 2.52762605,45.1438235 2.52762605,29.9316807 C2.52762605,14.7195378 14.824916,2.4222479 30.0370588,2.4222479 C45.2036345,2.4222479 57.5464916,14.7195378 57.5464916,29.9316807 C57.5464916,45.1438235 45.2035714,57.4411134 30.0370588,57.4411134 M30.0370588,0.00838235294 C13.4585294,0.00838235294 0.0226260504,13.3987185 0.0226260504,29.9772479 C0.0226260504,46.5557773 13.4585294,59.9461134 29.9914916,59.9461134 C46.570021,59.9461134 59.9603571,46.5102101 59.9603571,29.9772479 C60.0059244,13.3987185 46.570021,0.00838235294 30.0370588,0.00838235294" id="Shape"></path>
                <path d="M4.395,29.9772479 C4.395,39.0862815 9.13172269,47.1022689 16.3278782,51.6112815 L16.3278782,31.9811975 C13.4129622,32.0723319 12.319916,33.8030672 12.0010714,34.5317647 C11.7277941,35.0783193 11.5456513,35.6703782 11.0446008,35.6703782 C10.1792647,35.6703782 9.49607143,33.2109454 9.49607143,30.204958 C9.49607143,27.1989706 10.1792647,24.7395378 11.0446008,24.7395378 C11.5456513,24.7395378 11.7277941,25.3315966 12.0010714,25.8781513 C12.319916,26.5613445 13.4129622,28.337584 16.3278782,28.3831513 L16.3278782,8.29764706 C9.13172269,12.8521008 4.395,20.8681513 4.395,29.9772479 M51.4889496,34.5317647 C51.2156723,35.0783193 51.0334664,35.6703782 50.532479,35.6703782 C49.6671429,35.6703782 48.9839496,33.2109454 48.9839496,30.204958 C48.9839496,27.1989706 49.6671429,24.7395378 50.532479,24.7395378 C51.0335294,24.7395378 51.2156723,25.3315966 51.4889496,25.8781513 C51.8077311,26.5613445 52.8553361,28.2465126 55.6335504,28.3831513 C55.1325,19.9116807 50.532479,12.5788866 43.7917437,8.29764706 L43.7917437,51.6112815 C50.3958403,47.4211134 54.9503571,40.224958 55.6335504,31.9811975 C52.8097689,32.1634034 51.8077311,33.8486345 51.4889496,34.5317647" id="Shape"></path>
            </g>
        </g>
    </g>
</svg>