<?xml version="1.0" encoding="UTF-8"?>
<svg width="70px" height="70px" viewBox="0 0 70 70" version="1.1" xmlns="http://www.w3.org/2000/svg" xmlns:xlink="http://www.w3.org/1999/xlink">
    <!-- Generator: Sketch 46.1 (44463) - http://www.bohemiancoding.com/sketch -->
    <title>zhonghang</title>
    <desc>Created with Sketch.</desc>
    <defs></defs>
    <g id="Symbols" stroke="none" stroke-width="1" fill="none" fill-rule="evenodd">
        <g id="zhonghang">
            <g id="Oval-Copy" fill="#FFFFFF">
                <circle id="Oval" cx="35" cy="35" r="35"></circle>
            </g>
            <g id="中国银行" transform="translate(5.000000, 5.000000)" fill-rule="nonzero" fill="#B81C22">
                <path d="M59.9063973,28.7048533 C59.5195286,18.0876298 52.9417508,10.861219 52.9417508,10.861219 C42.7711111,-1.03462754 29.7261279,0.0771331828 29.7261279,0.0771331828 C15.7967003,-0.36751693 7.22895623,10.1941084 7.22902357,10.1941084 C1.36983165,17.1981941 0.706531987,23.6463657 0.706531987,23.6463657 C-1.89144781,34.4860497 3.52552189,43.8247178 3.52552189,43.8247178 C7.56060606,51.1622573 11.816835,54.5531377 18.7262626,57.7772235 C25.6357576,61.0013093 36.1380471,60.5566591 42.6604714,57.2769074 C49.1830303,53.9972912 53.1628283,50.3840181 56.8109764,43.5468623 C60.4591919,36.7095034 59.9063973,28.7048533 59.9063973,28.7048533 Z M9.93750842,42.157246 C9.93750842,42.157246 4.74161616,34.7084424 6.89737374,25.4253047 C9.05306397,16.1420993 14.0832323,12.4177652 15.0781818,11.4727991 C16.0729966,10.5276975 22.513266,6.67679458 26.9070034,6.7476298 L26.9070034,17.8096388 L22.2639731,17.8097065 C22.2639731,17.8097065 15.9625589,18.1988262 15.7414141,25.2028442 L15.7413468,35.4310158 C15.7413468,35.4310158 15.9072054,41.7123251 22.429697,42.4350339 L26.9070034,42.4351016 L26.9070707,53.330316 C26.9070707,53.330316 15.9624916,52.7188036 9.93750842,42.157246 Z M23.1482828,35.9312641 C23.1482828,35.9312641 22.0428283,36.2092551 21.8769697,34.9306321 L21.8769024,25.147246 C21.8769697,25.147246 22.0427609,24.0910835 22.8719192,24.0910835 L36.5249158,24.0910158 C36.5249158,24.0910158 37.6858586,23.868623 37.7962963,25.147246 L37.796229,34.6527088 C37.796229,34.6527088 38.0726599,36.1537246 36.9670707,35.9313318 L23.1482828,35.9312641 L23.1482828,35.9312641 Z M49.7357576,43.102009 C45.31367,49.8837698 36.9117845,52.9965914 32.9872054,53.3301806 L32.9872054,42.4350339 L38.183165,42.4350339 C38.183165,42.4350339 43.7107071,41.3232731 44.0424242,35.5422122 L44.0424242,23.9242889 C44.0424242,23.9242889 43.1579798,18.0876298 37.0224242,17.8097065 L32.9873401,17.8096388 L32.9872054,6.74769752 C32.9872054,6.74769752 39.8967677,7.30361174 45.4795286,12.473228 C51.0623569,17.6428442 52.4995286,22.8124605 53.1075421,25.5918962 C53.7155556,28.3712641 54.1577778,36.320316 49.7357576,43.102009 L49.7357576,43.102009 Z" id="Shape"></path>
            </g>
        </g>
    </g>
</svg>