<?xml version="1.0" encoding="UTF-8"?>
<svg width="63px" height="36px" viewBox="0 0 63 36" version="1.1" xmlns="http://www.w3.org/2000/svg" xmlns:xlink="http://www.w3.org/1999/xlink">
    <!-- Generator: Sketch 46.2 (44496) - http://www.bohemiancoding.com/sketch -->
    <title>Group 4</title>
    <desc>Created with Sketch.</desc>
    <defs></defs>
    <g id="投注页" stroke="none" stroke-width="1" fill="none" fill-rule="evenodd">
        <g id="投注界面-包中" transform="translate(-30.000000, -1103.000000)">
            <g id="Group-4-Copy" transform="translate(30.000000, 1103.000000)">
                <path d="M35.7798229,32.1617783 C41.1240147,29.3928681 44.7449324,24.0430165 44.7449324,17.8975222 C44.7449324,8.91005001 37.0006686,1.62426426 27.4476351,1.62426426 C17.8946016,1.62426426 10.1503378,8.91005001 10.1503378,17.8975222 C10.1503378,23.5253413 13.1869217,28.4859164 17.802737,31.4081737 C20.5582516,33.1526808 33.3084065,33.4422581 35.7798229,32.1617783 Z" id="Oval" stroke="#F05244" stroke-width="2.5"></path>
                <ellipse id="Oval" stroke="#F05244" stroke-width="4" cx="27.4476351" cy="17.9099785" rx="10.3783784" ry="10.2857143"></ellipse>
                <g id="Group" transform="translate(3.570620, 11.524427)">
                    <path d="M2.84197827,2.85079126 L3.21412828,0.534892982 L7.33057774,0.534892982 L7.16629531,1.55722645 L18.9397674,1.55722645 C21.2148458,1.55722645 22.2049455,2.60736802 21.9100961,4.70768267 L20.5824258,12.9698062 C20.3448819,14.6250211 19.6539979,15.4734799 18.5097533,15.515208 L16.7428194,15.494344 L18.2381249,6.18902301 C18.3744688,5.34055153 18.087164,4.91632215 17.376202,4.91632215 L5.17615492,4.91632215 C3.58664352,4.98586899 2.80859242,4.29736558 2.84197827,2.85079126 Z M1.89558847,9.00565605 C2.23999095,7.1278913 3.27955025,6.18902301 5.01429756,6.18902301 L14.0150316,6.18902301 C15.7639982,6.18902301 16.4887158,7.12093672 16.1892062,8.9847921 L15.1498683,15.4526161 L4.48549146,15.4526161 L4.21727524,17.121732 L20.3844705,17.121732 L20.1732503,18.4361607 C19.9810277,19.6323664 19.0602143,20.2304603 17.4107824,20.2304603 L3.20583244,20.2304603 C1.12982337,20.2304603 0.242704513,19.291592 0.544449268,17.4138273 L1.89558847,9.00565605 Z M11.9650395,12.1769762 L12.1796125,10.8416835 C12.324897,9.93757455 11.8572151,9.48552686 10.7765529,9.48552686 L5.27373441,9.48552686 L4.84123576,12.1769762 L11.9650395,12.1769762 Z" id="包中" stroke="#F05244" stroke-width="6" fill="#F8E71C"></path>
                    <path d="M43.9887226,16.1619904 L43.6488871,18.1440655 L35.5013032,18.1440655 L35.1660329,20.2304603 L31.6467886,20.2304603 L31.7440169,19.6254058 C31.9027123,18.6378406 31.3066551,18.1440655 29.9558272,18.1440655 L23.7278312,18.1440655 L25.7226893,5.73001614 C26.1333378,3.35151413 27.5046192,2.16228096 29.8365746,2.16228096 L34.5502291,2.16228096 L34.81174,0.534892982 L38.3309843,0.534892982 L38.0694735,2.16228096 L43.0390731,2.16228096 C45.1861784,2.16228096 46.0659735,3.32369581 45.6784848,5.64656035 L43.9887226,16.1619904 Z M32.4179102,15.4317522 L33.7858129,6.9192612 C34.0048573,5.55614309 33.3963169,4.87459426 31.9601737,4.87459426 L29.4007232,4.87459426 L27.7042556,15.4317522 L32.4179102,15.4317522 Z M37.6336221,4.87459426 L35.9371546,15.4317522 L40.5654941,15.4317522 L41.9233387,6.98185305 C42.1490885,5.57700683 41.5581199,4.87459426 40.1504151,4.87459426 L37.6336221,4.87459426 Z" id="Combined-Shape" stroke="#F05244" stroke-width="6" fill="#F8E71C"></path>
                    <path d="M2.84197827,2.85079126 L3.21412828,0.534892982 L7.33057774,0.534892982 L7.16629531,1.55722645 L18.9397674,1.55722645 C21.2148458,1.55722645 22.2049455,2.60736802 21.9100961,4.70768267 L20.5824258,12.9698062 C20.3448819,14.6250211 19.6539979,15.4734799 18.5097533,15.515208 L16.7428194,15.494344 L18.2381249,6.18902301 C18.3744688,5.34055153 18.087164,4.91632215 17.376202,4.91632215 L5.17615492,4.91632215 C3.58664352,4.98586899 2.80859242,4.29736558 2.84197827,2.85079126 Z M1.89558847,9.00565605 C2.23999095,7.1278913 3.27955025,6.18902301 5.01429756,6.18902301 L14.0150316,6.18902301 C15.7639982,6.18902301 16.4887158,7.12093672 16.1892062,8.9847921 L15.1498683,15.4526161 L4.48549146,15.4526161 L4.21727524,17.121732 L20.3844705,17.121732 L20.1732503,18.4361607 C19.9810277,19.6323664 19.0602143,20.2304603 17.4107824,20.2304603 L3.20583244,20.2304603 C1.12982337,20.2304603 0.242704513,19.291592 0.544449268,17.4138273 L1.89558847,9.00565605 Z M11.9650395,12.1769762 L12.1796125,10.8416835 C12.324897,9.93757455 11.8572151,9.48552686 10.7765529,9.48552686 L5.27373441,9.48552686 L4.84123576,12.1769762 L11.9650395,12.1769762 Z" id="包中" fill="#FFFFFF"></path>
                    <path d="M43.9887226,16.1619904 L43.6488871,18.1440655 L35.5013032,18.1440655 L35.1660329,20.2304603 L31.6467886,20.2304603 L31.7440169,19.6254058 C31.9027123,18.6378406 31.3066551,18.1440655 29.9558272,18.1440655 L23.7278312,18.1440655 L25.7226893,5.73001614 C26.1333378,3.35151413 27.5046192,2.16228096 29.8365746,2.16228096 L34.5502291,2.16228096 L34.81174,0.534892982 L38.3309843,0.534892982 L38.0694735,2.16228096 L43.0390731,2.16228096 C45.1861784,2.16228096 46.0659735,3.32369581 45.6784848,5.64656035 L43.9887226,16.1619904 Z M32.4179102,15.4317522 L33.7858129,6.9192612 C34.0048573,5.55614309 33.3963169,4.87459426 31.9601737,4.87459426 L29.4007232,4.87459426 L27.7042556,15.4317522 L32.4179102,15.4317522 Z M37.6336221,4.87459426 L35.9371546,15.4317522 L40.5654941,15.4317522 L41.9233387,6.98185305 C42.1490885,5.57700683 41.5581199,4.87459426 40.1504151,4.87459426 L37.6336221,4.87459426 Z" id="Combined-Shape" fill="#FFFFFF"></path>
                </g>
                <path d="M53.5432226,13.2387132 L58.192481,4.70083115 L60.9193524,9.89410393 L53.5432226,13.2387132 Z M53.5432226,14.6616935 L62.3945784,16.3334553 L59.4748801,21.7765952 L53.5432226,14.6616935 Z" id="Path-6" fill="#F05244"></path>
            </g>
        </g>
    </g>
</svg>