<?xml version="1.0" encoding="UTF-8"?>
<svg width="126px" height="110px" viewBox="0 0 126 110" version="1.1" xmlns="http://www.w3.org/2000/svg" xmlns:xlink="http://www.w3.org/1999/xlink">
    <!-- Generator: Sketch 46.2 (44496) - http://www.bohemiancoding.com/sketch -->
    <title>Group 8</title>
    <desc>Created with Sketch.</desc>
    <defs></defs>
    <g id="投注页" stroke="none" stroke-width="1" fill="none" fill-rule="evenodd">
        <g id="订单详情-竞彩足球-包中-copy-2" transform="translate(-595.000000, -141.000000)" fill="#F05244">
            <g id="Group-8" transform="translate(595.000000, 140.354492)">
                <g id="流程结束印章" transform="translate(0.000000, 1.054474)">
                    <path d="M121.438566,48.9891032 L21.8371513,97.3975329 C19.2667922,98.6827124 16.0538434,97.6117295 14.7686638,94.8271738 L0.845885417,66.1248306 C-0.439294131,63.5544715 0.631688784,60.3415226 3.41624451,59.0563431 L103.017659,10.86211 C105.588019,9.57693045 108.800967,10.6479134 110.086147,13.4324691 L124.008925,42.1348123 C125.079908,44.7051714 124.008925,47.7039236 121.438566,48.9891032 Z M4.91562069,62.4834884 C4.05883429,62.9118816 3.84463778,63.768668 4.05883429,64.6254544 L17.9816127,93.3277976 C18.4100058,94.184584 19.2667922,94.3987805 20.1235786,94.184584 L119.724994,45.7761543 C120.58178,45.3477612 120.795977,44.4909748 120.58178,43.6341885 L106.659002,14.9318452 C106.230608,14.0750587 105.373822,13.8608622 104.517036,14.0750589 L4.91562069,62.4834884 Z M66.8184355,23.4997088 C66.6042389,23.7139055 66.1758457,23.7139055 65.7474526,23.7139055 C59.9641446,23.0713157 54.1808367,24.1422986 49.0401185,26.7126577 C43.8994003,29.2830168 39.4012719,33.1385555 36.4025196,38.065077 C35.7599299,38.9218634 34.6889469,39.1360599 33.8321605,38.7076668 C32.9753741,38.065077 32.7611776,36.9940941 33.1895708,36.1373077 C36.6167163,30.5681964 41.5432378,26.2842645 47.3265458,23.4997088 C53.1098538,20.7151532 59.5357515,19.6441702 65.9616492,20.28676 C67.0326321,20.5009566 67.6752219,21.3577429 67.6752219,22.2145293 C67.6752219,22.6429224 67.2468288,23.2855122 66.8184355,23.4997088 L66.8184355,23.4997088 Z M77.5282652,85.4025238 C71.7449572,88.1870795 65.3190595,89.2580624 58.8931617,88.6154727 C57.8221788,88.401276 57.179589,87.5444897 57.1795889,86.6877033 C57.3937855,85.6167204 58.2505718,84.9741307 59.1073582,84.9741305 C64.8906662,85.6167203 70.6739742,84.5457374 75.8146924,81.9753783 C80.9554105,79.4050192 85.453539,75.5494805 88.4522913,70.622959 C89.0948811,69.7661726 90.165864,69.5519761 91.0226504,69.9803692 C91.8794368,70.622959 92.0936333,71.6939419 91.6652402,72.5507283 C88.2380947,78.1198396 83.3115731,82.6179681 77.5282652,85.4025238 L77.5282652,85.4025238 Z" id="Shape" fill-rule="nonzero"></path>
                    <text id="包中方案-copy" transform="translate(63.612627, 52.957579) rotate(-25.000000) translate(-63.612627, -52.957579) " font-family="PingFangSC-Medium, PingFang SC" font-size="24" font-weight="400" letter-spacing="0.445714265">
                        <tspan x="13.4968884" y="61.4575787">包中方案</tspan>
                    </text>
                    <path d="M91.0226504,11.5046998 C90.3800606,11.7188964 89.7374709,11.7188964 89.3090776,11.5046998 C74.5295128,2.08004967 56.108606,1.00906675 40.4722548,8.72014404 C24.8359036,16.4312213 14.126074,31.2107861 12.1983047,48.7749067 C11.9841081,49.8458896 11.1273218,50.4884794 10.0563389,50.4884794 C8.98535597,50.2742827 8.3427662,49.4174964 8.34276607,48.3465134 C10.484732,29.71141 21.8371513,13.6466656 38.7586821,5.50719517 C55.6802128,-2.63227526 75.1721026,-1.56129234 91.2368469,8.2917509 C92.0936333,8.93434068 92.3078298,10.0053236 91.8794367,10.86211 C91.6652401,11.0763066 91.4510436,11.2905031 91.0226504,11.5046998 Z M86.0961287,103.180841 C69.174598,111.320311 49.6827082,110.249328 33.6179639,100.396285 L35.5457332,97.1833362 C50.325298,106.39379 68.7462048,107.464773 84.382556,99.7536953 C100.233104,92.042618 110.728737,77.2630532 112.656506,59.6989328 L116.297848,60.127326 C114.370079,78.9766261 103.017659,95.0413704 86.0961287,103.180841 Z" id="Shape" fill-rule="nonzero"></path>
                    <path d="M41.7574343,11.5046998 L44.5419901,13.6466656 L47.7549389,12.5756827 L46.4697594,15.7886316 L48.6117253,18.5731873 L44.9703832,18.3589907 L43.0426139,21.1435464 L42.1858276,17.9305975 L38.9728787,16.8596145 L41.7574343,14.9318452 L41.7574343,11.5046998 Z M25.69269,23.928102 L28.9056388,25.2132815 L31.6901946,23.0713157 L31.4759979,26.4984611 L34.2605537,28.4262304 L31.0476048,29.2830168 L30.1908184,32.7101623 L28.2630491,29.71141 L24.6217071,29.9256066 L26.763673,27.1410509 L25.69269,23.928102 Z M61.4635208,6.57817809 L60.3925378,9.79112696 L56.9653924,10.6479134 L59.749948,12.7898793 L59.5357515,16.2170247 L62.3203071,14.0750589 L65.533256,15.3602384 L64.4622731,12.1472895 L66.8184355,9.57693045 L63.1770935,9.57693045 L61.4635208,6.57817809 Z" id="Shape" fill-rule="nonzero"></path>
                    <path d="M83.3115731,97.3975329 L83.0973765,93.7561909 L86.0961287,92.042618 L82.8831799,90.9716351 L82.0263936,87.5444896 L79.8844276,90.543242 L76.4572821,90.3290454 L78.5992481,93.1136011 L77.3140685,96.32655 L80.5270174,95.0413704 L83.3115731,97.3975329 Z M63.6054866,102.324054 L64.6764697,98.896909 L67.8894186,98.2543193 L65.1048628,96.1123533 L65.533256,92.6852078 L62.7487004,94.6129771 L59.5357515,93.3277976 L60.6067344,96.7549431 L58.2505719,99.3253022 L61.6777173,99.3253022 L63.6054866,102.324054 Z M99.3763175,84.9741305 L96.1633686,83.688951 L93.3788129,85.8309169 L93.5930095,82.4037714 L90.5942572,80.4760021 L94.0214027,79.6192158 L94.8781891,76.1920703 L96.8059584,79.1908226 L100.233104,78.9766261 L98.0911379,81.7611817 L99.3763175,84.9741305 Z" id="Shape" fill-rule="nonzero"></path>
                </g>
            </g>
        </g>
    </g>
</svg>