<?xml version="1.0" encoding="UTF-8"?>
<svg width="54px" height="54px" viewBox="0 0 54 54" version="1.1" xmlns="http://www.w3.org/2000/svg" xmlns:xlink="http://www.w3.org/1999/xlink">
    <!-- Generator: Sketch 45.1 (43504) - http://www.bohemiancoding.com/sketch -->
    <title>bank</title>
    <desc>Created with Sketch.</desc>
    <defs>
        <linearGradient x1="100%" y1="100%" x2="0%" y2="0%" id="linearGradient-1">
            <stop stop-color="#EC6950" offset="0%"></stop>
            <stop stop-color="#FF904E" offset="100%"></stop>
        </linearGradient>
    </defs>
    <g id="个人中心" stroke="none" stroke-width="1" fill="none" fill-rule="evenodd">
        <g id="银行卡" transform="translate(-62.000000, -780.000000)" fill="#F05244">
            <g id="Group-2" transform="translate(30.000000, 732.000000)">
                <g id="bank" transform="translate(32.000000, 48.000000)">
                    <path d="M16.6974449,51.9642003 C19.9369541,53.3024839 23.4215893,54 27,54 C41.9116882,54 54,41.9116882 54,27 C54,23.2253627 53.2238174,19.556063 51.7399452,16.1705965 C47.469719,6.42804054 37.8234597,0 27,0 C12.0883118,0 0,12.0883118 0,27 C0,34.3118757 2.92287504,41.1650572 8.02034843,46.2034625 C8.80593534,46.9799462 10.0722438,46.9725666 10.8487275,46.1869797 C11.6252113,45.4013928 11.6178317,44.1350844 10.8322448,43.3586006 C6.48745347,39.0641556 4,33.2318946 4,27 C4,14.2974508 14.2974508,4 27,4 C36.2210099,4 44.4381863,9.47573328 48.0764018,17.7763517 C49.3394177,20.6579327 50,23.7807475 50,27 C50,39.7025492 39.7025492,50 27,50 C23.9479119,50 20.9819829,49.4063128 18.2247053,48.2672454 C17.2038194,47.8455041 16.0343389,48.3312068 15.6125976,49.3520927 C15.1908563,50.3729786 15.676559,51.542459 16.6974449,51.9642003 Z" id="Oval" fill-rule="nonzero"></path>
                    <path d="M18.8147267,17.4439137 C21.4876529,18.6764867 24.1759399,19.2927731 26.8795877,19.2927731 C29.6064039,19.2927731 32.3332672,18.6658791 35.0601778,17.4120911 L35.0601778,17.4120911 C35.5619645,17.1813779 36.1557729,17.4011264 36.3864861,17.9029131 C36.5079892,18.1671747 36.5084164,18.4712424 36.3876564,18.7358445 C35.123972,21.5047541 34.4921297,24.2421667 34.4921297,26.9480823 C34.4921297,29.6235062 35.1098123,32.2988372 36.3451776,34.9740752 L36.3451776,34.9740752 C36.5767159,35.4754817 36.3579446,36.0696508 35.8565381,36.3011891 C35.5918303,36.4234253 35.2869567,36.4240444 35.0217547,36.3028845 C32.2921579,35.0558435 29.5781022,34.432323 26.8795877,34.432323 C24.2043098,34.432323 21.5290781,35.0451516 18.8538924,36.2708086 L18.8538924,36.2708086 C18.3517964,36.5008478 17.7582835,36.2803022 17.5282444,35.7782062 C17.4066939,35.5129036 17.4070968,35.2077422 17.5293474,34.9427615 C18.7448356,32.3081642 19.3525798,29.6432711 19.3525798,26.9480823 C19.3525798,24.2211844 18.7304513,21.494193 17.4861942,18.7671079 L17.4861942,18.7671079 C17.2569438,18.2646512 17.4784213,17.6714855 17.980878,17.4422351 C18.2458134,17.3213559 18.5502801,17.3219689 18.8147267,17.4439137 Z" id="Rectangle-2" transform="translate(26.936811, 26.856853) rotate(45.000000) translate(-26.936811, -26.856853) "></path>
                </g>
            </g>
        </g>
    </g>
</svg>