<?xml version="1.0" encoding="UTF-8"?>
<svg width="78px" height="78px" viewBox="0 0 78 78" version="1.1" xmlns="http://www.w3.org/2000/svg" xmlns:xlink="http://www.w3.org/1999/xlink">
    <!-- Generator: Sketch 46.1 (44463) - http://www.bohemiancoding.com/sketch -->
    <title>chongzhi</title>
    <desc>Created with Sketch.</desc>
    <defs></defs>
    <g id="Symbols" stroke="none" stroke-width="1" fill="none" fill-rule="evenodd">
        <g id="chongzhi">
            <circle id="Oval-4" fill="#FE699B" cx="39" cy="39" r="39"></circle>
            <g id="充值-3" transform="translate(16.000000, 18.000000)">
                <path d="M18.2545897,22.3403653 C17.7702723,22.3403653 17.3773327,21.9314847 17.3773327,21.4255852 C17.3773327,20.9200461 17.7703228,20.5098781 18.2545897,20.5098781 L23.8112073,20.5098781 L23.8112073,19.4065701 C23.7683724,19.3298921 23.737711,19.2517207 23.7184657,19.1677303 L18.5651934,13.5622559 C18.2225141,13.2047686 18.2225141,12.6256413 18.5651934,12.2681541 C18.9078221,11.9106153 19.4637668,11.9106153 19.8057894,12.2681541 L24.6887168,17.6296905 L29.5708361,12.2681541 C29.9135153,11.9106153 30.4692579,11.9106153 30.8119878,12.2681541 C31.1541114,12.6256413 31.1541114,13.2047686 30.8119878,13.5622559 L25.658766,19.1673183 C25.6392175,19.2516692 25.6088593,19.3292226 25.5660244,19.4067246 L25.5660244,20.5098781 L31.1225915,20.5098781 C31.6069593,20.5098781 32,20.9199431 32,21.4256881 C32,21.9315877 31.6069088,22.3403653 31.1225915,22.3403653 L25.5659738,22.3403653 L25.5659738,24.4433709 L31.1224904,24.4433709 C31.6069088,24.4433709 31.9997979,24.8530239 31.9997979,25.3582025 C31.9997979,25.8646685 31.6068583,26.2734461 31.1224904,26.2734461 L25.5659738,26.2734461 L25.5659738,30.1741872 C25.5659738,30.6804472 25.1729837,31.0892248 24.6885653,31.0892248 C24.2042479,31.0892248 23.8113588,30.6804472 23.8113588,30.1741872 L23.8113588,26.273343 L18.2545897,26.273343 C17.7702723,26.273343 17.3773327,25.8646685 17.3773327,25.3582025 C17.3773327,24.8529209 17.7703228,24.4433708 18.2545897,24.4433708 L23.8113588,24.4433708 L23.8113588,22.3403652 L18.2545897,22.3403653 Z M8.2344058,24.1986604 C7.92698446,23.8670243 7.93531911,23.3388784 8.2540048,23.0190864 C8.57198333,22.698625 9.07933456,22.7081518 9.38635177,23.0394274 L13.813148,27.8125157 C13.846234,27.8481511 13.8617919,27.8928499 13.887503,27.9326051 C13.9184674,27.9800331 13.9553417,28.0224661 13.9765067,28.0762797 C14.0162098,28.1774699 14.0376778,28.2844277 14.0376778,28.392261 C14.0376778,28.4997337 14.0162098,28.606537 13.9765572,28.7076242 C13.954281,28.7640642 13.9160932,28.8090204 13.8830578,28.8585084 C13.858256,28.8959462 13.8439104,28.9383791 13.8126429,28.9721607 L9.38635177,33.745558 C9.07893043,34.0765761 8.57198328,34.085897 8.2540048,33.766002 C7.93567269,33.4455406 7.92738859,32.9176521 8.2344058,32.5864279 L11.349888,29.2265009 L0.800729998,29.2265009 C0.35874241,29.2265009 0,28.8527923 0,28.3923125 C0,27.9315237 0.35874241,27.5580726 0.800729998,27.5580726 L11.3497869,27.5580726 L8.2344058,24.1986604 Z" id="Shape" fill="#FFFFFF" fill-rule="nonzero"></path>
                <path d="M3,21.5000264 C3.00005289,18.5975775 3.56979883,15.7821123 4.69014046,13.1304805 C5.77350416,10.5696328 7.32266288,8.27147805 9.29582475,6.2958176 C11.2703621,4.32274349 13.5696069,2.77234274 16.131665,1.69021861 C18.7821738,0.568719521 21.5975228,0 24.5000529,0 C27.4024244,0 30.2179321,0.568719521 32.8694989,1.69021861 C35.4302344,2.77239556 37.7284742,4.32274349 39.7039108,6.2958176 C41.6773371,8.27052796 43.2276597,10.5696855 44.3098067,13.1304805 C45.4302541,15.7821123 46,18.5976302 46,21.5000792 C45.9999999,24.4025281 45.4302541,27.2179405 44.3098066,29.8682 C43.2276596,32.4291533 41.6773371,34.7272024 39.7039107,36.7028101 C37.7296908,38.6774149 35.4302343,40.2266016 32.8694989,41.3086202 C30.2178791,42.4302776 27.4024243,43 24.5000529,43 C21.5975756,43 18.7821737,42.4302776 16.1316649,41.3086202 C14.201882,40.4935699 12.4221799,39.4130291 10.8169458,38.0857882" id="Path" stroke="#FFFFFF" stroke-width="2.5" stroke-linecap="round"></path>
            </g>
        </g>
    </g>
</svg>