<?xml version="1.0" encoding="UTF-8"?>
<svg width="32px" height="34px" viewBox="0 0 32 34" version="1.1" xmlns="http://www.w3.org/2000/svg" xmlns:xlink="http://www.w3.org/1999/xlink">
    <!-- Generator: Sketch 45.2 (43514) - http://www.bohemiancoding.com/sketch -->
    <title>Group 5</title>
    <desc>Created with Sketch.</desc>
    <defs>
        <rect id="path-1" x="0" y="0" rx="10"></rect>
    </defs>
    <g id="付款成功" stroke="none" stroke-width="1" fill="none" fill-rule="evenodd">
        <g id="付款成功-h5android" transform="translate(-346.000000, -918.000000)">
            <g id="Group" transform="translate(303.500000, 897.585938)">
                <g id="Rectangle-13">
                    <use fill="#FFFFFF" fill-rule="evenodd" xlink:href="#path-1"></use>
                    <rect stroke="#F05244" stroke-width="1" x="0.5" y="0.5" width="339" height="77" rx="10"></rect>
                </g>
                <g id="Group-2" transform="translate(41.500000, 18.000000)" fill-rule="nonzero" fill="#F05244">
                    <g id="Group-5" transform="translate(0.351007, 2.000000)">
                        <path d="M1,23.680304 L1,29.5579849 C1,31.3404369 2.41505215,32.7971083 4.17514839,32.7971082 L29.1892166,32.7971082 C30.9492877,32.7971082 32.364365,31.340427 32.364365,29.5579849 L32.364365,23.6802685 C32.364365,23.1279838 31.9166497,22.6802685 31.364365,22.6802685 C30.8120802,22.6802685 30.364365,23.1279838 30.364365,23.6802685 L30.364365,29.5579849 C30.364365,30.248619 29.831541,30.7971082 29.1892166,30.7971082 L4.17514836,30.7971082 C3.53280387,30.7971082 3,30.2486337 3,29.5579849 L3,23.680304 C3,23.1280193 2.55228475,22.680304 2,22.680304 C1.44771525,22.680304 1,23.1280193 1,23.680304 Z" id="Shape"></path>
                        <path d="M16.6822686,24.5644726 L6.82565194,14.4179555 C6.44082783,14.021813 5.80772934,14.0126377 5.41158688,14.3974618 C5.01544441,14.7822859 5.00626907,15.4153844 5.39109318,15.8115268 L15.3880309,26.1024921 C16.0993887,26.8347722 17.2650716,26.8347722 17.9764686,26.1025308 L27.9734439,15.8115268 C28.358268,15.4153844 28.3490927,14.7822859 27.9529502,14.3974618 C27.5568078,14.0126377 26.9237093,14.021813 26.5388852,14.4179555 L16.6822686,24.5644726 Z" id="Shape"></path>
                        <path d="M15.5714286,2.29606533 L15.5714286,25.5074627 C15.5714286,26.0597474 16.0191438,26.5074627 16.5714286,26.5074627 C17.1237133,26.5074627 17.5714286,26.0597474 17.5714286,25.5074627 L17.5714286,2.29606533 C17.5714286,1.74378058 17.1237133,1.29606533 16.5714286,1.29606533 C16.0191438,1.29606533 15.5714286,1.74378058 15.5714286,2.29606533 Z" id="Shape"></path>
                    </g>
                </g>
            </g>
        </g>
    </g>
</svg>