<?xml version="1.0" encoding="UTF-8"?>
<svg width="101px" height="44px" viewBox="0 0 101 44" version="1.1" xmlns="http://www.w3.org/2000/svg" xmlns:xlink="http://www.w3.org/1999/xlink">
    <!-- Generator: Sketch 44.1 (41455) - http://www.bohemiancoding.com/sketch -->
    <title>fangkuang</title>
    <desc>Created with Sketch.</desc>
    <defs>
        <path d="M4,0 L77.6012064,0 L77.6012064,1.0658141e-14 C78.6491742,1.04656325e-14 79.6552877,0.411269509 80.4031793,1.14536382 L98.937541,19.3377976 L98.937541,19.3377976 C100.514113,20.8852845 100.537691,23.4178346 98.9902042,24.9944067 C98.9634223,25.0216919 98.9362507,25.0485918 98.9086975,25.075098 L80.3977573,42.8826642 L80.3977573,42.8826642 C79.652552,43.5995534 78.6586787,44 77.6246279,44 L4,44 L4,44 C1.790861,44 2.705415e-16,42.209139 0,40 L0,4 L0,4 C-2.705415e-16,1.790861 1.790861,4.05812251e-16 4,0 Z" id="path-1"></path>
    </defs>
    <g id="竞彩足球" stroke="none" stroke-width="1" fill="none" fill-rule="evenodd">
        <g id="七星彩-copy" transform="translate(-30.000000, -667.000000)">
            <g id="第一位-copy-3" transform="translate(30.000000, 667.000000)">
                <g id="fangkuang">
                    <use fill="#EEEEEE" fill-rule="evenodd" xlink:href="#path-1"></use>
                    <path stroke="#DDDDDD" stroke-width="1" d="M4,0.5 C2.06700338,0.5 0.5,2.06700338 0.5,4 L0.5,40 C0.5,41.9329966 2.06700338,43.5 4,43.5 L77.6246279,43.5 C78.5294223,43.5 79.3990615,43.1496092 80.0511161,42.5223312 L98.5620563,24.7147649 C98.5980529,24.6798033 98.5980529,24.6798033 98.6333747,24.6441601 C99.9874258,23.2646595 99.9667949,21.0486781 98.5872944,19.6946271 L80.0529327,1.50219334 C79.3985275,0.85986082 78.5181782,0.5 77.6012064,0.5 L4,0.5 Z"></path>
                </g>
            </g>
        </g>
    </g>
</svg>