<?xml version="1.0" encoding="UTF-8"?>
<svg width="42px" height="42px" viewBox="0 0 42 42" version="1.1" xmlns="http://www.w3.org/2000/svg" xmlns:xlink="http://www.w3.org/1999/xlink">
    <!-- Generator: Sketch 45.1 (43504) - http://www.bohemiancoding.com/sketch -->
    <title>Fill 1</title>
    <desc>Created with Sketch.</desc>
    <defs></defs>
    <g id="开奖" stroke="none" stroke-width="1" fill="none" fill-rule="evenodd">
        <g id="开奖信息" transform="translate(-138.000000, -316.000000)" fill="#FFFFFF">
            <path d="M146.982585,350.873502 L159.000029,338.855367 L163.697537,343.554827 C160.850824,346.918712 159.639589,351.182379 160.06647,355.324934 C155.425355,355.594066 150.71243,354.111115 146.982585,350.873502 L146.982585,350.873502 Z M140.676565,335.933079 C144.817756,336.360431 149.080762,335.150598 152.445278,332.301939 L157.144017,337.000755 L145.126632,349.017541 C141.88909,345.287096 140.407375,340.574798 140.676565,335.933079 L140.676565,335.933079 Z M146.982585,323.126718 C149.440932,320.991308 152.322291,319.6103 155.336896,318.998935 C155.671448,322.36534 154.706305,325.825364 152.445337,328.589373 L146.982585,323.126718 Z M150.589384,330.444689 C147.82474,332.705607 144.365375,333.670812 140.998279,333.337549 C141.609642,330.322287 142.992637,327.440917 145.126691,324.982034 L150.589384,330.444689 Z M171.017415,323.126718 L159.000029,335.145439 L154.302521,330.444689 C157.150524,327.080218 158.36047,322.819072 157.933589,318.675872 C162.574703,318.408029 167.287629,319.889105 171.017415,323.126718 L171.017415,323.126718 Z M167.411906,343.554827 C170.174029,341.29385 173.633453,340.328704 177.001721,340.663199 C176.390358,343.678519 175.007421,346.559127 172.873309,349.017541 L167.411906,343.554827 Z M165.554722,345.412078 L171.017415,350.874733 C168.557837,353.006918 165.676478,354.391151 162.663163,354.999936 C162.328611,351.634821 163.293753,348.176028 165.554722,345.412078 L165.554722,345.412078 Z M177.323435,338.065851 C173.182186,337.639672 168.919238,338.848977 165.553432,341.698222 L160.855924,337.000696 L172.873251,324.981975 C176.110969,328.711834 177.592625,333.424719 177.323435,338.065851 L177.323435,338.065851 Z M173.848711,322.151313 C165.648281,313.949562 152.353008,313.949562 144.151289,322.151313 C135.94957,330.352419 135.94957,343.648388 144.151289,351.848204 C152.351719,360.050599 165.648281,360.050599 173.848711,351.848204 C182.05043,343.646512 182.05043,330.352419 173.848711,322.151313 L173.848711,322.151313 Z" id="Fill-1"></path>
        </g>
    </g>
</svg>