<?xml version="1.0" encoding="UTF-8"?>
<svg width="34px" height="34px" viewBox="0 0 34 34" version="1.1" xmlns="http://www.w3.org/2000/svg" xmlns:xlink="http://www.w3.org/1999/xlink">
    <!-- Generator: Sketch 46.1 (44463) - http://www.bohemiancoding.com/sketch -->
    <title>new</title>
    <desc>Created with Sketch.</desc>
    <defs></defs>
    <g id="Symbols" stroke="none" stroke-width="1" fill="none" fill-rule="evenodd">
        <g id="new" fill-rule="nonzero" fill="#FFFFFF">
            <path d="M3,6 C2.44771525,6 2,6.44771525 2,7 L2,28 C2,28.5522847 2.44771525,29 3,29 L31,29 C31.5522847,29 32,28.5522847 32,28 L32,7 C32,6.44771525 31.5522847,6 31,6 L3,6 Z M3,4 L31,4 C32.6568542,4 34,5.34314575 34,7 L34,28 C34,29.6568542 32.6568542,31 31,31 L3,31 C1.34314575,31 3.33066907e-16,29.6568542 0,28 L0,7 C-4.99600361e-16,5.34314575 1.34314575,4 3,4 Z" id="Combined-Shape"></path>
            <path d="M2.70710678,5.29289322 C2.31658249,4.90236893 1.68341751,4.90236893 1.29289322,5.29289322 C0.902368927,5.68341751 0.902368927,6.31658249 1.29289322,6.70710678 L16.2928932,21.7071068 C16.6834175,22.0976311 17.3165825,22.0976311 17.7071068,21.7071068 L32.7071068,6.70710678 C33.0976311,6.31658249 33.0976311,5.68341751 32.7071068,5.29289322 C32.3165825,4.90236893 31.6834175,4.90236893 31.2928932,5.29289322 L17,19.5857864 L2.70710678,5.29289322 Z" id="Rectangle-4"></path>
        </g>
    </g>
</svg>