<?xml version="1.0" encoding="UTF-8"?>
<svg width="34px" height="34px" viewBox="0 0 34 34" version="1.1" xmlns="http://www.w3.org/2000/svg" xmlns:xlink="http://www.w3.org/1999/xlink">
    <!-- Generator: Sketch 46.1 (44463) - http://www.bohemiancoding.com/sketch -->
    <title>sanchu</title>
    <desc>Created with Sketch.</desc>
    <defs></defs>
    <g id="Symbols" stroke="none" stroke-width="1" fill="none" fill-rule="evenodd">
        <g id="sanchu">
            <path d="M17,34 C7.61115925,34 0,26.3888407 0,17 C0,7.61115925 7.61115925,0 17,0 C26.3888407,0 34,7.61115925 34,17 C34,26.3888407 26.3888407,34 17,34 Z M17,32 C25.2842712,32 32,25.2842712 32,17 C32,8.71572875 25.2842712,2 17,2 C8.71572875,2 2,8.71572875 2,17 C2,25.2842712 8.71572875,32 17,32 Z" id="Oval" fill-opacity="0.6" fill="#FFFFFF" fill-rule="nonzero"></path>
            <circle id="Oval-2" fill-opacity="0.1" fill="#000000" cx="17" cy="17" r="15"></circle>
            <g id="Group-6" transform="translate(8.000000, 8.000000)" fill-rule="nonzero" fill="#FFFFFF">
                <path d="M0.763481454,2.17769502 L15.822305,17.2365185 C16.2128293,17.6270428 16.8459943,17.6270428 17.2365185,17.2365185 C17.6270428,16.8459943 17.6270428,16.2128293 17.2365185,15.822305 L2.17769502,0.763481454 C1.78717072,0.372957162 1.15400575,0.372957162 0.763481454,0.763481454 C0.372957162,1.15400575 0.372957162,1.78717072 0.763481454,2.17769502 Z" id="Line-8"></path>
                <path d="M0.763481454,2.17769502 L15.822305,17.2365185 C16.2128293,17.6270428 16.8459943,17.6270428 17.2365185,17.2365185 C17.6270428,16.8459943 17.6270428,16.2128293 17.2365185,15.822305 L2.17769502,0.763481454 C1.78717072,0.372957162 1.15400575,0.372957162 0.763481454,0.763481454 C0.372957162,1.15400575 0.372957162,1.78717072 0.763481454,2.17769502 Z" id="Line-8" transform="translate(9.000000, 9.000000) scale(-1, 1) translate(-9.000000, -9.000000) "></path>
            </g>
        </g>
    </g>
</svg>