<?xml version="1.0" encoding="UTF-8"?>
<svg width="34px" height="34px" viewBox="0 0 34 34" version="1.1" xmlns="http://www.w3.org/2000/svg" xmlns:xlink="http://www.w3.org/1999/xlink">
    <!-- Generator: Sketch 46.1 (44463) - http://www.bohemiancoding.com/sketch -->
    <title>set</title>
    <desc>Created with Sketch.</desc>
    <defs></defs>
    <g id="Symbols" stroke="none" stroke-width="1" fill="none" fill-rule="evenodd">
        <g id="set" fill-rule="nonzero" fill="#FFFFFF">
            <path d="M30.4814316,25.4853037 C30.4814316,26.8211136 29.9615416,28.079544 29.0205141,29.0205156 C28.0797373,29.9612367 26.820334,30.4814358 25.4852995,30.4814358 C24.1736801,30.4814358 22.9351612,29.9793898 21.9994773,29.0691791 C21.9623941,31.7949847 19.7348531,34 16.9999309,34 C14.2650719,34 12.0375432,31.7949543 12.0004735,29.0691538 C11.0653202,29.9791724 9.82650808,30.4814804 8.51456237,30.4814804 C7.1796786,30.4814804 5.92043782,29.9613156 4.9792639,29.0204764 C4.03839235,28.0794374 3.51847491,26.8210117 3.51847491,25.4853483 C3.51847491,24.1729658 4.02049026,22.9349868 4.93064069,21.9994345 C2.20453971,21.9622558 0,19.734458 0,16.9999798 C0,14.2648436 2.2042093,12.0376493 4.93055125,12.0004368 C4.02069807,11.0651928 3.51847491,9.82641879 3.51847491,8.51465584 C3.51847491,7.17901445 4.03840829,5.92050618 4.97892889,4.9798184 C5.9194015,4.03828644 7.17862737,3.51852374 8.51456237,3.51852374 C9.82749715,3.51852374 11.0663371,4.02044182 12.0004753,4.93073744 C12.0376136,2.20428323 14.2647977,4.18548974e-06 16.9999309,4.18548974e-06 C19.7351122,4.18548974e-06 21.9622993,2.20422864 21.9994749,4.93066725 C22.9341074,4.02021937 24.1726566,3.51852374 25.4852995,3.51852374 C26.8213441,3.51852374 28.0807321,4.03833519 29.0205351,4.97942027 C29.9615405,5.92042571 30.4814316,7.17888792 30.4814316,8.51465584 C30.4814316,9.826847 29.9790174,11.0658804 29.0693373,12.0004371 C31.7957871,12.0376612 33.9998619,14.2647973 33.9998619,16.9999798 C33.9998619,19.7344953 31.7954714,21.9622289 29.0692752,21.9994338 C29.9794612,22.9348368 30.4814316,24.1728014 30.4814316,25.4853037 Z M28.999935,19.9999067 C30.6533457,19.9999067 31.9998619,18.6531519 31.9998619,16.9999798 C31.9998619,15.3461786 30.6536987,13.9999636 28.999935,13.9999636 L28.306553,13.9999636 C27.8822997,13.9999636 27.5042228,13.7322593 27.3633176,13.3320887 C27.2345271,12.9663235 27.0868783,12.6081289 26.9220223,12.2612924 C26.7405485,11.8794937 26.8187566,11.4248264 27.1173733,11.125609 L27.6063425,10.6356569 C28.17149,10.0705429 28.4814316,9.32008888 28.4814316,8.51465584 C28.4814316,7.7086483 28.1717764,6.95908875 27.6058398,6.3931518 C27.0415181,5.82806041 26.2915793,5.51852374 25.4852995,5.51852374 C24.6789539,5.51852374 23.9290769,5.82804214 23.3643545,6.3936015 L22.8761164,6.88188421 C22.5771513,7.18087666 22.1224491,7.25952711 21.7404243,7.07832639 C21.3894246,6.91184138 21.0320677,6.76453428 20.6685472,6.63684811 C20.2680021,6.49615709 19.9999472,6.11789319 19.9999472,5.69335774 L19.9999472,4.99997576 C19.9999472,3.34625504 18.6536859,2.00000419 16.9999309,2.00000419 C15.3462549,2.00000419 14.000004,3.34626541 14.000004,4.99997576 L14.000004,5.69335774 C14.000004,6.11790599 13.7319332,6.49617836 13.3313711,6.63685966 C12.9678558,6.76452976 12.61051,6.91182809 12.2594822,7.07832639 C11.8774726,7.25951993 11.4227894,7.18088346 11.1238224,6.88191654 L10.6349952,6.39308885 C10.0708267,5.8280504 9.3209209,5.51852374 8.51456237,5.51852374 C7.70836113,5.51852374 6.95849807,5.82803998 6.39360325,6.39357093 C5.82819038,6.9590844 5.51847491,7.70875636 5.51847491,8.51465584 C5.51847491,9.31996782 5.82846861,10.0705056 6.39350803,10.6356455 L6.88179073,11.1238836 C7.18070833,11.4227739 7.25940168,11.8773336 7.07835655,12.259315 C6.91169141,12.6109565 6.76436312,12.9683588 6.63683237,13.3313964 C6.49613162,13.7319245 6.11787621,13.9999636 5.69335355,13.9999636 L4.99992693,13.9999636 C3.34627318,13.9999636 2,15.3462471 2,16.9999798 C2,18.6530833 3.34662622,19.9999067 4.99992693,19.9999067 L5.69335355,19.9999067 C6.1179146,19.9999067 6.49619545,20.2679935 6.63686703,20.6685725 C6.76436973,21.0316517 6.91166938,21.3889948 7.07831748,21.7405175 C7.2594046,22.1224975 7.18073879,22.5770832 6.88182306,22.875999 L6.39362422,23.3641978 C5.82820429,23.9297519 5.51847491,24.679475 5.51847491,25.4853483 C5.51847491,26.291261 5.82816814,27.0408529 6.39341456,27.6061999 C6.95889855,28.1714828 7.70935618,28.4814804 8.51456237,28.4814804 C9.31995265,28.4814804 10.0704142,28.1714848 10.6355721,27.6062934 L11.1238548,27.1180553 C11.4227736,26.8191638 11.8773429,26.7405127 12.2593084,26.9215954 C12.6045071,27.0852475 12.9623649,27.2325109 13.3336157,27.3638912 C13.7330183,27.505234 14.000004,27.8829272 14.000004,28.3066018 L14.000004,29.0000731 C14.000004,30.6531112 15.3466541,32 16.9999309,32 C18.6532867,32 19.9999472,30.6531216 19.9999472,29.0000731 L19.9999472,28.3066018 C19.9999472,27.88294 20.2669169,27.5052555 20.6663024,27.3639029 C21.0390616,27.2319741 21.3960838,27.0848356 21.7387754,26.9215242 C22.1213609,26.7392011 22.577326,26.8178451 22.8767298,27.1177964 L23.3643431,27.606302 C23.9294617,28.1714542 24.6799104,28.4814358 25.4852995,28.4814358 C26.2906228,28.4814358 27.0411332,28.1714359 27.6063425,27.6062601 C28.1717904,27.0408458 28.4814316,26.2913374 28.4814316,25.4853037 C28.4814316,24.6793093 28.1717542,23.9296697 27.6056114,23.3635262 L27.1173733,22.8743059 C26.8189935,22.5753259 26.7406492,22.1211097 26.9216303,21.7394484 C27.0877657,21.3890941 27.2352752,21.0314222 27.3633176,20.6677816 C27.5042228,20.2676109 27.8822997,19.9999067 28.306553,19.9999067 L28.999935,19.9999067 Z M16.9998863,19.9999067 C18.6533209,19.9999067 19.9999025,18.653128 19.9999025,16.9999798 C19.9999025,15.3462196 18.6536465,13.9999636 16.9998863,13.9999636 C15.3462325,13.9999636 13.9999594,15.3462471 13.9999594,16.9999798 C13.9999594,18.6530833 15.3465856,19.9999067 16.9998863,19.9999067 Z M16.9998863,21.9999067 C14.2419505,21.9999067 11.9999594,19.7575873 11.9999594,16.9999798 C11.9999594,14.2416811 14.2416596,11.9999636 16.9998863,11.9999636 C19.758216,11.9999636 21.9999025,14.2416501 21.9999025,16.9999798 C21.9999025,19.7576319 19.757956,21.9999067 16.9998863,21.9999067 Z" id="设置"></path>
        </g>
    </g>
</svg>