<?xml version="1.0" encoding="UTF-8"?>
<svg width="78px" height="78px" viewBox="0 0 78 78" version="1.1" xmlns="http://www.w3.org/2000/svg" xmlns:xlink="http://www.w3.org/1999/xlink">
    <!-- Generator: Sketch 46.1 (44463) - http://www.bohemiancoding.com/sketch -->
    <title>tuipiao</title>
    <desc>Created with Sketch.</desc>
    <defs></defs>
    <g id="Symbols" stroke="none" stroke-width="1" fill="none" fill-rule="evenodd">
        <g id="tuipiao">
            <circle id="Oval-4" fill="#FF675A" cx="39" cy="39" r="39"></circle>
            <g id="退款-2" transform="translate(6.000000, 10.000000)" fill-rule="nonzero" fill="#FFFFFF">
                <path d="M54.2724995,25.8444649 L54.1553624,25.7476393 C53.6609024,25.3492005 52.9369598,25.4273879 52.540052,25.92638 L50.5706787,28.3979026 C50.5065278,27.4428331 50.3801332,26.4811935 50.1793998,25.5158263 C47.7230563,13.6216526 36.1679326,5.99013562 24.3735105,8.46631784 C12.5767159,10.9443639 5.00588185,22.5927925 7.46273716,34.4851024 C9.91959247,46.380208 21.474251,54.011725 33.2700686,51.532747 C37.5583192,50.6325671 41.2442302,48.4859088 44.1281382,45.5842623 C44.139303,45.5749898 44.1504212,45.5656707 44.1606556,45.5535558 C44.211781,45.5014154 44.4087927,45.2631256 44.4581038,45.2072575 C44.5770552,45.073202 44.6950762,44.887938 44.6811667,44.5965758 C44.6467885,43.8863194 44.043565,43.4246039 43.536126,43.3007528 C42.9859352,43.1666973 42.420858,43.6284129 42.2721804,43.8220641 C39.6531567,46.4518254 36.8835481,48.2186831 32.9931357,49.0351308 C22.3116556,51.2795933 12.1389637,45.0890445 9.91447529,34.3194085 C7.68905646,23.548794 14.1617884,13.2391029 24.8441988,10.9946871 C35.524795,8.75213512 45.662597,15.3150291 47.8866202,26.0846651 C48.0558261,26.9014303 48.1753079,27.7277424 48.2444047,28.5590301 L45.8577014,26.6264319 C45.3623576,26.2279931 44.6392988,26.3071124 44.243368,26.8060579 C43.8446459,27.3050499 43.9245671,28.1745234 44.4189806,28.5757114 C44.4218183,28.5785071 44.5054145,28.6520349 44.5082057,28.6520349 L48.8354865,32.1373842 L48.9489021,32.2267545 C49.1998769,32.4296316 49.6050187,32.6949935 49.9006061,32.6586955 C50.1989382,32.627989 50.5930083,32.2155715 50.794672,31.9623712 C50.7956489,31.9595754 50.8671965,31.8767285 50.8671965,31.8767285 L54.3468383,27.4828587 C54.3478152,27.4828587 54.3292072,27.5201351 54.3310215,27.5182713 C54.7287666,27.0183007 54.766913,26.2456529 54.2724995,25.8444649 Z" id="Shape" transform="translate(30.818182, 30.000000) rotate(-204.000000) translate(-30.818182, -30.000000) "></path>
            </g>
            <path d="M32.877257,40.3403653 C32.3929396,40.3403653 32,39.9314847 32,39.4255852 C32,38.9200461 32.3929901,38.5098781 32.877257,38.5098781 L38.4338746,38.5098781 L38.4338746,37.4065701 C38.3910396,37.3298921 38.3603783,37.2517207 38.341133,37.1677303 L33.1878606,31.5622559 C32.8451813,31.2047686 32.8451813,30.6256413 33.1878606,30.2681541 C33.5304894,29.9106153 34.0864341,29.9106153 34.4284567,30.2681541 L39.3113841,35.6296905 L44.1935033,30.2681541 C44.5361826,29.9106153 45.0919252,29.9106153 45.4346551,30.2681541 C45.7767787,30.6256413 45.7767787,31.2047686 45.4346551,31.5622559 L40.2814333,37.1673183 C40.2618848,37.2516692 40.2315265,37.3292226 40.1886917,37.4067246 L40.1886917,38.5098781 L45.7452587,38.5098781 C46.2296266,38.5098781 46.6226673,38.9199431 46.6226673,39.4256881 C46.6226673,39.9315877 46.2295761,40.3403653 45.7452587,40.3403653 L40.1886411,40.3403653 L40.1886411,42.4433709 L45.7451576,42.4433709 C46.229576,42.4433709 46.6224651,42.8530239 46.6224651,43.3582025 C46.6224651,43.8646685 46.2295255,44.2734461 45.7451576,44.2734461 L40.1886411,44.2734461 L40.1886411,48.1741872 C40.1886411,48.6804472 39.795651,49.0892248 39.3112326,49.0892248 C38.8269152,49.0892248 38.4340261,48.6804472 38.4340261,48.1741872 L38.4340261,44.273343 L32.877257,44.273343 C32.3929396,44.273343 32,43.8646685 32,43.3582025 C32,42.8529209 32.3929901,42.4433708 32.877257,42.4433708 L38.4340261,42.4433708 L38.4340261,40.3403652 L32.877257,40.3403653 Z" id="Path" fill="#FFFFFF"></path>
        </g>
    </g>
</svg>