<?xml version="1.0" encoding="UTF-8"?>
<svg width="49px" height="40px" viewBox="0 0 49 40" version="1.1" xmlns="http://www.w3.org/2000/svg" xmlns:xlink="http://www.w3.org/1999/xlink">
    <!-- Generator: Sketch 45.1 (43504) - http://www.bohemiancoding.com/sketch -->
    <title>微信</title>
    <desc>Created with Sketch.</desc>
    <defs></defs>
    <g id="个人中心" stroke="none" stroke-width="1" fill="none" fill-rule="evenodd">
        <g id="充值" transform="translate(-41.000000, -617.000000)" fill="#66BB6A">
            <g id="微信" transform="translate(41.000000, 617.000000)">
                <path d="M33.1644543,12.034675 C33.7257834,12.034675 34.2801519,12.0756314 34.8316259,12.1368605 C33.3337834,5.20399682 25.8759283,0.0536953464 17.3624023,0.0536953464 C7.84530661,0.0536953464 0.0485175809,6.50042439 0.0485175809,14.6866361 C0.0485175809,19.4118951 2.64227848,23.2922057 6.9774346,26.3016792 L5.2458256,31.477664 L11.2970155,28.4612732 C13.4639733,28.887617 15.2010267,29.325056 17.3623333,29.325056 C17.9053994,29.325056 18.4443305,29.2986192 18.9790577,29.2569094 C18.6402616,28.1065003 18.4443305,26.901848 18.4443305,25.6520614 C18.4444684,18.1349184 24.9394149,12.034675 33.1644543,12.034675 Z M23.8545232,7.36975479 C25.1578819,7.36975479 26.0214121,8.22182596 26.0214121,9.51681526 C26.0214121,10.8063939 25.1578129,11.6701082 23.8545232,11.6701082 C22.5568847,11.6701082 21.25518,10.8063254 21.25518,9.51681526 C21.2552489,8.22182596 22.5569536,7.36975479 23.8545232,7.36975479 Z M11.7380844,11.6701767 C10.4403769,11.6701767 9.13026442,10.8063939 9.13026442,9.51688375 C9.13026442,8.22182596 10.4404459,7.36982327 11.7380844,7.36982327 C13.035654,7.36982327 13.8993221,8.22182596 13.8993221,9.51688375 C13.8993221,10.8063939 13.035654,11.6701767 11.7380844,11.6701767 L11.7380844,11.6701767 Z" id="Fill-1"></path>
                <path d="M48.965128,25.4437558 C48.965128,18.5656875 42.0391744,12.9589335 34.2591322,12.9589335 C26.021481,12.9589335 19.5334951,18.5656875 19.5334951,25.4437558 C19.5334951,32.3342195 26.021481,37.9283726 34.2591322,37.9283726 C35.9836428,37.9283726 37.7236596,37.4956984 39.4551308,37.0646678 L44.2032377,39.6489341 L42.9013952,35.3497219 C46.3770872,32.7590867 48.965128,29.3235794 48.965128,25.4437558 Z M29.4858706,23.2912734 C28.6235809,23.2912734 27.7529522,22.4393476 27.7529522,21.5700272 C27.7529522,20.7125542 28.6235809,19.8494657 29.4858706,19.8494657 C30.7946737,19.8494657 31.6527595,20.7126227 31.6527595,21.5700272 C31.6527595,22.4393476 30.7946737,23.2912734 29.4858706,23.2912734 Z M39.0085485,23.2912734 C38.1518411,23.2912734 37.2883108,22.4393476 37.2883108,21.5700272 C37.2883108,20.7125542 38.15191,19.8494657 39.0085485,19.8494657 C40.3061871,19.8494657 41.1753685,20.7126227 41.1753685,21.5700272 C41.1753685,22.4393476 40.3061871,23.2912734 39.0085485,23.2912734 L39.0085485,23.2912734 Z" id="Fill-2"></path>
            </g>
        </g>
    </g>
</svg>