<?xml version="1.0" encoding="UTF-8"?>
<svg width="78px" height="78px" viewBox="0 0 78 78" version="1.1" xmlns="http://www.w3.org/2000/svg" xmlns:xlink="http://www.w3.org/1999/xlink">
    <!-- Generator: Sketch 46.2 (44496) - http://www.bohemiancoding.com/sketch -->
    <title>chongzhi copy 4</title>
    <desc>Created with Sketch.</desc>
    <defs></defs>
    <g id="Symbols" stroke="none" stroke-width="1" fill="none" fill-rule="evenodd">
        <g id="chongzhi-copy-4">
            <circle id="Oval-4" fill="#CDDC39" cx="39" cy="39" r="39"></circle>
            <g id="系统-2" transform="translate(20.310933, 17.120117)" stroke="#FFFFFF" stroke-linecap="round" stroke-linejoin="round">
                <path d="M23.7919681,36.3370359 C23.7919681,39.209169 21.4624895,41.5378939 18.5908588,41.5378939 L18.5909426,41.5379777 L18.5909426,41.5379777 C15.7178883,41.5379777 13.389917,39.209169 13.389917,36.3370359" id="Path" stroke-width="2"></path>
                <path d="M34.6201035,35.2841016 L2.5616979,35.2841016 C1.19501239,35.2841016 0.0767923168,34.1655466 0.0767923168,32.7989448 C0.0767923168,31.432343 1.19501239,30.314123 2.5616979,30.314123 C2.5616979,30.314123 3.80553245,29.869364 4.00525946,26.2682482 L4.00525946,17.7448872 C4.00525946,10.6299157 9.16860066,4.66230692 15.9337777,3.40482226 L15.9337777,2.66486925 C15.9337777,1.20355417 17.1296275,0.00787184055 18.5907751,0.00787184055 C20.0529276,0.00787184055 21.24794,1.20363792 21.24794,2.66486925 L21.24794,3.40482226 C28.0123633,4.66239066 33.1756207,10.6299995 33.1756207,17.7448034 L33.1756207,24.151728 L33.1778818,24.1468709 C33.1778818,24.1597673 33.1763744,24.1719938 33.1756207,24.1849739 L33.1756207,26.2407805 C33.3707419,29.8676891 34.6213596,30.3140392 34.6213596,30.3140392 C35.9879614,30.3148767 37.1046741,31.4325943 37.1046741,32.7988611 C37.1046741,34.1655466 35.9866215,35.2841016 34.6200197,35.2841016 L34.6201035,35.2841016 Z" id="Path" stroke-width="2.5"></path>
            </g>
        </g>
    </g>
</svg>