<?xml version="1.0" encoding="UTF-8"?>
<svg width="34px" height="33px" viewBox="0 0 34 33" version="1.1" xmlns="http://www.w3.org/2000/svg" xmlns:xlink="http://www.w3.org/1999/xlink">
    <!-- Generator: Sketch 44.1 (41455) - http://www.bohemiancoding.com/sketch -->
    <title>yaoyiyao</title>
    <desc>Created with Sketch.</desc>
    <defs></defs>
    <g id="竞彩足球" stroke="none" stroke-width="1" fill="none" fill-rule="evenodd">
        <g id="七星彩-展开" transform="translate(-555.000000, -552.000000)" fill="#666666">
            <g id="Group" transform="translate(555.000000, 551.000000)">
                <g id="摇一摇">
                    <g transform="translate(0.000000, 1.545455)" id="Shape">
                        <path d="M24.0977048,1.19022518 L13.0927246,0.0283386947 C12.979853,0.0283386947 12.8669814,0 12.7258919,0 C11.0328181,0 9.53726948,1.30357996 9.36796209,3.03224033 L6.88478708,26.8367439 C6.80013339,27.7152434 7.05409447,28.5370656 7.53379873,29.2171942 L7.53379873,29.3022103 L7.61845242,29.3022103 C8.15459248,29.982339 8.97291152,30.4640968 9.90410215,30.5774516 L20.9090823,31.7393381 C21.0219539,31.7393381 21.1348255,31.7676768 21.275915,31.7676768 C22.094234,31.7676768 22.8278994,31.4842898 23.4204752,30.9741933 L23.5051289,30.9741933 L23.5051289,30.8891772 C24.1259227,30.350742 24.5491911,29.5855973 24.6338448,28.7070977 L27.1170198,4.90259418 C27.2863272,3.08891772 25.9318681,1.38859604 24.0977048,1.19022518 Z M21.8684908,3.54233684 C21.8402729,3.82572379 21.5863119,4.02409465 21.3041329,3.99575595 L15.2090669,3.34396598 C14.926888,3.31562728 14.7293627,3.06057903 14.7575806,2.77719208 C14.7857985,2.49380513 15.0397596,2.29543427 15.3219385,2.32377297 L21.4170045,2.97556294 C21.6991835,3.00390164 21.8967087,3.25894989 21.8684908,3.54233684 Z M16.9867945,28.2536786 C16.9021408,28.962146 16.2813471,29.4722425 15.5758996,29.3872264 C14.8704522,29.3022103 14.36253,28.678759 14.4471837,27.9702917 C14.5318374,27.2618243 15.1526312,26.7517278 15.8580786,26.8367439 C16.5353081,26.92176 17.0432303,27.5452113 16.9867945,28.2536786 Z M23.0818605,27.0917921 L8.69073254,25.5615026 L10.9199465,4.16578812 L25.3110744,5.69607764 L23.0818605,27.0917921 Z" fill-rule="nonzero"></path>
                        <path d="M31.4242424,15.8855047 C31.4242424,14.6841151 30.823918,13.5685389 29.8519643,12.853426 C29.451748,12.5959854 28.9371843,12.6817989 28.6513155,13.0822621 C28.3940337,13.4827254 28.4797943,13.9976067 28.8800105,14.2836518 C29.3945743,14.6555105 29.7376168,15.2562054 29.7376168,15.8855047 C29.7376168,16.5148041 29.4231612,17.1154989 28.8800105,17.4873577 C28.4797943,17.7447983 28.3940337,18.2882841 28.6513155,18.6887473 C28.8228368,18.9175835 29.0801187,19.0606061 29.3659874,19.0606061 C29.5375087,19.0606061 29.7090299,19.003397 29.8519643,18.9175835 C30.823918,18.2024706 31.4242424,17.0868944 31.4242424,15.8855047 Z" fill-opacity="0.65" fill-rule="nonzero"></path>
                        <path d="M30.8914862,9.93288962 C30.4885307,9.67781392 29.970445,9.76283915 29.6826197,10.1596236 C29.4235769,10.556408 29.5099245,11.0665594 29.91288,11.3499769 C31.4095718,12.3702797 32.2730479,14.0424427 32.2730479,15.7996309 C32.2730479,17.5851608 31.3807893,19.2573238 29.91288,20.2492848 C29.5099245,20.5043605 29.4235769,21.0428537 29.6826197,21.4396381 C29.8553149,21.6663721 30.1143577,21.8080808 30.4021831,21.8080808 C30.5748783,21.8080808 30.7475735,21.7513973 30.8914862,21.6663721 C32.8486986,20.3059683 34,18.1236539 34,15.7996309 C34,13.4756078 32.8486986,11.2649516 30.8914862,9.93288962 Z" fill-opacity="0.65" fill-rule="nonzero"></path>
                        <path d="M5.81406084,14.4274793 C6.20658924,14.1745928 6.29070246,13.6407212 6.03836278,13.2473422 C5.7860231,12.8539631 5.25330599,12.7696676 4.86077759,13.0225542 C3.8794566,13.7250167 3.26262626,14.8489568 3.26262626,16.0571924 C3.26262626,17.2654281 3.85141886,18.4174667 4.86077759,19.0918307 C5.0009663,19.2042247 5.16919276,19.2323232 5.33741921,19.2323232 C5.61779664,19.2323232 5.87013632,19.0918307 6.03836278,18.8670427 C6.29070246,18.4736637 6.20658924,17.9678906 5.81406084,17.6869056 C5.28134373,17.3216251 4.94489082,16.703458 4.94489082,16.0290939 C4.94489082,15.4109269 5.28134373,14.7927598 5.81406084,14.4274793 Z" fill-opacity="0.65" fill-rule="nonzero"></path>
                        <path d="M4.0966106,20.764016 C2.58142586,19.7150886 1.6835386,17.9857759 1.6835386,16.1430656 C1.6835386,14.3003554 2.58142586,12.5710427 4.0966106,11.5221153 C4.48943628,11.2669708 4.57361321,10.7283324 4.32108242,10.331441 C4.06855163,9.93454957 3.53543107,9.84950141 3.14260539,10.1046459 C1.17847702,11.4654165 0,13.7333676 0,16.1430656 C0,18.5527637 1.17847702,20.7923653 3.11454642,22.1814854 C3.2548413,22.2948829 3.42319516,22.3232323 3.59154902,22.3232323 C3.87213879,22.3232323 4.12466958,22.1814854 4.29302344,21.9546903 C4.57361321,21.5577988 4.4613773,21.0191605 4.0966106,20.764016 Z" fill-opacity="0.65" fill-rule="nonzero"></path>
                    </g>
                </g>
            </g>
        </g>
    </g>
</svg>