<?xml version="1.0" encoding="UTF-8"?>
<svg width="34px" height="26px" viewBox="0 0 34 26" version="1.1" xmlns="http://www.w3.org/2000/svg" xmlns:xlink="http://www.w3.org/1999/xlink">
    <!-- Generator: Sketch 46 (44423) - http://www.bohemiancoding.com/sketch -->
    <title>Shape</title>
    <desc>Created with Sketch.</desc>
    <defs></defs>
    <g id="提现" stroke="none" stroke-width="1" fill="none" fill-rule="evenodd">
        <g id="提现到银行卡" transform="translate(-451.000000, -157.000000)" fill-rule="nonzero" fill="#4CAF50">
            <g id="Group" transform="translate(451.000000, 149.000000)">
                <path d="M19.7937141,26.2088261 L22.6508045,26.2088261 L22.6508045,29.1667497 L19.7937141,29.1667497 L19.7937141,26.2088261 L19.7937141,26.2088261 L19.7937141,26.2088261 Z M23.3139677,26.2088261 L26.1691856,26.2088261 L26.1691856,29.1667497 L23.3139677,29.1667497 L23.3139677,26.2088261 L23.3139677,26.2088261 L23.3139677,26.2088261 Z M26.9867424,26.2088261 L29.8427351,26.2088261 L29.8427351,29.1667497 L26.9867424,29.1667497 L26.9867424,26.2088261 L26.9867424,26.2088261 L26.9867424,26.2088261 Z M3.46962851,34 L30.5257868,34 C32.4364975,34 34,32.5846508 34,30.8553467 L34,17.635877 L0,17.635877 L0,30.8553467 C0,32.5845886 1.56162986,34 3.46962851,34 Z M3.46962851,8 C1.56162986,8 0,9.41460226 0,11.143035 L0,14.6559193 L34,14.6559193 L34,11.143035 C34,9.41460226 32.4364329,8 30.5257868,8 L3.46962851,8 Z" id="Shape"></path>
            </g>
        </g>
    </g>
</svg>