<?xml version="1.0" encoding="UTF-8"?>
<svg width="78px" height="78px" viewBox="0 0 78 78" version="1.1" xmlns="http://www.w3.org/2000/svg" xmlns:xlink="http://www.w3.org/1999/xlink">
    <!-- Generator: Sketch 46.1 (44463) - http://www.bohemiancoding.com/sketch -->
    <title>zhongjiangxiaozhushou</title>
    <desc>Created with Sketch.</desc>
    <defs></defs>
    <g id="Symbols" stroke="none" stroke-width="1" fill="none" fill-rule="evenodd">
        <g id="zhongjiangxiaozhushou">
            <circle id="Oval-4" fill="#FFC107" cx="39" cy="39" r="39"></circle>
            <path d="M55.8604651,23.1395349 L58.630852,23.1395349 C59.9445516,23.1395349 60.9767441,24.1602827 60.9767442,25.4594163 L60.9767442,33.7181943 C60.9767442,37.7507283 58.0983849,41.1263905 54.3707421,41.838603 C52.0456522,46.6795787 47.2256155,50.1602304 41.5348837,50.6956029 L41.5348837,58.2161423 L47.8397481,58.2161423 C48.4027623,58.2161423 48.778105,58.5873233 48.778105,59.1440948 L48.778105,60.0720474 C48.778105,60.628819 48.4027623,61 47.8397481,61 L32.8260384,61 C32.2630243,61 31.8876816,60.628819 31.8876815,60.0720474 L31.8876815,59.1440948 C31.8876815,58.5873233 32.2630242,58.2161423 32.8260384,58.2161423 L38.4651163,58.2161423 L38.4651163,50.6956029 C32.8253087,50.1650213 28.0406828,46.7416368 25.6922751,41.9682351 C21.3680836,41.7676092 18,38.1373314 18,33.7181943 L18,25.5522116 C18,24.253078 19.0321926,23.2323302 20.3458921,23.2323301 L24.1395349,23.2323301 L24.1395349,19.3449612 C24.1395349,18.0317829 25.1968992,17 26.5426356,17 L53.4573643,17 C54.8031008,17 55.8604651,18.031783 55.8604651,19.3449612 L55.8604651,23.1395349 Z M55.8604651,25.9233926 L55.8604651,35.2906977 C55.8604651,36.3829319 55.7439932,37.4490563 55.5225295,38.4778688 C57.1013741,37.5420677 58.1616736,35.776927 58.1616736,33.7181943 L58.1616736,25.9233926 L55.8604651,25.9233926 Z M24.1395349,26.0161879 L20.7212349,26.0161879 L20.7212349,33.8109895 C20.7212349,36.3035283 22.3741113,38.4691572 24.6254284,39.1004878 C24.3081658,37.8813704 24.1395349,36.6049352 24.1395349,35.2906977 L24.1395349,26.0161879 Z M27.0232558,19.8139535 L27.0232558,35.2906977 C27.0232558,42.231783 32.8868217,47.9534884 40,47.9534884 C47.1131783,47.9534884 52.9767442,42.2317829 52.9767442,35.2906977 L52.9767442,19.8139535 L27.0232558,19.8139535 Z M43.6171423,40.0282718 C43.2417995,40.0282718 42.9602925,39.9354765 42.5849497,39.749886 L39.6760435,38.2651619 L36.6733015,39.8426813 C35.7349446,40.2138623 34.8904235,40.0282718 34.3274094,39.378705 C34.0459023,39.1003192 33.7643952,38.5435476 33.9520666,37.7083903 L34.5150807,34.5533516 L32.4506956,32.4190606 C31.8876815,31.8622891 31.6061745,31.119927 31.8876815,30.377565 C32.0753529,29.7279982 32.7322027,29.1712266 33.4828882,29.0784314 L36.4856301,28.6144551 L37.8931654,25.7378021 C38.2685082,24.99544 38.925358,24.624259 39.6760435,24.624259 C40.426729,24.624259 41.0835787,24.99544 41.4589215,25.7378021 L42.8664568,28.6144551 L45.8691987,29.0784314 C46.7137199,29.2640219 47.276734,29.7279981 47.4644054,30.377565 C47.6520768,31.1199271 47.4644054,31.7694938 46.9013913,32.3262654 L44.8370062,34.5533516 L45.4000203,37.8011856 C45.493856,38.4507524 45.3061846,39.0075239 44.9308419,39.4715002 C44.6493348,39.8426813 44.1801564,40.0282718 43.6171423,40.0282718 L43.6171423,40.0282718 Z M39.6760435,36.3164615 C39.8637148,36.3164615 40.1452219,36.4092567 40.3328932,36.502052 L43.5233066,38.1723666 C43.6171423,38.1723666 43.6171423,38.2651619 43.6171423,38.2651619 L43.6171423,38.1723666 L42.9602925,34.7389421 C42.8664568,34.3677611 43.0541282,33.9037848 43.3356352,33.5326037 L45.5876917,31.1199271 L45.6815273,31.0271318 L45.5876917,31.0271318 L42.3972784,30.377565 C41.9280999,30.2847697 41.5527572,30.006384 41.3650858,29.6352029 L39.7698791,26.5729594 C39.7698791,26.4801642 39.6760435,26.4801642 39.6760435,26.4801642 L39.5822078,26.5729594 L37.9870011,29.6352029 C37.7993297,30.0063839 37.423987,30.2847697 36.9548086,30.377565 L33.7643952,30.8415413 C33.6705596,30.8415413 33.6705596,30.8415413 33.6705596,30.9343365 L33.7643952,31.0271318 L36.0164517,33.4398085 C36.2979588,33.7181943 36.3917944,34.1821706 36.3917944,34.6461468 L35.8287803,37.9867761 L35.8287803,38.1723666 L35.922616,38.1723666 L39.1130293,36.5948472 C39.206865,36.4092567 39.4883721,36.3164615 39.6760435,36.3164615 Z" id="Combined-Shape" fill="#FFFFFF" fill-rule="nonzero"></path>
        </g>
    </g>
</svg>