<?xml version="1.0" encoding="UTF-8"?>
<svg width="43px" height="43px" viewBox="0 0 43 43" version="1.1" xmlns="http://www.w3.org/2000/svg" xmlns:xlink="http://www.w3.org/1999/xlink">
    <!-- Generator: Sketch 45.1 (43504) - http://www.bohemiancoding.com/sketch -->
    <title>Shape</title>
    <desc>Created with Sketch.</desc>
    <defs></defs>
    <g id="开奖" stroke="none" stroke-width="1" fill="none" fill-rule="evenodd">
        <g id="开奖信息" transform="translate(-138.000000, -188.000000)" fill-rule="nonzero" fill="#FFFFFF">
            <g id="首页-copy-2" transform="translate(0.000000, 126.000000)">
                <path d="M176.150959,70.2812958 C175.539971,69.4905477 174.87425,68.7436458 174.158702,68.0460928 C174.147577,68.0341836 174.136118,68.022591 174.124339,68.0113289 C171.247157,65.216198 167.646648,63.2993794 163.711424,62.4680534 C159.249434,61.5259239 154.705292,62.0118159 150.571504,63.8738339 C149.042547,64.5628408 147.600078,65.4295598 146.273915,66.456074 C141.522192,70.1292167 138.5303,75.6722919 138.065247,81.6640907 C137.725623,86.0310069 138.716442,90.3273936 140.930506,94.0885978 C141.389197,94.8666862 141.896255,95.6152281 142.448693,96.329812 C145.852842,100.736501 150.762955,103.598455 156.274372,104.388405 C157.293656,104.534826 158.322075,104.608447 159.351822,104.608709 C164.032714,104.608709 168.550307,103.07289 172.324034,100.155234 C173.691715,99.0997661 174.926047,97.8819853 175.999882,96.528677 C178.626804,93.2172984 180.192979,89.2267732 180.529897,84.9886936 C180.951972,79.7025901 179.396617,74.4795023 176.150959,70.2812958 Z M178.430343,84.8211861 C178.364896,85.6459722 178.246873,86.4657403 178.076995,87.2754913 C177.94365,87.3715677 177.804194,87.4590282 177.663335,87.5435834 C177.52408,87.6271368 177.380115,87.7022748 177.234849,87.7747077 C177.163317,87.810273 177.090784,87.8434339 177.018151,87.8762942 C176.977075,87.8927244 176.936,87.9091545 176.894624,87.9247832 C176.60359,88.036889 176.303739,88.1255517 176.001384,88.2016915 C175.854214,88.2388597 175.705742,88.2698166 175.556768,88.2991705 C175.483734,88.3137973 175.410199,88.3263203 175.337065,88.3388433 C175.306309,88.3441531 175.206225,88.3587799 175.153227,88.3667946 C174.749987,88.4164858 174.34284,88.4421329 173.935192,88.4452386 C173.636343,87.3206743 172.896685,85.2426597 171.149779,82.8863344 C171.3795,82.2483633 171.543501,81.5856467 171.682456,80.9236315 C171.93492,79.7252316 172.09832,78.5073961 172.238176,77.2914641 C172.385732,76.0066137 172.494847,74.7176397 172.565377,73.4262689 C173.588555,73.3453203 174.875518,73.2210923 175.58482,73.1507632 C177.754102,76.62464 178.759247,80.7015238 178.430343,84.8211861 L178.430343,84.8211861 Z M150.87987,95.1364213 C149.648209,94.1918875 147.718867,92.5879432 146.172328,90.7394499 C146.153093,89.4953662 146.207693,88.2463735 146.294753,87.0071988 C146.339628,86.370324 146.399053,85.7345579 146.47298,85.1003986 C146.491314,84.943711 146.51105,84.7869232 146.531287,84.6304359 C146.533291,84.6175122 146.535495,84.6004809 146.538601,84.5782401 C146.549621,84.4977924 146.561543,84.4175451 146.573264,84.3375984 C146.624835,83.9881662 146.682383,83.6396421 146.745881,83.2921793 C146.865992,82.6283813 147.014771,81.9700916 147.1918,81.3191575 C147.272949,81.022513 147.363014,80.7284732 147.459792,80.4366375 C148.534865,79.975491 150.346491,79.2494583 152.819731,78.4349631 C154.872496,80.2582171 156.922595,82.0844715 158.970021,83.9137203 C159.66118,84.5309014 160.351248,85.1493042 161.040221,85.7689258 C161.14351,85.8618965 161.246499,85.9551677 161.349789,86.0483387 C161.184486,87.5663252 160.897359,90.06942 160.602217,92.0222047 C160.359997,92.1369359 160.115743,92.2473228 159.869572,92.3533125 C159.823888,92.3722472 159.650269,92.4452813 159.6125,92.4605092 C159.468687,92.5190262 159.324452,92.5764999 159.179806,92.6329257 C158.884364,92.7479699 158.587496,92.8593163 158.289271,92.9669389 C157.153987,93.3787949 156.001572,93.7425627 154.843045,94.0830877 C153.533241,94.4677939 152.212817,94.8278549 150.882675,95.1364213 C150.881373,95.1358202 150.880671,95.136221 150.87987,95.1364213 L150.87987,95.1364213 Z M155.736385,78.2775742 C155.180464,77.7830665 154.624344,77.2888593 154.068423,76.7947523 C154.280412,75.6578653 154.6549,73.8595642 155.239473,71.7154284 C155.517483,71.5603437 155.800803,71.4137746 156.084424,71.2697102 C156.689899,70.9630403 157.304507,70.6747463 157.927407,70.4052233 C157.965577,70.3886929 158.003847,70.3724632 158.042017,70.3561332 C158.077382,70.341306 158.125771,70.3206681 158.145307,70.3125532 C158.283585,70.2552621 158.422243,70.1988907 158.56127,70.1434428 C159.730016,69.6763854 160.929417,69.2814605 162.154967,68.9926302 C162.459526,68.9214029 162.765855,68.8579658 163.073654,68.802381 C163.240951,68.7722829 163.408713,68.744829 163.576877,68.7200299 L163.61635,68.7140188 L163.638691,68.7112137 C163.722244,68.7005942 163.806198,68.6914775 163.889952,68.6822605 C164.518205,68.6137348 165.151668,68.5943993 165.782526,68.6313671 L165.79014,68.6313671 C167.937782,69.947984 169.60334,71.519669 170.550879,72.5138941 C170.501889,73.8144815 170.401505,75.1148686 170.27367,76.4097455 C170.217219,76.9823068 170.151892,77.5539581 170.077711,78.1244932 L170.076108,78.1364151 L170.047856,78.3393877 C170.028101,78.4786193 170.007597,78.6177433 169.986343,78.7567539 C169.941029,79.0544005 169.891801,79.3514381 169.838672,79.6477895 C169.666055,80.6116588 169.457873,81.5855465 169.10222,82.5008267 C167.668087,82.9976387 165.25636,83.7829802 162.632644,84.4259606 C160.355664,82.3526547 158.036407,80.3239306 155.736385,78.2775742 L155.736385,78.2775742 Z M151.435891,65.7942591 C153.923657,64.6737021 156.576327,64.1063607 159.262357,64.1063608 C161.130881,64.107689 162.989437,64.3786055 164.780587,64.9107373 C164.660094,65.4662615 164.53265,66.0202551 164.398285,66.5725879 C162.208165,66.6928086 160.029365,67.3588312 158.014366,68.1582987 C156.853936,68.6187439 155.695209,69.1264759 154.591784,69.7215683 C153.686823,69.2970891 152.204401,68.7448755 150.175577,68.4479304 C150.174976,68.0152361 150.184594,67.5823414 150.210842,67.1504487 C150.221261,66.9767298 150.237691,66.8034116 150.256826,66.6304942 C150.264039,66.5866136 150.282073,66.462586 150.290187,66.4197073 C150.294596,66.3962642 150.300306,66.3731218 150.305115,66.3497789 C150.675835,66.1522327 151.052965,65.9669588 151.435891,65.7942591 L151.435891,65.7942591 Z M147.56208,68.1221323 C147.745739,67.9800422 147.932013,67.8413639 148.120805,67.7061688 C148.116597,67.9488142 148.116597,68.1898567 148.116197,68.4262906 C148.115996,68.6120316 148.1178,68.7977726 148.120605,68.9836137 C147.14281,69.7037356 145.592765,71.085472 144.011762,73.4619344 C143.677248,73.5578103 143.344738,73.6602985 143.014131,73.7677958 C142.865959,73.8159843 142.716885,73.8652748 142.567812,73.9157674 C143.816304,71.6906829 145.505605,69.7117503 147.56208,68.1221323 L147.56208,68.1221323 Z M140.164801,81.8270899 C140.300913,80.0823419 140.67534,78.3644553 141.277644,76.7213175 L141.283955,76.7180114 C141.45789,76.6123435 141.636535,76.5146303 141.819338,76.4251739 C141.907299,76.3815939 141.996764,76.340819 142.085927,76.3001443 C142.131711,76.2795064 142.177696,76.2591691 142.22368,76.2391323 L142.26165,76.223704 C142.693743,76.0465789 143.135354,75.8925962 143.579068,75.74753 C143.877015,76.626243 144.450768,77.9976604 145.529949,79.7530827 C144.777268,81.9397968 144.458182,84.2664678 144.269736,86.5648869 C144.171656,87.7598805 144.113149,88.9635901 144.111546,90.165296 C143.532583,90.4435067 142.740228,90.7777202 141.750111,91.08809 C140.461345,88.1945785 139.915543,85.0323737 140.164801,81.8270899 L140.164801,81.8270899 Z M156.57262,102.303277 C155.100499,102.092874 153.657671,101.71282 152.272927,101.170698 C152.203099,100.355902 152.074363,98.6156079 152.086385,96.9635753 C153.194719,96.6919768 154.29564,96.3879187 155.390249,96.0674303 C157.410658,95.4761449 159.461322,94.8299588 161.376238,93.9301069 C162.565621,94.7548208 164.751634,96.0417832 167.355714,96.5096421 C167.359421,96.7580982 167.358319,97.0064541 167.353911,97.2536077 C167.347539,97.5776014 167.332138,97.9013545 167.307726,98.2244899 C167.294644,98.3967976 167.278645,98.5688714 167.259738,98.7406374 C167.253326,98.800347 167.245512,98.8596559 167.238399,98.919065 C167.241003,98.8852028 167.206139,99.1378666 167.200429,99.1732315 C167.101046,99.7968763 166.949969,100.412005 166.736678,101.006096 C163.565857,102.347158 160.080359,102.806 156.57262,102.303277 L156.57262,102.303277 Z M174.349252,95.2199747 C173.381389,96.439838 172.26876,97.537463 171.035869,98.4886749 C170.44457,98.9458677 169.827489,99.3687062 169.187677,99.7550996 C169.326331,98.9526265 169.389948,98.1351259 169.410987,97.3307493 C169.424111,96.8323344 169.421306,96.3285096 169.39115,95.8277904 C170.510004,94.7817703 172.380838,92.8312898 173.591661,90.4989084 C173.73843,90.5018138 173.884999,90.503016 174.031268,90.5010123 C175.149421,90.4859847 176.267573,90.3158724 177.310287,89.9476966 C176.609989,91.8514322 175.610412,93.6312323 174.349252,95.2199747 L174.349252,95.2199747 Z" id="Shape"></path>
            </g>
        </g>
    </g>
</svg>