<?xml version="1.0" standalone="no"?>
<!DOCTYPE svg PUBLIC "-//W3C//DTD SVG 1.1//EN" "http://www.w3.org/Graphics/SVG/1.1/DTD/svg11.dtd" >
<!--
2013-9-30: Created.
-->
<svg>
<metadata>
Created by iconfont
</metadata>
<defs>

<font id="iconfont" horiz-adv-x="1024" >
  <font-face
    font-family="iconfont"
    font-weight="500"
    font-stretch="normal"
    units-per-em="1024"
    ascent="896"
    descent="-128"
  />
    <missing-glyph />
    
    <glyph glyph-name="x" unicode="x" horiz-adv-x="1001"
d="M281 543q-27 -1 -53 -1h-83q-18 0 -36.5 -6t-32.5 -18.5t-23 -32t-9 -45.5v-76h912v41q0 16 -0.5 30t-0.5 18q0 13 -5 29t-17 29.5t-31.5 22.5t-49.5 9h-133v-97h-438v97zM955 310v-52q0 -23 0.5 -52t0.5 -58t-10.5 -47.5t-26 -30t-33 -16t-31.5 -4.5q-14 -1 -29.5 -0.5
t-29.5 0.5h-32l-45 128h-439l-44 -128h-29h-34q-20 0 -45 1q-25 0 -41 9.5t-25.5 23t-13.5 29.5t-4 30v167h911zM163 247q-12 0 -21 -8.5t-9 -21.5t9 -21.5t21 -8.5q13 0 22 8.5t9 21.5t-9 21.5t-22 8.5zM316 123q-8 -26 -14 -48q-5 -19 -10.5 -37t-7.5 -25t-3 -15t1 -14.5
t9.5 -10.5t21.5 -4h37h67h81h80h64h36q23 0 34 12t2 38q-5 13 -9.5 30.5t-9.5 34.5q-5 19 -11 39h-368zM336 498v228q0 11 2.5 23t10 21.5t20.5 15.5t34 6h188q31 0 51.5 -14.5t20.5 -52.5v-227h-327z" />
    

    
    <glyph glyph-name="bangzhu" unicode="&#58880;" d="M895.8893 482.5093c-22.011 52.0407-53.5179 98.774-93.6463 138.9018-40.1274 40.1268-86.8627 71.6334-138.9055 93.6435-53.8907 22.7925-111.1282 34.3487-170.1216 34.3487-58.9934 0-116.231-11.5562-170.1216-34.3487-52.0438-22.0101-98.7791-53.5167-138.9065-93.6435-40.1284-40.1268-71.6354-86.8601-93.6463-138.9018-22.7915-53.8885-34.3481-111.1227-34.3481-170.1117 0-58.99 11.5566-116.2232 34.3481-170.1127 22.011-52.0417 53.5179-98.776 93.6463-138.9038 40.1284-40.1278 86.8637-71.6354 138.9065-93.6465 53.8917-22.7935 111.1282-34.3497 170.1216-34.3497 58.9934 0 116.231 11.5562 170.1216 34.3497 52.0428 22.0111 98.7781 53.5187 138.9065 93.6465 40.1274 40.1278 71.6344 86.8621 93.6453 138.9038 22.7925 53.8895 34.3481 111.1227 34.3481 170.1127C930.2384 371.3866 918.6818 428.6208 895.8893 482.5093zM493.2158-86.9237c-220.1917 0-399.3296 179.1345-399.3296 399.3213 0 220.1827 179.1389 399.3133 399.3296 399.3133s399.3286-179.1315 399.3286-399.3133C892.5454 92.2109 713.4076-86.9237 493.2158-86.9237zM524.256 149.1183h-69.1439553004736c-2.9741 0-5.3846-2.4104-5.3846-5.3853v-68.76737571926233c0-2.975 2.4115-5.3853 5.3846-5.3853h69.1439553004736c2.9751 0 5.3846 2.4104 5.3846 5.3853v68.76737571926233C529.6406 146.7079 527.2312 149.1183 524.256 149.1183zM608.5174 542.6595c-30.0289 26.0453-69.8205 39.2524-118.2717 39.2524-45.7459 0-84.1044-13.4059-114.0114-39.846-29.9649-26.492-47.106-62.7784-50.9465-107.8509-0.1279-1.502 0.3798-2.989 1.3991-4.0992 1.0204-1.1102 2.4584-1.7418 3.9665-1.7418h65.40633616386361c2.6603 0 4.9219 1.9417 5.3236 4.5719 9.0852 59.5436 38.3975 88.489 89.6109 88.489 26.0574 0 47.2959-7.9036 63.1228-23.4911 16.0208-15.7903 23.8098-35.441 23.8098-60.0753 0-12.2557-2.9351-24.0497-8.7234-35.0522-5.8823-11.1714-21.6712-27.6702-46.9291-49.0398-26.3662-22.3079-44.7405-43.7623-54.6112-63.7678-10.0566-20.3712-14.9455-51.1024-14.9455-93.9513 0-2.974 2.4115-5.3843 5.3846-5.3843h59.05238363162666c2.9741 0 5.3846 2.4104 5.3846 5.3843 0 30.7152 2.9791 52.7822 8.8554 65.5915 5.8503 12.7623 22.4577 30.4783 49.3616 52.6543 28.0821 23.1483 47.5207 44.7646 57.7762 64.2484 10.3324 19.6317 15.5701 41.0971 15.5701 63.8017C654.1023 482.6692 638.7661 516.4173 608.5174 542.6595z"  horiz-adv-x="1000" />

    
    <glyph glyph-name="shezhi" unicode="&#58895;" d="M848.2028 271.362c61.7667 0 111.9928 50.2538 111.9928 111.9928 0 61.7667-50.2262 111.9949-111.9928 111.9949l-19.414016 0c-3.9373 11.1831-8.448 22.1194-13.4779 32.7014l13.6704 13.698c21.0811 21.0801 32.7025 49.2165 32.7025 79.1828 0 29.995-11.6214 58.1028-32.7025 79.1839-21.0801 21.1098-49.2165 32.7035-79.1839 32.7035-29.9704 0-58.1048-11.5937-79.1818-32.7035l-13.6704-13.6714c-10.6107 5.033-21.5214 9.5437-32.7311 13.481l0 19.412992c0 61.7656-50.2292 111.9939-111.9949 111.9939-61.7636 0-111.9928-50.2282-111.9928-111.9939l0-19.412992c-11.2118-3.9373-22.1225-8.448-32.7322-13.481l-13.6714 13.6714c-21.077 21.1098-49.2124 32.7035-79.1828 32.7035-29.9663 0-58.0987-11.5937-79.1839-32.7035-21.076-21.0801-32.7014-49.1889-32.7014-79.1839 0-29.9674 11.6255-58.1028 32.7014-79.1828l13.6714-13.6704c-5.0289-10.6097-9.5406-21.5194-13.4779-32.7291l-19.414016 0c-61.7636 0-111.9928-50.2282-111.9928-111.9949 0-61.739 50.2292-111.9928 111.9928-111.9928l19.414016 0c3.9373-11.2118 8.449-22.1215 13.4779-32.7291l-13.6714-13.6714c-21.076-21.0811-32.7014-49.1909-32.7014-79.1849 0-29.996 11.6255-58.1028 32.7014-79.1828 21.0852-21.078 49.2175-32.7035 79.1839-32.7035 29.9715 0 58.1059 11.6255 79.1828 32.7035l13.6714 13.6704c10.6097-5.0309 21.5204-9.5119 32.7322-13.4789l0-19.416064c0-61.7359 50.2292-111.9928 111.9928-111.9928 61.7656 0 111.9949 50.2569 111.9949 111.9928l0 19.416064c11.2097 3.967 22.1204 8.448 32.7311 13.5045l13.6704-13.695c21.077-21.078 49.2124-32.7035 79.1818-32.7035 29.9674 0 58.1038 11.6255 79.1839 32.7035 21.0811 21.0801 32.7025 49.1868 32.7025 79.1828 0 29.994-11.6214 58.1038-32.7025 79.1849l-13.6704 13.698c5.0299 10.6076 9.5406 21.5194 13.4779 32.7025L848.202752 271.3629zM789.3873 185.3706c10.5277-10.5001 16.297-24.5555 16.297-39.594 0-15.0108-5.7692-29.0673-16.297-39.5909-21.0504-21.0278-58.1294-21.0278-79.1808 0l-43.1186 43.1452-18.4842-10.3629c-18.647-10.4172-38.826-18.7556-60.0177-24.7695l-20.3694-5.7723 0-61.057024c0-30.8675-25.1279-55.9933-55.9985-55.9933s-55.9985 25.1259-55.9985 55.9933l0 61.057024-20.3674 5.7723c-21.2183 6.0416-41.4259 14.3534-60.0156 24.7695l-18.4852 10.3363-43.1206-43.1176c-21.0534-21.0278-58.1294-21.0278-79.1828 0-10.5267 10.5236-16.2939 24.5801-16.2939 39.5909 0 15.0385 5.7672 29.0939 16.2939 39.594l43.1176 43.1165-10.3588 18.4852c-10.3916 18.5907-18.7054 38.7697-24.746 60.0412l-5.7733 20.3448-61.053952 0c-30.8695 0-55.9954 25.1279-55.9954 55.9964 0 30.8705 25.1249 55.9985 55.9954 55.9985l61.053952 0 5.7733 20.3704c6.0406 21.2449 14.3544 41.4505 24.746 60.0156l10.3588 18.4832-43.1176 43.1186c-10.5267 10.5277-16.2939 24.5811-16.2939 39.5919 0 15.0395 5.7672 29.0939 16.2939 39.5919 21.0545 21.0278 58.1304 21.0278 79.1828 0l43.1206-43.1176 18.4852 10.3608c18.5897 10.3905 38.7983 18.731 60.0156 24.746l20.3674 5.7702 0 61.056c0 30.8951 25.1279 55.9964 55.9985 55.9964s55.9985-25.1013 55.9985-55.9964l0-61.056 20.3694-5.7702c21.1917-6.016 41.3706-14.3278 60.0177-24.7716l18.4842-10.3352 43.1186 43.1176c21.0524 21.0278 58.1315 21.0278 79.1808 0 10.5277-10.498 16.297-24.5524 16.297-39.5919 0-15.0108-5.7692-29.0642-16.297-39.5919l-43.0909-43.1186 10.3076-18.4832c10.4479-18.6737 18.7832-38.8813 24.7706-60.0156l5.7733-20.3704 61.053952 0c30.8695 0 55.9974-25.1279 55.9974-55.9985 0-30.8685-25.1279-55.9964-55.9974-55.9964l-61.053952 0-5.7733-20.3448c-5.9884-21.161-14.3227-41.342-24.7706-60.0412l-10.3076-18.4852L789.3873 185.3706zM512.2181 551.3472c-92.6372 0-167.9913-75.3551-167.9913-167.9923 0-92.6351 75.3541-167.9913 167.9913-167.9913s167.9913 75.3562 167.9913 167.9913C680.2094 475.9921 604.8553 551.3472 512.2181 551.3472zM512.2181 271.362c-61.7636 0-111.9928 50.2538-111.9928 111.9928 0 61.7667 50.2292 111.9949 111.9928 111.9949 61.7656 0 111.9949-50.2282 111.9949-111.9949C624.213 321.6159 573.9848 271.362 512.2181 271.362z"  horiz-adv-x="1024" />

    
    <glyph glyph-name="rili" unicode="&#58898;" d="M711.3062 521.3028c24.2821 0 45.3765 19.7069 45.3765 44.032V765.439744c0 24.3251-21.0954 44.0535-45.3765 44.0535-24.3026 0-43.988-19.7284-43.988-44.0535v-200.10496C667.3183 541.0097 687.0036 521.3028 711.3062 521.3028zM623.4808 698.5797H400.764928v-66.51392h222.71590400000002V698.579712zM884.053 698.5797h-82.774016v-66.14528h85.940224c25.2785 0 46.6115-21.376 46.6115-46.677v-153.92768H90.43865600000001v153.92768c0 25.3 21.333 46.677 46.6115 46.677h86.503424V698.579712h-82.642944c-64.086 0-116.5076-52.5087-116.5076-116.7032v-676.8015359999999c0-64.1741 50.4914-116.6807 114.5774-116.6807H884.052992c64.0625 0 116.5066 52.5066 116.5066 116.6807V581.87648C1000.5596 646.071 948.1144 698.5797 884.053 698.5797zM933.8296-98.3514c0-25.3-21.333-46.676-46.6115-46.676H137.05011199999998c-25.2785 0-46.6115 21.376-46.6115 46.676V365.554432H933.829632V-98.35136zM267.1084 165.8181c36.8773 0 66.7525 29.9397 66.7525 66.8815 0 36.9224-29.8752 66.8611-66.7525 66.8611-36.8548 0-66.7525-29.9397-66.7525-66.8611C200.3558 195.7578 230.2525 165.8181 267.1084 165.8181zM511.5484 165.8181c36.8558 0 66.7525 29.9397 66.7525 66.8815 0 36.9224-29.8957 66.8611-66.7525 66.8611-36.8773 0-66.7525-29.9397-66.7525-66.8611C444.7959 195.7578 474.6711 165.8181 511.5484 165.8181zM265.9164-78.709c36.8773 0 66.7515 29.9397 66.7515 66.8611 0 36.9428-29.8742 66.8826-66.7515 66.8826-36.8558 0-66.7525-29.9397-66.7525-66.8826C199.1639-48.7693 229.0596-78.709 265.9164-78.709zM511.5484-78.709c36.8558 0 66.7525 29.9397 66.7525 66.8611 0 36.9428-29.8957 66.8826-66.7525 66.8826-36.8773 0-66.7525-29.9397-66.7525-66.8826C444.7959-48.7693 474.6711-78.709 511.5484-78.709zM755.6413 165.8181c36.8568 0 66.7535 29.9397 66.7535 66.8815 0 36.9224-29.8967 66.8611-66.7535 66.8611-36.8773 0-66.7525-29.9397-66.7525-66.8611C688.8899 195.7578 718.764 165.8181 755.6413 165.8181zM311.7036 521.3028c24.2811 0 45.3765 19.7069 45.3765 44.032V765.439744c0 24.3251-21.0944 44.0535-45.3765 44.0535-24.3016 0-43.989-19.7284-43.989-44.0535v-200.10496C267.7146 541.0097 287.402 521.3028 311.7036 521.3028z"  horiz-adv-x="1024" />

    
    <glyph glyph-name="yanjing" unicode="&#58974;" d="M1005.481984 300.078848c0-95.007744-203.483136-297.683968-493.45536-297.683968-282.592256 0-493.45536 199.341056-493.45536 297.683968 0 98.328576 211.77344 297.365504 493.45536 297.365504C804.278272 597.443328 1005.550592 398.407424 1005.481984 300.078848zM512.4608 543.144704c-131.330048 0-237.79328-108.901376-237.79328-243.227648 0-134.327296 106.462208-243.227648 237.79328-243.227648 131.371008 0 237.837312 108.901376 237.837312 243.227648C750.297088 434.243328 643.831808 543.144704 512.4608 543.144704zM512.026624 455.200512c-83.634176 0-151.435264-69.337088-151.435264-154.876928 0-85.530624 67.801088-154.88 151.435264-154.88s151.407616 69.349376 151.407616 154.88C663.43424 385.863424 595.6608 455.200512 512.026624 455.200512z"  horiz-adv-x="1024" />

    
    <glyph glyph-name="football" unicode="&#58883;" d="M254.488577 666.662891C351.488795 743.3689 470.504422 773.467405 584.359516 760.109166c113.856118-13.357216 222.666312-70.170153 299.315016-167.171394 76.647681-97.001241 106.745163-216.015845 93.38897-329.869916-13.299911-113.856118-70.113871-222.667336-167.17037-299.315016C712.890868-112.895865 593.876264-143.051675 480.02117-129.637154c-113.856118 13.300934-222.666312 70.114894-299.31604 167.171394C104.057449 134.534458 73.959967 253.551108 87.317183 367.405179 100.618117 481.261297 157.431054 590.071492 254.488577 666.662891L254.488577 666.662891zM385.427768 511.530694l-71.833025-24.766057-71.833025-24.708751c-6.306636-2.178619-13.242606 1.147126-15.421224 7.510044-0.286526 0.916882-0.515746 1.834788-0.630357 2.750647l0 0-4.930289 49.646724-1.433652 14.676257c-37.550221-52.972469-60.366879-113.969705-67.706031-176.802752-2.407839-20.523429-3.152806-41.277102-2.235924-62.029752l6.936993 10.43363 27.517727 41.620933c3.668553 5.617951 11.235902 7.108908 16.797571 3.384074 0.803295-0.515746 1.548262-1.147126 2.121314-1.777483l0 0 52.054563-55.43659 51.939953-55.437613c2.064009-2.179642 3.15383-4.930289 3.267417-7.682983l4.529153-75.673493 4.586458-75.846432c0.458441-6.708795-4.643764-12.440333-11.350512-12.897751-1.319042-0.058328-2.579755 0.113587-3.784186 0.402159l-48.15679 8.370645-27.746948 4.815679c1.088798-1.432629 2.293229-2.923586 3.439332-4.414543C287.165814 7.266889 362.610086-38.367451 443.673333-57.572862l-17.083074 23.103184-29.639041 40.072671c-4.013407 5.331425-2.808976 12.95608 2.52245 16.912182 0.74599 0.573051 1.548262 1.031493 2.350534 1.375324l0 0.058328L471.765135 53.816065l69.826322 29.868261c2.808976 1.205455 5.847172 1.319042 8.597819 0.403183l72.463382-21.555945 72.806189-21.670555c6.478552-1.948375 10.089799-8.656147 8.199753-15.07637-0.286526-1.087774-0.74599-2.12029-1.319042-3.039219l-24.651446-42.767036-14.21884-24.879644c37.378306 13.644765 73.322959 33.422204 106.287745 59.506279 37.722136 29.753651 68.279083 65.182558 91.496877 104.109126l-12.211113-4.013407-47.298236-15.881712c-6.305613-2.119267-13.1853 1.319042-15.363919 7.624654-0.230244 0.916882-0.458441 1.834788-0.574075 2.75167l0 0-6.880711 75.673493-6.879688 75.673493c-0.231267 2.923586 0.573051 5.734608 2.119267 7.968485l0 0 43.054585 62.60485 43.053562 62.602803c3.841491 5.503341 11.351536 6.879688 16.854876 3.094478 0.802272-0.515746 1.490957-1.204431 2.121314-1.892093l0 0.057305 33.479509-36.977169 0.286526-0.343831c-7.451716 67.763336-33.078373 134.264936-77.794807 192.052061l0.11461-8.025791 0.458441-49.875944c0.11461-6.764054-5.27412-12.211113-11.981892-12.267395-0.974188 0-1.892093 0.113587-2.808976 0.285502l0 0-74.126254 16.797571-74.126254 16.854876c-3.039219 0.687662-5.561669 2.52245-7.224542 4.930289l-45.862537 59.736523L573.41014 638.457502c-4.071735 5.27412-3.095501 12.898775 2.235924 16.969487 0.688685 0.573051 1.490957 1.031493 2.408863 1.432629l-0.058328 0.057305 45.518706 20.408819 14.046924 6.306636c-19.893072 5.675256-40.245609 9.745968-60.770062 12.153808-53.774741 6.306636-108.923782 1.260713-161.553443-15.59314l1.433652-0.458441 47.410799-15.364943c6.420223-2.064009 9.860579-8.886391 7.853875-15.249309-0.343831-1.031493-0.859577-2.006703-1.432629-2.866281l-39.21207-64.609507-39.442314-64.954361C390.300752 514.167754 388.007523 512.4486 385.427768 511.530694L385.427768 511.530694 385.427768 511.530694zM443.101305 450.073994c-5.217838-0.058328-9.975189-3.554966-11.466146-8.828063l-23.849174-85.019349-23.850198-85.019349c-1.433652-4.929266 0.458441-10.43363 4.930289-13.414521l73.495898-48.959062 72.864518-48.616254c4.299933-3.266393 10.43363-3.323699 14.849196 0.172939l69.367881 54.749952 69.254294 54.748928 0 0.057305c4.013407 3.095501 5.733585 8.65717 3.898797 13.70207l-30.726815 82.84073-30.500665 82.495876c-1.720178 4.987594-6.535857 8.485255-12.039197 8.255011l-88.22946-3.611248L443.101305 450.073994z"  horiz-adv-x="1024" />

    
    <glyph glyph-name="shuangseqiu" unicode="&#58890;" d="M94.110913 515.989239c71.290673 58.462506 250.324232 117.949342 435.625542 113.186875 131.389446-3.373841 291.831578-37.20639 385.211339-122.712833-86.067214 55.31891-304.084647 86.340437-381.973598 90.258677C358.631472 595.145044 222.568586 560.60232 94.110913 515.989239L94.110913 515.989239zM94.110913 515.989239c71.290673 58.462506 250.324232 117.949342 435.625542 113.186875 131.389446-3.373841 291.831578-37.20639 385.211339-122.712833-86.067214 55.31891-304.084647 86.340437-381.973598 90.258677C358.631472 595.145044 222.568586 560.60232 94.110913 515.989239L94.110913 515.989239zM94.110913 515.989239c71.290673 58.462506 250.324232 117.949342 435.625542 113.186875 131.389446-3.373841 291.831578-37.20639 385.211339-122.712833-86.067214 55.31891-304.084647 86.340437-381.973598 90.258677C358.631472 595.145044 222.568586 560.60232 94.110913 515.989239L94.110913 515.989239zM481.016847 202.221046 529.274944 202.242536 529.335319 49.971503 481.070059 49.971503 481.016847 202.221046ZM288.146141 197.522024 326.124104 197.543513 391.866411 103.222311 391.836735 197.543513 427.97684 197.56398 428.039261 54.566148 389.663232 54.525216 324.222801 148.176153 324.255547 54.525216 288.218796 54.505773 288.146141 197.522024ZM193.353195 197.476999 232.189711 197.500535 232.168222 108.382844 228.868059 89.704436 222.119355 75.583834 212.468554 65.222859 200.319863 58.034133 185.937295 53.666662 169.926646 51.766382 152.909064 52.079514 135.736962 54.172175 125.438409 57.220604 116.675838 61.627984 109.331569 67.266401 103.334995 74.015106 98.60425 81.892517 95.156732 90.770721 92.97402 100.652789 92.054067 111.453786 92.003925 197.417647 130.847605 197.458579 131.035894 105.373301 134.660444 93.443597 141.920802 84.566416 151.487691 79.324018 162.079934 77.547559 172.693666 79.324018 182.291255 84.566416 189.604824 93.425178 193.301006 105.350788 193.353195 197.476999ZM99.804588 11.760227 142.74661 11.760227 142.74661-106.29247 224.168014-106.29247 224.168014-135.600983 99.804588-135.600983 99.804588 11.760227ZM587.757916-38.103438 529.675056-38.103438 529.675056-151.393667 484.412177-151.393667 484.412177-38.103438 438.276417-38.103438 438.276417-0.920584 587.757916-0.920584 737.294674-0.920584 737.294674-38.103438 691.085236-38.103438 691.085236-151.393667 645.835659-151.393667 645.835659-38.080925 587.757916-38.103438ZM648.886135 24.193397c-54.816466 0-99.525738 44.725644-99.525738 99.524714 0 54.812373 44.708248 99.498108 99.525738 99.498108 54.771441 0 99.479689-44.685735 99.523691-99.498108C748.409826 68.899598 703.658599 24.193397 648.886135 24.193397L648.886135 24.193397zM331.628468-160.378296c-54.81749 0-99.511411 44.707225-99.511411 99.503225 0 54.81442 44.693922 99.523691 99.511411 99.523691 54.806233 0 99.512435-44.708248 99.512435-99.523691C431.140902-115.670048 386.434701-160.378296 331.628468-160.378296L331.628468-160.378296zM841.374124-153.987748c-54.818513 0-99.525738 44.731784-99.525738 99.525738 0 54.797024 44.706201 99.502202 99.525738 99.502202 54.772464 0 99.477642-44.685735 99.477642-99.502202C940.851767-109.280524 896.146589-153.987748 841.374124-153.987748L841.374124-153.987748zM472.806861 638.550623c6.040576 0.255827 12.095479 0.456395 18.169825 0.587378l27.549449 71.709205 36.015262 0 7.062859 18.374486-53.952796 0L472.806861 638.550623zM499.589854 639.239308c3.058662 0.034792 6.108115 0.093121 9.171893 0.093121 7.076162 0 14.219863-0.092098 21.230534-0.273223 6.765077-0.172939 13.486152-0.446162 20.189831-0.76441l8.873088 23.092951 2.045589 0c14.040784 0 23.483854-10.255575 20.934798-22.769586-0.152473-0.789992-0.355087-1.569752-0.592494-2.339278 13.752212-1.124614 27.345812-2.537799 40.732703-4.257977 0.731664 3.092431 1.301645 6.241145 1.558495 9.470699 2.587941 33.172517-22.188348 60.394509-54.943356 60.394509l-45.112454 0L499.589854 639.239308zM464.879308 638.154603l39.035038 101.783151 36.08894 0.010233 7.061836 18.383696-54.002938 0-46.602388-121.313973C452.577121 637.461825 458.717981 637.837378 464.879308 638.154603zM532.768511 586.830681c-18.445094-0.169869-36.409235-0.734734-53.952796-1.620917l-21.843494-56.81089 50.953486 0 20.201088 52.686966 31.306007 0c5.446036 0 10.769274 0.813528 15.901155 2.218528C558.656111 585.065478 544.157909 586.249443 532.768511 586.830681zM470.075657 584.730856c-6.187933-0.353041-12.329816-0.744967-18.407232-1.182942l-10.968819-28.545126 17.954931 0L470.075657 584.730856zM408.310941 633.465814c-0.106424 1.656733-0.022513 3.375887 0.320295 5.152347 2.580778 12.514012 16.160051 22.769586 30.270421 22.769586l8.149611 0 15.561417 40.497343-32.107255 0c-32.756031 0-61.678758-27.220968-64.311725-60.394509-0.35918-4.755304-0.097214-9.366322 0.600681-13.814634C380.426871 629.883219 394.266064 631.843874 408.310941 633.465814zM823.866379 405.698321 823.866379 410.126166 822.946426 410.126166 823.866379 405.698321ZM879.268176 356.06183l0 24.367991 6.600325 0c2.883677-0.64673 5.054109 1.701758 6.519484 7.113001l4.384867 21.381983 33.926694 0-6.602372-36.600593c-2.168386-12.1886-9.8176-17.621333-22.936385-16.262382L879.268176 356.06183 879.268176 356.06183zM214.556099 441.534504l0 31.493272 123.621529 0 0-28.453029-44.842301-119.986745 19.678178-47.765887c0.700965-5.41022 4.01136-7.792477 9.840112-7.102768l14.184047 0 0-26.466792-32.787754 0c-9.472745 0-15.678074 4.426823-18.570961 13.224186l-9.849322 21.349237-8.774851-21.349237c-2.894933-9.485025-9.840112-14.226003-20.776186-14.226003l-29.528524 0 0 27.469632 8.773827 0c5.838985-0.709151 9.097192 1.339508 9.849322 6.079462l19.690458 52.863998-41.571814 98.604762 36.06745 0 22.989597-55.915497 24.036439 70.182432L214.556099 441.535527 214.556099 441.534504zM144.562978 377.463256l20.817118 63.037708-76.56377 0 0 31.523971 117.028367 0 0-27.450189-42.658565-113.874537 22.959921-55.903218c1.451048-4.073782 4.021593-5.768377 7.647167-5.078669l13.119809 0 0-27.469632-30.616298 0c-9.452279 0-15.290241 4.071735-17.495466 12.199856l-13.119809 30.499641-12.033058-30.499641c-3.634784-8.815783-9.840112-12.891611-18.550495-12.199856l-25.163099 0 0 27.469632 9.7869 0c2.204202-0.689708 3.697205 0.292666 4.39817 3.031033l22.947641 60.989049-37.132712 92.5253 33.874505 0.00921L144.562978 377.463256 144.562978 377.463256zM387.448798 422.180713l0 29.508058 10.978029 0c2.894933-0.699941 6.16235 0.991584 9.7869 5.076622l18.625196 19.292392 45.916772 0-8.722662-10.143011 170.605609 0 0-28.453029-29.538757-31.54546 30.582529 0 0-66.067718c2.215458-23.020296-9.06547-33.215496-33.840736-30.489408L427.913395 309.359158l0-31.533181c-1.442862-6.767124 1.494027-9.504468 8.773827-8.106632l200.12083 0 0-28.494984L422.450986 241.224362c-28.411073-2.695389-40.078811 6.810103-35.002189 28.494984L387.448798 405.916285l167.345356 0 28.408003 31.54546-142.126998 0-10.966773-10.194176c-2.89391-4.030803-9.464559-5.725398-19.690458-5.087878L387.448798 422.17969 387.448798 422.180713zM427.925674 337.814234l63.455217 0 0 40.651862-63.466474 0L427.925674 337.814234 427.925674 337.814234zM595.237261 347.964408l0 30.501688-64.521502 0 0-40.651862 50.359968 0C591.979054 336.475749 596.742545 339.848567 595.237261 347.964408L595.237261 347.964408zM779.744485 452.690588l58.035788-0.011256-0.041956 19.345604 36.09508 0 0-19.345604 15.293311 0c4.38896 0 6.977925 2.048659 7.646144 6.122441l0 9.148357 31.752168 0 0-19.301602c0-17.653055-10.94426-26.113751-32.794917-25.426089l-22.981411 0.013303 0-78.299297 36.099173 0 7.646144-71.184249c0-6.081509 2.171456-8.81783 6.559393-8.104585l6.519484 0 0-26.429952-20.72502 0c-15.332197-0.688685-23.355941 5.41329-24.108071 18.260899l-7.647167 69.146846-4.344958 0 0-58.954717c1.464351-21.036106-6.557346-30.475082-24.067138-28.453029l-22.979364 0 0 26.429952 5.472642 0c3.63683 0 5.474688 2.023076 5.474688 6.098905l0 54.878888-3.302209 0-13.077853-67.100234c-2.963495-12.890588-10.611685-19.302625-23.017226-19.302625l-20.769023 0 0 26.405393 2.214435 0c4.387937-0.645706 7.270591 1.693572 8.732895 7.125281l13.163811 71.184249 36.054147 0 0 77.243245-56.905034 0L779.742439 452.690588 779.744485 452.690588zM710.888258 439.497101l-30.625508 0 0 28.453029 92.965322 0 0-27.459399-27.368324 0.010233 0-72.186066 26.237571 0 0-27.452235-26.237571 0 0-74.234725 26.237571 0 0-26.405393-92.963275 0 0 25.426089 31.754215 0 0 75.214029-30.625508 0 0 28.496008 30.625508 0L710.888258 439.497101 710.888258 439.497101zM879.268176 356.123228l0 24.38027 6.600325 0c2.883677-0.647753 5.098111 1.691525 6.519484 7.114025l4.384867 21.379936 33.926694 0-6.557346-36.609803c-2.213411-12.189623-9.862625-17.6111-22.981411-16.264429L879.268176 356.123228 879.268176 356.123228zM827.918671 357.116859l-24.068162 0.00921c-13.119809-1.346671-20.389376 4.419659-21.892613 17.309224l-5.475711 33.528628 33.927717 0 4.344958-20.336164c0-4.743024 2.550079-6.779404 7.647167-6.079462l5.51562 0L827.917648 357.116859 827.918671 357.116859zM776.403391 197.522024 814.381353 197.543513 880.146173 103.200822 880.105241 197.543513 916.247392 197.56398 916.288325 54.566148 877.931738 54.525216 812.500517 148.176153 812.541449 54.525216 776.484232 54.505773 776.403391 197.522024Z"  horiz-adv-x="1024" />

    
    <glyph glyph-name="xingyundazhuanpan" unicode="&#58894;" d="M510.735-140.215c-243.875 0-441.569 197.688-441.569 441.55 0 243.863 197.694 441.552 441.569 441.552 243.868 0 441.573-197.694 441.573-441.552C952.309 57.473 754.604-140.215 510.735-140.215L510.735-140.215zM794.684 585.268 510.735 301.335 510.735 702.861c-110.274-0.005-210.13-44.495-282.692-116.466l282.692-285.061L109.26 301.334c0-110.258 44.476-210.097 116.428-282.653l285.047 282.653 0-401.466 0.029 0c110.254 0 210.1 44.464 282.667 116.408L510.735 301.335l401.536 0 0 0.027C912.271 412.237 867.336 512.61 794.684 585.268L794.684 585.268zM794.684 585.268"  horiz-adv-x="1024" />

    
    <glyph glyph-name="jiantou" unicode="&#58933;" d="M767.707334 292.549308 308.065819 740.523085 256.054235 689.790634 663.627884 292.580007 256.085958-104.629597 308.060703-155.363072Z"  horiz-adv-x="1024" />

    
    <glyph glyph-name="wo" unicode="&#59043;" d="M672.017812 666.475771c-43.244877 45.256695-100.849795 70.180316-162.20308 70.180316-61.352262 0-118.95718-24.923621-162.202057-70.180316-42.88058-44.876025-66.496417-104.442619-66.496417-167.727905 0-63.285285 23.615837-122.85188 66.496417-167.727905 11.970624-12.527302 25.046417-23.488947 38.99202-32.803071-47.223487-16.1058-100.818073-43.473074-147.735592-90.006853-77.78245-77.146977-117.352638-186.799243-117.61051-325.909396-0.030699-16.95412 13.68773-30.723715 30.64185-30.75646 0.020466 0 0.038886 0 0.058328 0 16.927514 0 30.66641 13.708196 30.698132 30.64185 0.291642 157.359777 54.953535 268.473323 162.46607 330.251279 81.517514 46.840771 165.102104 47.3821 166.381235 47.383123 0.045025 0 0.089028 0 0.134053 0 3.04331 0 5.982242 0.449231 8.759492 1.276062 57.370581 2.696409 110.872046 27.279269 151.621081 69.923466 42.88058 44.876025 66.495394 104.441596 66.495394 167.727905C738.514229 562.033151 714.898392 621.599746 672.017812 666.475771zM509.814732 322.237956c-92.248915 0-167.300163 79.181308-167.300163 176.50991s75.051248 176.50991 167.300163 176.50991 167.300163-79.182331 167.300163-176.50991S602.06467 322.237956 509.814732 322.237956zM761.574411 236.904538c-14.617914 8.59167-33.43138 3.706411-42.022027-10.91048s-3.706411-33.430357 10.909456-42.022027c0.240477-0.141216 25.18047-16.012679 50.718074-58.037776 25.971485-42.741411 56.931583-120.368318 56.931583-247.464867 0-16.95412 13.745035-30.699155 30.699155-30.699155s30.699155 13.745035 30.699155 30.699155C899.508786 152.677312 767.206683 233.594146 761.574411 236.904538z"  horiz-adv-x="1024" />

    
    <glyph glyph-name="icon5" unicode="&#58906;" d="M828.622706 616.743968c-174.860517 174.887123-458.359312 174.887123-633.246435 0-174.887123-174.87382-174.887123-458.385918 0-633.233132 174.859493-174.901449 458.385918-174.901449 633.246435 0C1003.509828 158.397958 1003.509828 441.870148 828.622706 616.743968zM902.715191 277.395166c-88.305185 9.086959-179.205475-16.698311-250.975055-77.454046l-100.166327 100.166327 256.249175 256.277828C876.86136 476.852894 908.454916 376.359109 902.715191 277.395166zM651.767765 120.750523l116.481921-116.481921c-52.446489-45.464471-113.885793-74.980715-178.13919-87.962378C582.976006-11.938522 603.556741 61.813203 651.767765 120.750523zM691.368692 160.352473c58.897412 48.211025 132.663462 68.791759 204.486254 61.658292-13.035898-64.295352-42.525536-125.719306-88.030939-178.140213L691.368692 160.352473zM768.249687 595.945269 511.999488 339.667441 411.833161 439.90233c60.72913 71.741951 86.528726 162.602332 77.42744 250.948449C588.22352 696.562874 688.718329 664.981598 768.249687 595.945269zM332.656891 439.90233c-58.950623-48.210002-132.715651-68.790736-204.51286-61.684898 13.035898 64.295352 42.526559 125.734656 88.030939 178.166819L332.656891 439.90233zM255.74929 595.945269c52.419883 45.533033 113.859187 74.980715 178.140213 88.017636 7.134491-71.782883-13.446243-145.561213-61.657268-204.499557L255.74929 595.945269zM121.283786 322.87294c88.304162-9.113565 179.205475 16.685008 250.947426 77.42744l100.192933-100.193956-256.250198-256.235872C147.13864 123.415212 115.544061 223.896718 121.283786 322.87294zM255.74929 4.295208l256.250198 256.264525 100.166327-100.207259c-60.700477-71.728648-86.528726-162.643264-77.426417-250.976078C435.77648-96.362306 335.281671-64.741122 255.74929 4.295208z"  horiz-adv-x="1024" />

    
    <glyph glyph-name="jiantou1" unicode="&#58881;" d="M376.2368 278.9824c-12.4992-12.4992-32.7552-12.4992-45.2544 0l0 0c-12.4992 12.4992-12.4992 32.7552 0 45.2544l316.7808 316.7808c12.4992 12.4992 32.7552 12.4992 45.2544 0l0 0c12.4992-12.4992 12.4992-32.7552 0-45.2544L376.2368 278.9824zM693.0176 4.2368c12.4992-12.4992 12.4992-32.7552 0-45.2544l0 0c-12.4992-12.4992-32.7552-12.4992-45.2544 0L330.9824 275.7632c-12.4992 12.4992-12.4992 32.7552 0 45.2544l0 0c12.4992 12.4992 32.7552 12.4992 45.2544 0L693.0176 4.2368z"  horiz-adv-x="1024" />

    
    <glyph glyph-name="iconfont17shifouxianshimimafou" unicode="&#59300;" d="M714.236484 36.537911c136.440744 0 247.421393 114.688109 247.421393 255.63577 0 140.937936-110.980649 255.626045-247.421393 255.626045-136.442689 0-247.431119-114.688109-247.431119-255.626045C466.805365 151.226019 577.793795 36.537911 714.236484 36.537911L714.236484 36.537911zM714.236484 488.048545c103.495704 0 187.668268-87.881969 187.668268-195.874864 0-108.000676-84.172564-195.874864-187.668268-195.874864-103.503485 0-187.677994 87.874188-187.677994 195.874864C526.55849 400.166576 610.732999 488.048545 714.236484 488.048545L714.236484 488.048545zM4.22487 289.187872c118.790435-304.476593 400.115828-501.187872 716.584283-501.187872 316.581274 0 597.943625 196.71128 716.743785 501.187872l4.21709 10.834497-4.21709 10.834497C1318.713875 615.28872 1037.351524 812 720.807208 812c-316.46651 0-597.753-196.71128-716.584283-501.106176L0 300.059327 4.22487 289.187872 4.22487 289.187872zM720.807208 752.246875c287.981703 0 544.566708-177.076915 656.747516-452.224505C1265.373916 24.866998 1008.781131-152.285778 720.807208-152.285778c-287.9428 0-544.40526 177.115818-656.586068 452.308147C176.401947 575.16996 432.864407 752.246875 720.807208 752.246875L720.807208 752.246875zM720.807208 752.246875"  horiz-adv-x="1442" />

    
    <glyph glyph-name="guangbo" unicode="&#58896;" d="M491.307008 714.277632 176.607232 521.595648 77.029376 521.595648C34.523136 521.595648 0 487.072512 0 444.566272l0-289.132544c0-42.50624 34.523136-77.029376 77.029376-77.029376l99.577856 0 314.701824-192.681984c21.305344 0 38.567936 17.262592 38.567936 38.516736L529.876992 675.762944C529.876992 697.01504 512.6144 714.277632 491.307008 714.277632L491.307008 714.277632zM842.039296-94.428416c-8.200192 0-16.398336 3.129344-22.657024 9.385984-12.570624 12.570624-12.570624 32.905216 0 45.420544 187.234304 187.287552 187.234304 491.956224 0 679.241728-12.570624 12.515328-12.570624 32.905216 0 45.420544 12.51328 12.51328 32.84992 12.51328 45.420544 0 212.262912-212.31616 212.262912-557.764608 0-770.082816C858.492928-91.297024 850.292736-94.428416 842.039296-94.428416L842.039296-94.428416zM697.151488 92.644096c-8.200192 0-16.400384 3.129344-22.657024 9.44128-12.570624 12.51328-12.570624 32.84992 0 45.3632 84.041728 84.150272 84.041728 220.94848 0 305.098752-12.570624 12.515328-12.570624 32.79872 0 45.420544 12.51328 12.51328 32.84992 12.51328 45.3632 0 109.125632-109.180928 109.125632-286.758912 0-395.882496C713.601024 95.77344 705.404928 92.644096 697.151488 92.644096L697.151488 92.644096zM697.151488 92.644096"  horiz-adv-x="1024" />

    
    <glyph glyph-name="tianjia" unicode="&#59111;" d="M972.824381 351.175619C972.824381 351.175619 563.151238 351.175619 563.151238 351.175619 563.151238 351.175619 563.151238 760.726857 563.151238 760.726857 563.151238 789.008762 540.281905 811.902476 512 812 483.718095 811.902476 460.824381 789.008762 460.824381 760.726857 460.824381 760.726857 460.824381 351.175619 460.824381 351.175619 460.824381 351.175619 51.175619 351.175619 51.175619 351.175619 22.942476 351.175619 0 328.281905 0 300.048762 0 271.718095 22.942476 248.848762 51.175619 248.848762 51.175619 248.848762 460.824381 248.848762 460.824381 248.848762 460.824381 248.848762 460.824381-160.775619 460.824381-160.775619 460.824381-189.057524 483.718095-212 512-212 540.281905-212 563.151238-189.057524 563.151238-160.775619 563.151238-160.775619 563.151238 248.848762 563.151238 248.848762 563.151238 248.848762 972.824381 248.848762 972.824381 248.848762 1001.106286 248.848762 1024.048762 271.718095 1024 300.048762 1024 328.281905 1001.057524 351.175619 972.824381 351.175619 972.824381 351.175619 972.824381 351.175619 972.824381 351.175619Z"  horiz-adv-x="1025" />

    
    <glyph glyph-name="yuandian" unicode="&#59062;" d="M511.999488 747.303448c247.02227 0 447.302936-200.354344 447.302936-447.302936 0-247.093901-200.281689-447.302936-447.302936-447.302936-247.021247 0-447.302936 200.209034-447.302936 447.302936C64.696552 546.949103 264.979265 747.303448 511.999488 747.303448z"  horiz-adv-x="1024" />

    
    <glyph glyph-name="qingkong" unicode="&#58888;" d="M741.442646 580.411481l0 99.590206c0 36.516682-22.407336 66.393129-49.795103 66.393129L331.215564 746.394816c-27.387767 0-49.795103-29.877471-49.795103-66.393129l0.090051 0 0-99.590206L79.877235 580.411481l0-66.393129 68.765153 0 0-599.913259c0-34.895765 28.294416-63.504336 63.074547-64.014966l0-0.007163 598.34453 0 0 66.393129L212.664517-83.523907 212.664517 514.018352 810.206776 514.018352l0-663.936411c35.211966 0 64.022129 28.810163 64.022129 64.022129l0 599.913259 68.765153 0 0 66.393129L741.442646 580.410458zM677.419494 580.411481 345.4518 580.411481l0 99.590206 331.967694 0L677.419494 580.411481zM478.239082 414.427122l66.393129 0 0-398.361847-66.393129 0 0 398.361847ZM312.254723 414.427122l66.393129 0 0-398.361847-66.393129 0 0 398.361847ZM644.223441 414.427122l66.393129 0 0-398.361847-66.393129 0 0 398.361847Z"  horiz-adv-x="1024" />

    
    <glyph glyph-name="icon" unicode="&#59093;" d="M822.469532 531.421293C743.470721 531.421293 679.214824 467.825361 679.214824 389.653284 679.214824 311.481204 743.470721 247.872792 822.469532 247.872792L1094.034249 247.872792 1094.034249 531.421293 822.469532 531.421293ZM1131.86893 172.995321 822.469532 172.995321C701.751681 172.995321 603.545464 270.186278 603.545464 389.653284 603.545464 509.107808 701.751681 606.298764 822.469532 606.298764L1131.86893 606.298764C1152.766284 606.298764 1169.703609 589.538689 1169.703609 568.860029L1169.703609 210.434057C1169.703609 189.767876 1152.766284 172.995321 1131.86893 172.995321L1131.86893 172.995321ZM911.538675-106.413702 175.805496-106.413702C90.765748-106.413702 21.591342-37.950736 21.591342 46.199062L21.591342 733.100016C21.591342 817.249813 90.765748 885.71278 175.805496 885.71278L911.538675 885.71278C996.591033 885.71278 1065.778051 817.249813 1065.778051 733.100016L1065.778051 584.206167C1065.778051 563.527504 1048.853337 546.767431 1027.943371 546.767431 1007.046017 546.767431 990.108692 563.527504 990.108692 584.206167L990.108692 733.100016C990.108692 775.967368 954.871993 810.83531 911.538675 810.83531L175.805496 810.83531C132.4974 810.83531 97.260701 775.967368 97.260701 733.100016L97.260701 46.199062C97.260701 3.331711 132.4974-31.536233 175.805496-31.536233L911.538675-31.536233C954.871993-31.536233 990.108692 3.331711 990.108692 46.199062L990.108692 206.07494C990.108692 226.753603 1007.046017 243.513676 1027.943371 243.513676 1048.853337 243.513676 1065.778051 226.753603 1065.778051 206.07494L1065.778051 46.199062C1065.778051-37.950736 996.591033-106.413702 911.538675-106.413702M802.887564 301.671008C781.990209 301.671008 765.052883 318.431081 765.052883 339.109743L765.052883 440.206808C765.052883 460.872989 781.990209 477.645541 802.887564 477.645541 823.784918 477.645541 840.722243 460.872989 840.722243 440.206808L840.722243 339.109743C840.722243 318.431081 823.784918 301.671008 802.887564 301.671008"  horiz-adv-x="1180" />

    
    <glyph glyph-name="yaoyiyao" unicode="&#58897;" d="M937.482993 823.359922 648.220038 891.28355C553.878221 913.52215 459.205225 854.990198 437.102993 760.517327L294.910199 155.82117c-22.180156-94.341817 36.353566-188.945743 130.762682-211.187885l289.257642-67.913003c94.34713-22.249226 189.013042 36.284497 211.186114 130.764453l142.199878 604.696157C1090.418747 706.517395 1031.892108 801.119551 937.482993 823.359922L937.482993 823.359922zM966.745427 536.000804l-97.736847-415.052635c-11.221133-47.2081-58.42392-76.436884-105.632019-65.277737l-301.341258 70.854654c-47.271856 11.150292-76.576794 58.422149-65.355661 105.699318l97.607563 414.907412c11.157376 47.202787 58.429233 76.438655 105.630248 65.348577l301.481168-70.84757C948.461497 630.471905 977.835505 583.210675 966.745427 536.000804L966.745427 536.000804zM966.745427 536.000804M232.813201 481.087031c4.89862 37.993523 24.337249 71.878299 54.970446 95.191903L251.996804 622.744979c-42.670767-32.804458-70.162188-80.62887-77.224984-134.0851-7.043315-53.587285 7.33199-106.384699 40.138219-149.06255l46.405831 35.717773C237.857043 405.602951 227.833114 443.146638 232.806117 481.092344L232.813201 481.087031zM232.813201 481.087031M87.188185 503.826827c7.140721 55.406115 35.491083 104.813812 80.166636 138.80839l-52.189957 67.762467c-62.226283-47.843893-102.3096-117.58458-112.611578-195.537451-10.27187-78.138827 10.689829-155.144206 58.533722-217.370488l67.679229 52.078383C94.550283 393.744254 79.939432 448.486239 87.188185 503.826827L87.188185 503.826827zM87.188185 503.826827M1071.644247 236.726317l37.453365-45.008503c41.356676 34.451499 66.953114 82.823154 71.809229 136.651297 4.822466 53.704172-11.532831 106.372302-45.98433 147.727207l-45.09174-37.502953c24.780002-29.44839 36.334085-66.758303 32.792061-104.904133C1119.164045 295.585906 1101.16879 261.146804 1071.644247 236.726317L1071.644247 236.726317zM1071.644247 236.726317M1190.30206 169.718302l54.623328-65.637252c60.311819 50.245385 97.627044 120.781257 104.718177 199.279599 7.022063 78.312386-16.824615 155.122954-67.062917 215.434772l-65.762994-54.687084c36.146358-42.961213 52.985141-97.364935 47.824412-152.985342C1259.598223 255.543321 1233.351824 205.326272 1190.30206 169.718302L1190.30206 169.718302zM1190.30206 169.718302"  horiz-adv-x="1351" />

    
    <glyph glyph-name="chilun" unicode="&#58916;" d="M938.09191 475.077322c-18.798135 1.725294-75.764568 13.96813-90.712001 46.563502-13.048177 28.339442 8.507768 68.406996 28.858258 96.976682l12.646018 17.762549L765.061065 766.755404l-18.797112-14.083763c-17.015535-12.762675-72.54627-45.700855-104.162338-30.697139-25.40767 12.071943-32.305777 55.588039-33.686217 89.963964l-1.035586 25.408693L411.069775 837.347159l-0.977257-25.408693c-1.379417-34.374902-8.334829-77.892021-33.685193-89.963964-31.617092-15.003715-87.205131 17.934464-104.163361 30.697139l-18.85544 14.141068L129.566426 636.380054l12.647041-17.762549c20.348444-28.569686 41.905412-68.521606 28.971845-96.919377-14.889105-32.534997-70.64906-44.664246-90.769306-46.619784l-24.085558-2.183735 0-79.558987 0 0 0-97.378841 24.029276-2.186805c20.176528-1.953492 75.936483-14.08274 90.825588-46.619784 12.933567-28.340465-8.623401-68.349691-28.971845-96.861048l-12.647041-17.762549 123.822097-130.490983 18.85544 14.141068c16.957207 12.761652 72.545246 45.757137 104.163361 30.696116 25.350364-12.072967 40.871873-55.128575 42.25129-89.502453l0-25.869181 181.191712 0 0 25.869181c1.322112 34.373879 16.84362 77.429487 42.25129 89.502453 31.616068 15.061021 87.146802-17.934464 104.162338-30.696116l18.797112-14.083763 123.82312 130.432655-12.646018 17.762549c-20.35049 28.569686-41.906435 68.578911-28.858258 96.976682 14.947434 32.595372 71.913866 44.780903 90.712001 46.50415l24.085558 2.186805 0 96.573499 0 0 0 80.364329L938.09191 475.077322 938.09191 475.077322zM923.317415 332.687334c-32.595372-6.89913-102.035908-15.405875-124.053364-63.348794-16.899902-36.903491 2.184759-80.306001 33.514301-130.778532l-77.662801-77.661777c-30.524201 18.509563-86.34146 57.1977-135.607514 33.80185-34.720779-16.384156-55.529711-66.395176-62.082964-123.19174l-96.402607 0c-6.553253 56.796564-27.363208 106.807584-62.082964 123.19174-49.26503 23.337521-108.187001-4.426823-138.768507-22.995737l-62.658062 66.10865c31.271214 50.472532 38.571481 94.621031 21.671579 131.524522-22.016433 47.943942-91.457991 56.449663-124.052341 63.348794L95.132172 436.217269c32.594349 6.898107 102.035908 15.34857 124.052341 63.291488 16.95823 36.904515 9.599635 81.053014-21.671579 131.525546l62.658062 66.106604c30.582529-18.509563 89.5045-46.332235 138.824789-22.99369 69.788459 33.053814 58.462506 124.397195 58.462506 124.397195L560.990273 798.544411c6.553253-56.851822 23.799032-108.014062 58.519812-124.397195 49.266054-23.39585 108.24533 4.484128 138.768507 22.99369l62.71639-66.106604c-31.328519-50.472532-38.629809-94.620008-21.729907-131.525546 22.017456-47.942919 91.51632-56.392358 124.053364-63.291488L923.318438 332.687334 923.317415 332.687334zM500.976434 580.101283c-109.393479 0-198.323904-89.042989-198.323904-198.436468 0-109.451808 84.273359-191.367469 193.666838-191.367469 109.335151 0 194.067974 84.732823 194.067974 194.126302S610.370937 580.101283 500.976434 580.101283L500.976434 580.101283zM496.320391 229.273033c-85.59547 0-155.267273 69.613474-155.267273 155.207921 0 85.59547 69.671803 155.209968 155.267273 155.209968 85.651752 0 155.265226-69.614497 155.265226-155.209968C651.585617 298.886507 581.972143 229.273033 496.320391 229.273033L496.320391 229.273033zM496.320391 229.273033"  horiz-adv-x="1024" />

    
    <glyph glyph-name="dagou" unicode="&#58882;" d="M1014.158864 752.95919l-84.014462 68.613704c-8.583492 7.011694-21.346167 5.727445-28.358885-2.859118L418.242639 226.705558 106.110713 481.630574c-8.582469 7.010671-21.341051 5.721305-28.351722-2.858094l-68.619844-84.016509c-7.011694-8.582469-5.727445-21.341051 2.861164-28.350698l323.818083-264.475534c0.98749-1.357927 2.13564-2.618641 3.493567-3.719718l84.013439-68.620867c8.587586-7.011694 21.346167-5.722328 28.356838 2.860141l565.341882 692.152033C1024.030699 733.188914 1022.74645 745.948519 1014.158864 752.95919L1014.158864 752.95919zM1014.158864 752.95919"  horiz-adv-x="1038" />

    
    <glyph glyph-name="asmkticon0253" unicode="&#59407;" d="M880 394.88C787.2 534.4 652.8 614.4 512 614.4S236.8 534.4 144 394.88c-4.48-6.4-4.48-14.72 0-21.12C236.8 233.6 371.2 153.6 512 153.6s275.2 80 368 219.52C884.48 379.52 884.48 388.48 880 394.88zM512 192c-124.16 0-243.2 69.76-328.96 192C268.8 506.24 387.84 576 512 576s243.2-69.76 328.96-192C755.2 261.76 636.16 192 512 192zM512 384m-115.2 0a18 18 0 1 0 230.4 0 18 18 0 1 0-230.4 0Z"  horiz-adv-x="1024" />

    
    <glyph glyph-name="asmkticon0254" unicode="&#59408;" d="M512 620.8c-150.4 0-285.44-88.96-380.8-225.92-4.48-6.4-4.48-15.36 0-21.76C226.56 236.16 361.6 147.2 512 147.2s285.44 88.96 380.8 225.92c4.48 6.4 4.48 15.36 0 21.76C797.44 531.84 662.4 620.8 512 620.8zM512 224c-88.32 0-160 71.68-160 160 0 88.32 71.68 160 160 160 88.32 0 160-71.68 160-160C672 295.68 600.32 224 512 224zM512 384m-96 0a15 15 0 1 0 192 0 15 15 0 1 0-192 0Z"  horiz-adv-x="1024" />

    
    <glyph glyph-name="icon1101" unicode="&#58892;" d="M980.38362 566.067662c-14.750959 14.700817-34.267455 21.847587-59.46023 21.847587l-103.000885 0.595564L774.391059 691.730687l49.054229 0c14.395872 0 19.820418-3.598968 22.911826-6.640234 7.958252-7.958252 9.530051-13.635555 9.530051-20.225647l0-58.395992 51.907207 0 0 58.395992c0 21.593807-8.05956 40.197514-24.686239 56.875359-14.750959 14.750959-34.267455 21.898753-59.662845 21.898753l-70.944795 0L735.546356 783.835408c-8.972349 21.289885-26.613124 38.220487-48.409546 46.331211-21.797445 8.110725-46.128597 6.741541-66.86078-3.548826l-167.076226-82.980923L142.159744 743.63687c-34.773991 0-64.934918-11.759835-87.2389-34.013675-23.321148-23.421432-35.767622-52.452629-36.028565-84.045161l-0.01228 0 0-564.138474c0-33.709753 13.484106-67.317175 36.09201-89.926102 25.092491-25.092491 56.063877-38.930661 87.188758-38.930661l778.612197 0c20.732184 0 41.921785 9.782807 59.662845 27.52489 15.207353 15.207353 24.686239 39.133276 24.686239 62.400189L1005.122047 166.167786 1005.122047 412.728298l0 96.413863C1005.121024 530.735969 997.060441 549.339676 980.38362 566.067662zM643.390469 780.135132c8.05956 3.954055 17.386996 4.561899 25.700335 1.369184 8.364505-3.092431 15.156188-9.631358 18.603707-17.84339l73.729212-174.822654-497.323743 2.876514L643.390469 780.135132zM91.670839 672.924365c12.470009 12.470009 29.451776 18.806321 50.487881 18.806321l206.528773 0L148.656715 592.381981l-77.870532 0.450255 0 31.732725C70.786183 643.016195 77.630055 658.832416 91.670839 672.924365zM953.212794 218.074993 726.117612 218.074993c-17.031908 0-35.433 8.668427-50.487881 23.723308-13.281491 13.281491-20.884656 32.18912-20.884656 51.857065 0 18.502399 6.842849 34.317597 20.985964 48.359404 12.418844 12.470009 29.350468 18.806321 50.386574 18.806321l227.095181 0L953.212794 218.074993zM726.117612 412.728298c-34.824133 0-64.934918-11.759835-87.137593-33.962509-23.622-23.622-36.142152-53.022611-36.142152-85.110423 0-33.354666 13.179161-65.645093 36.09201-88.556918 25.092491-25.092491 56.063877-38.930661 87.188758-38.930661l227.095181 0 0-143.657864c0-9.530051-3.90289-20.12434-9.478885-25.700335-7.705496-7.705496-16.322757-12.317537-22.962991-12.317537L142.159744-15.50795c-17.031908 0-35.433 8.668427-50.487881 23.723308C78.795601 21.090597 70.786183 41.518858 70.786183 61.440583L70.786183 540.925029l849.984734-4.916986c14.548344 0 20.073174-3.852748 22.911826-6.640234 7.958252-7.958252 9.530051-13.635555 9.530051-20.225647l0-96.413863L726.117612 412.728298z"  horiz-adv-x="1024" />

    
    <glyph glyph-name="chongzhi" unicode="&#58886;" d="M713.514667 793.813333l-97.706667 0-32.917333-60.693333c-31.381333-58.730667-50.624-97.877333-57.621333-117.205333l-1.984 0c-13.674667 31.146667-44.16 90.794667-90.709333 177.898667l-104.426667 0 114.901333-197.482667-127.04 0 0-78.122667 156.138667 0 0-107.754667-156.138667 0 0-79.274667 156.138667 0 0-177.856 98.197333 0 0 177.856 149.162667 0L719.509333 410.453333l-149.162667 0 0 107.754667 149.162667 0 0 78.122667-122.069333 0L713.514667 793.813333zM888 680.832 743.466667 680.832l0-53.824 144.533333 0c33.877333 0 61.546667-27.605333 61.546667-61.504l0-484.458667c0-33.984-27.669333-61.568-61.546667-61.568L137.728 19.477333c-33.856 0-61.525333 27.584-61.525333 61.568L76.202667 565.482667c0 33.898667 27.669333 61.504 61.525333 61.504l144.576 0 0 53.824L137.728 680.810667c-63.658667 0-115.349333-51.648-115.349333-115.349333l0-484.458667c0-63.744 51.690667-115.349333 115.349333-115.349333l750.272 0c63.722667 0 115.328 51.605333 115.328 115.349333L1003.328 565.482667C1003.328 629.184 951.722667 680.832 888 680.832z"  horiz-adv-x="1024" />

    
    <glyph glyph-name="cha" unicode="&#59065;" d="M865.30107 531.756205c-19.371186 47.76077-47.813982 90.598414-84.540442 127.32692-36.730553 36.730553-79.56922 65.173348-127.328967 84.540442-46.111201 18.699897-94.825692 28.181853-144.79578 28.181853-49.954739 0-98.665137-9.480932-144.776338-28.179806-47.755654-19.36607-90.587158-47.801702-127.303384-84.518952-36.727483-36.726459-65.171302-79.565127-84.539418-127.324874-18.700921-46.113247-28.183899-94.828762-28.183899-144.792711 0-49.963948 9.481955-98.680487 28.182876-144.793734 19.368116-47.7577 47.810912-90.596368 84.537372-127.322827 36.732599-36.732599 79.571267-65.176418 127.327944-84.544535 46.108131-18.699897 94.825692-28.181853 144.794757-28.181853 49.958832 0 98.67537 9.484002 144.792711 28.187993 47.76384 19.370163 90.601484 47.812959 127.322827 84.534302 36.724413 36.722366 65.161069 79.55387 84.526115 127.311571 18.697851 46.110177 28.176736 94.822622 28.17469 144.786571C893.488039 436.928466 884.003014 485.643981 865.30107 531.756205zM700.98777 188.387857c-6.525624-6.525624-15.07944-9.788947-23.63735-9.788947-8.55177 0-17.108656 3.263323-23.636327 9.788947l-146.444327 146.44535L362.663298 190.224692c-6.526647-6.525624-15.081487-9.788947-23.635303-9.788947s-17.10968 3.263323-23.636327 9.788947c-13.054317 13.05534-13.054317 34.219359 0 47.272653l144.606469 144.608515L317.8343 524.269697c-13.053294 13.053294-13.053294 34.217313 0 47.272653 13.053294 13.053294 34.217313 13.053294 47.272653 0l142.163837-142.163837 143.996578 143.996578c13.05534 13.053294 34.217313 13.053294 47.272653 0 13.053294-13.05534 13.053294-34.218336 0-47.27163L554.543444 382.10586l146.444327-146.44535C714.043111 222.606193 714.043111 201.442174 700.98777 188.387857z"  horiz-adv-x="1024" />

    
    <glyph glyph-name="jianqu" unicode="&#59135;" d="M933.888 343.04 90.112 343.04C68.608 343.04 51.2 361.472 51.2 384c0 22.528 17.408 40.96 38.912 40.96l844.8 0c21.504 0 38.912-18.432 38.912-40.96C972.8 361.472 955.392 343.04 933.888 343.04L933.888 343.04z"  horiz-adv-x="1024" />

    
    <glyph glyph-name="tongzhi" unicode="&#58893;" d="M803.19648 582.994501l-42.542945 73.515848 220.70113 127.475252L1023.89761 710.520948l-220.70113-127.475253z m-165.871413-706.694131a40.955904 40.955904 0 0 0-24.675932 8.856714l-0.511949-0.563143-385.49745 289.09749H0V598.506549h226.537346L611.932407 887.60404c0.10239-0.20478 0.358364-0.307169 0.511949-0.563144A40.955904 40.955904 0 0 0 637.069093 895.89761c23.39606 0 42.491751-18.993301 42.491751-42.491751v-934.664933a42.184582 42.184582 0 0 0-42.286971-42.440556z m127.475253 552.290371h254.950505v-84.983502h-254.950505v84.983502z m255.155284-389.490651l-41.263073-77.457854-214.096991 134.232976 41.263074 77.50905 214.09699-134.284172z"  horiz-adv-x="1024" />

    
    <glyph glyph-name="touzhu1" unicode="&#58939;" d="M988.521 412.619c-6.334 119.682-55.534 226.785-132.38 307.253l9.659-9.28-37.395 37.395-0.544-0.513c-82.127 74.379-190.727 120.863-310.133 123.834l12.595 0.212h-52.873v-0.726c-119.669-6.317-226.763-55.495-307.225-132.329l9.251 9.604-37.395-37.395 0.513-0.513c-74.379-82.127-120.863-190.727-123.834-310.133l-0.237 12.595v-52.873h0.726c6.317-119.669 55.495-226.763 132.329-307.225l-9.604 9.251 37.424-37.395 0.513 0.513c82.194-74.279 190.801-120.715 310.202-123.707l-12.768-0.253h52.978v0.726c119.657 6.31 226.745 55.471 307.211 132.288l-9.241-9.589 37.395 37.395-0.544 0.544c74.309 82.199 120.758 190.825 123.767 310.24l0.195-12.814v52.873h-0.594v0.027zM935.516 412.619h-355.719c-3.437 9.649-8.23 17.986-14.258 25.263l262.192 234.66c64.832-72.539 105.415-167.952 108.352-272.787zM790.359 710.052l-251.572-251.572c-8.3 4.073-17.962 6.889-28.15 7.901l19.683 351.405c105.185-6.346 199.187-49.68 270.161-117.033zM477.427 817.784v-355.689c-10.271-3.7-19.137-8.828-26.902-15.251l-233.136 263.21c72.596 64.803 168.048 105.367 272.914 108.299zM179.994 672.655l251.459-251.459c-3.915-7.847-6.621-16.988-7.59-26.63l-351.635 18.17c6.401 105.184 49.761 199.167 117.139 270.132zM72.234 359.75h355.689c1.029-2.889 2.155-5.691 3.53-8.465l-251.572-251.572c-64.752 72.649-105.28 168.119-108.222 272.993zM217.39 62.293l251.459 251.437c2.804-1.346 5.584-2.479 8.465-3.509v-355.689c-105.184 6.401-199.167 49.761-270.132 117.139zM530.293-45.469v355.719c2.889 1.029 5.691 2.155 8.465 3.509l251.572-251.437c-72.591-64.832-168.048-105.411-272.926-108.358zM827.753 99.688l-251.437 251.572c1.346 2.804 2.479 5.584 3.509 8.465h355.689c-6.372-105.211-49.729-199.215-117.105-270.203z"  horiz-adv-x="1024" />

    
    <glyph glyph-name="shaixuan" unicode="&#58902;" d="M834.432 690.517333a122.538667 122.538667 0 0 1 30.634667 81.152c0 67.925333-55.466667 123.221333-123.648 123.221334H123.690667A123.605333 123.605333 0 0 1 0 771.669333c0-29.354667 10.368-57.258667 29.226667-79.488 1.365333-2.218667 2.986667-4.309333 4.906666-6.229333l248.832-283.306667v-296.149333c0-10.453333 4.693333-19.84 12.074667-26.154667l1.28-1.194666 221.013333-199.04a34.005333 34.005333 0 0 1 55.552 30.08V393.813333l257.92 292.394667a35.242667 35.242667 0 0 1 3.626667 4.309333zM781.653333 736.554667c-0.853333-1.024-1.749333-2.048-2.56-3.157334l-256.64-291.072a69.802667 69.802667 0 0 1-19.712-48.554666v-412.074667l-149.632 141.397333v279.466667c0 18.090667-7.04 35.498667-19.626666 48.512l-247.04 281.472a78.848 78.848 0 0 1-3.669334 4.778667 52.224 52.224 0 0 0-12.629333 34.346666c0 29.397333 24.021333 53.333333 53.546667 53.333334h617.685333c29.525333 0 53.546667-23.936 53.546667-53.333334 0-13.098667-4.650667-25.258667-13.269334-35.114666z m-161.237333-387.413334c0-18.944 15.402667-34.304 34.474667-34.304h333.568a34.346667 34.346667 0 0 1 34.432 34.304 34.346667 34.346667 0 0 1-34.432 34.304h-333.568a34.389333 34.389333 0 0 1-34.474667-34.304z m368.042667-131.370666h-333.568a34.389333 34.389333 0 1 1 0-68.650667h333.568a34.346667 34.346667 0 0 1 0 68.650667z m0-165.589334h-333.568a34.389333 34.389333 0 0 1-34.474667-34.346666c0-18.901333 15.402667-34.304 34.474667-34.304h333.568c18.986667 0 34.432 15.36 34.432 34.304a34.389333 34.389333 0 0 1-34.432 34.346666z"  horiz-adv-x="1024" />

    
    <glyph glyph-name="bifen" unicode="&#58941;" d="M928-64h-832C42.666667-64 0-21.333333 0 32v704C0 789.333333 42.666667 832 96 832h832C981.333333 832 1024 789.333333 1024 736v-704c0-53.333333-42.666667-96-96-96zM96 768C78.933333 768 64 753.066667 64 736v-704c0-17.066667 14.933333-32 32-32h832c17.066667 0 32 14.933333 32 32v704c0 17.066667-14.933333 32-32 32h-832zM490.666667 789.333333h42.666666v-810.666666h-42.666666zM401.066667 236.8v-21.333333c0-6.4-4.266667-10.666667-10.666667-10.666667H160c0 10.666667 2.133333 21.333333 4.266667 32 6.4 17.066667 17.066667 32 29.866666 49.066667s34.133333 34.133333 59.733334 55.466666c40.533333 32 66.133333 57.6 81.066666 76.8s21.333333 36.266667 21.333334 53.333334-6.4 32-19.2 44.8-29.866667 19.2-49.066667 19.2c-21.333333 0-38.4-6.4-51.2-19.2-10.666667-10.666667-17.066667-25.6-19.2-42.666667 0-6.4-6.4-10.666667-10.666667-10.666667l-23.466666 2.133334c-6.4 0-10.666667 6.4-8.533334 12.8 4.266667 29.866667 14.933333 51.2 34.133334 68.266666 21.333333 17.066667 49.066667 27.733333 83.2 27.733334s64-10.666667 83.2-29.866667 29.866667-42.666667 29.866666-72.533333c0-14.933333-2.133333-29.866667-8.533333-42.666667s-21.333333-29.866667-34.133333-44.8-36.266667-36.266667-70.4-64c-27.733333-23.466667-44.8-38.4-51.2-46.933333s-14.933333-17.066667-19.2-23.466667h168.533333c6.4-2.133333 10.666667-6.4 10.666667-12.8zM650.666667 386.133333c0 42.666667 4.266667 78.933333 12.8 104.533334s21.333333 46.933333 40.533333 61.866666 40.533333 21.333333 66.133333 21.333334c19.2 0 36.266667-4.266667 51.2-12.8s27.733333-19.2 36.266667-34.133334 17.066667-34.133333 23.466667-55.466666 8.533333-51.2 8.533333-87.466667c0-42.666667-4.266667-76.8-12.8-104.533333s-21.333333-46.933333-40.533333-61.866667-40.533333-21.333333-66.133334-21.333333c-36.266667 0-64 12.8-83.2 38.4-25.6 32-36.266667 81.066667-36.266666 151.466666z m46.933333 0c0-59.733333 6.4-100.266667 21.333333-119.466666s32-29.866667 51.2-29.866667 38.4 10.666667 51.2 29.866667 21.333333 59.733333 21.333334 119.466666-6.4 100.266667-21.333334 119.466667-32 29.866667-53.333333 29.866667-36.266667-8.533333-49.066667-25.6c-14.933333-23.466667-21.333333-64-21.333333-123.733334z"  horiz-adv-x="1024" />

    
    <glyph glyph-name="jiagezoushi" unicode="&#58917;" d="M570.625 55.501h117.254v254.05H570.625v-254.05z m-508.1-58.618v-58.636h898.948v58.636H62.526z m156.34 273.585H101.613v-214.966h117.25V270.468h0.002z m586.27-214.967h117.253v410.39H805.136v-410.39z m-469.017 0h117.256V407.264H336.118V55.5zM140.85 310.305l222.004 250.08L624.52 440.48l21.188 28.575 185.328 205.46 91.35-91.351V778.587H726.964l72.102-72.101-181.869-201.447-264.836 121.544-33.969-45.824 0.59-0.27L102.22 336.584l38.63-26.28z m0 0"  horiz-adv-x="1024" />

    
    <glyph glyph-name="quanzi" unicode="&#58891;" d="M532.002 629.263c-135.629 0-246.393-110.764-246.393-246.393s110.764-246.393 246.393-246.393 246.393 110.764 246.393 246.393-110.764 246.393-246.393 246.393zM532.002 217.854c-90.419 0-165.015 74.596-165.015 165.015s74.596 165.015 165.015 165.015 165.015-74.596 165.015-165.015-74.596-165.015-165.015-165.015zM529.741 877.916c-273.519 0-495.046-221.528-495.046-495.046 0-54.252 9.042-106.243 24.865-158.234l-58.773-271.258c-2.26-13.563 0-27.126 11.302-36.168 6.781-9.042 18.084-13.563 29.386-13.563h6.781l250.914 38.428c70.075-36.168 149.192-56.512 230.57-56.512 273.519 0 495.046 221.528 495.046 495.046s-223.788 497.307-495.046 497.307zM532.002 55.099c-180.839 0-327.77 146.932-327.77 327.77s146.932 327.77 327.77 327.77 327.77-146.932 327.77-327.77-149.192-327.77-327.77-327.77zM532.002 468.768c-47.47 0-83.638-38.428-83.638-83.638s38.428-83.638 83.638-83.638c47.47 0 83.638 38.428 83.638 83.638s-38.428 83.638-83.638 83.638z"  horiz-adv-x="1024" />

    
    <glyph glyph-name="shouyeshouye" unicode="&#58885;" d="M949.082 376.657l-440.378 411.753-440.378-410.543c-8.615-8.032-9.096-21.539-1.044-30.145 8.043-8.6 21.566-9.086 30.175-1.036l411.215 383.338 411.233-384.505c4.126-3.855 9.363-5.76 14.59-5.76 5.691 0 11.384 2.26 15.584 6.758 8.059 8.6 7.615 22.095-0.998 30.14v0zM814.7 368.199c-11.787 0-21.349-9.556-21.349-21.328v-327.037l-170.798 0v227.503h-227.728v-227.503l-170.792 0v327.037c0 11.772-9.552 21.328-21.348 21.328-11.803 0-21.353-9.556-21.353-21.328v-369.692h256.195l-0 227.502h142.33v-227.502h256.189v369.692c0.001 11.772-9.563 21.328-21.345 21.328v0zM665.255 673.905h128.095v-113.749c0-11.79 9.563-21.333 21.349-21.333 11.783 0 21.346 9.543 21.346 21.333l0 156.404h-170.791c-11.79 0-21.353-9.538-21.353-21.328-0.001-11.786 9.563-21.328 21.353-21.328v0zM665.255 673.905z"  horiz-adv-x="1024" />

    
    <glyph glyph-name="shouye_shouye" unicode="&#58887;" d="M993.585 374.516l-468.663 438.634-468.674-437.341c-9.164-8.563-9.681-22.949-1.104-32.114 8.553-9.164 22.943-9.675 32.107-1.108l437.637 408.374 437.648-409.617c4.043-3.798 9.5-6.13 15.5-6.13 0.007 0 0.017 0 0.025 0 0.012 0 0.023 0 0.038 0 6.523 0 12.402 2.761 16.531 7.175 8.581 9.178 8.117 23.555-1.047 32.125zM850.566 365.506c-12.541 0-22.721-10.176-22.721-22.718v-348.384h-181.761v242.349h-242.358v-242.349h-181.767v348.384c0 12.542-10.162 22.718-22.719 22.718-12.559 0-22.721-10.176-22.721-22.718v-393.825h272.647v242.346h151.468v-242.349h272.656v393.827c0 12.542-10.181 22.718-22.723 22.718zM691.521 691.17h136.323v-121.171c0-12.565 10.181-22.727 22.721-22.727 12.543 0 22.723 10.16 22.723 22.727v166.614h-181.77c-12.541 0-22.721-10.16-22.721-22.719 0-12.561 10.181-22.723 22.721-22.723zM207.201-14.673h209.521v232.121h203.362v-232.121h225.957v359.478h125.302l-446.441 423.155-462.357-417.259 142.599-5.898z"  horiz-adv-x="1024" />

    
    <glyph glyph-name="dot" unicode="&#58899;" d="M384 384c0-70.692 57.308-128 128-128s128 57.308 128 128c0 70.692-57.308 128-128 128-70.692 0-128-57.308-128-128z"  horiz-adv-x="1024" />

    
    <glyph glyph-name="jiangbei1" unicode="&#58924;" d="M512 240.894c-50.882 0-101.764 12.72-146.286 31.802-101.764 31.8-159.006 127.205-159.006 235.329V851.478C206.708 876.92 225.788 896 251.23 896h527.9c25.441 0 44.522-19.08 44.522-44.522v-343.453c0-101.764-63.602-197.168-159.006-235.33-50.882-25.44-101.764-31.8-152.646-31.8zM270.31 832.398v-324.373c0-76.323 44.522-146.286 120.845-178.087 82.684-31.801 171.727-31.801 248.05 0 69.963 31.801 120.845 101.764 120.845 178.087V832.398H270.31zM785.49 418.981l-6.36 63.603c12.72 0 31.802 6.36 44.522 12.72 25.441 12.72 44.522 44.522 44.522 76.323V679.752H785.49v63.602h101.764c25.44 0 44.521-19.08 44.521-44.522v-127.205c0-57.242-38.161-108.124-89.043-133.565-19.08-12.72-38.162-12.72-57.242-19.08z m-553.34 0c-19.082 6.36-38.162 6.36-57.243 19.081-57.242 19.08-89.044 69.963-89.044 133.565V698.832c0 25.441 19.081 44.522 44.522 44.522H232.15v-63.602h-82.683v-108.125c0-31.8 19.08-63.602 50.882-76.323 12.72-6.36 25.44-6.36 44.522-12.72l-12.72-63.603z m248.049-146.285H543.8v-298.932H480.2zM734.609-58.037H289.39c-19.08 0-31.8 12.72-31.8 31.801s12.72 31.801 31.8 31.801h438.857c19.081 0 31.802-12.72 31.802-31.801s-12.72-31.801-25.441-31.801z m-139.926 540.62L512 527.107l-82.683-44.522 12.72 89.043-63.602 69.963 89.043 12.72L512 736.995l44.522-82.683 89.043-12.72-63.602-69.964z"  horiz-adv-x="1024" />

    
    <glyph glyph-name="jiantou2" unicode="&#58900;" d="M637.713 851.796v-942.568c0-12.217-9.902-22.12-22.12-22.12-12.223 0-22.12 9.902-22.12 22.12v889.192l-309.12-309.183c0 0-17.9-9.766-28.821 4.989-9.848 13.303 0.486 29.222 0.486 29.222l343.927 343.99c6.342 6.311 15.84 8.206 24.112 4.782 8.239-3.417 13.654-11.489 13.654-20.424v0zM637.713 851.796z"  horiz-adv-x="1024" />

    
    <glyph glyph-name="touzhu" unicode="&#58889;" d="M808.421053 707.368421V518.736842h26.947368c14.874947 0 26.947368-12.503579 26.947368-26.947368 0-14.874947-12.341895-26.947368-26.947368-26.947369h-592.842105a27.216842 27.216842 0 0 0-26.947369 26.947369c0 14.874947 12.341895 26.947368 26.947369 26.947368H269.473684V707.368421H161.414737C116.951579 707.368421 80.842105 671.366737 80.842105 626.957474V303.157895h916.210527V626.957474c0 44.355368-36.109474 80.410947-80.572632 80.410947H808.421053z m-538.947369 53.894737v27.055158C269.473684 847.764211 317.278316 896 377.263158 896h323.368421c59.553684 0 107.789474-47.804632 107.789474-107.681684V761.263158h108.058947A134.467368 134.467368 0 0 0 1050.947368 626.957474v-593.704421a134.359579 134.359579 0 0 0-134.467368-134.305685H161.414737A134.467368 134.467368 0 0 0 26.947368 33.253053V626.957474A134.359579 134.359579 0 0 0 161.414737 761.263158H269.473684zM997.052632 249.263158h-916.210527v-216.010105c0-44.355368 36.109474-80.410947 80.572632-80.410948h755.065263c44.517053 0 80.572632 36.001684 80.572632 80.410948V249.263158zM754.526316 518.736842V788.318316A53.571368 53.571368 0 0 1 700.631579 842.105263H377.263158c-30.019368 0-53.894737-23.929263-53.894737-53.786947V518.736842h431.157895z"  horiz-adv-x="1077" />

    
    <glyph glyph-name="zuqiu" unicode="&#58884;" d="M964.627 386.714c0.109 0.828 0.171 1.785 0.171 2.757 0 1.074-0.076 2.131-0.223 3.165-1.226 71.987-19.602 144.246-55.958 210.090-1.354 2.608-3.094 4.822-5.173 6.661-29.363 54.671-74.332 104.612-128.049 143.127 8.566 20.212-122.070 84.304-263.471 84.304-100.882 0-196.495-32.692-276.5-94.533-95.655-73.934-156.79-180.695-172.148-300.617-15.358-119.92 16.906-238.64 90.843-334.294 1.759-2.276 3.568-4.501 5.365-6.74 0.182-0.236 0.364-0.472 0.556-0.7 86.361-107.127 214.27-168.393 352.49-168.393 100.885 0 196.495 32.688 276.5 94.53 61.677 47.958 109.992 110.275 140.301 182.052-61.44-104.235-59.791-101.356-58.834-98.177 61.397 75.276 94.581 175.69 94.13 276.77zM702.392 167.83l-49.444 54.763 62.634 192.77 102.045 15.265 102.18-54.447c-1.72-83.634-28.955-166.248-80.108-235.186l-137.307 26.835zM414.459 239.58l-60.866 187.317 159.34 115.77 159.344-115.77-60.863-187.316h-196.954zM917.594 428.074l-66.428 35.396 37.589 77.509c18.282-42.748 29.531-92.39 30.961-144.484zM834.922 633.606c35.021-44.949 61.198-98.606 74.865-157.074l-103.144-2.295-102.317-15.307-169.292 122.998-1.727 71.054 133.73 108.79c65.303-26.7 123.183-70.331 167.885-128.166zM616.798 778.59l-106.128-86.332-105.319 85.674c31.897 8.968 68.528 14.124 106.363 14.124 0.073 0 0.146-0 0.219-0 35.947 0 71.132-4.6 104.866-13.465zM262.792 706.87c50.998 39.785 112.914 68.021 180.503 79.688l45.253-134.004 1.726-71.031-168.589-122.49-91.93 15.030-62.279 128.425c25.090 39.565 57.145 74.878 95.316 104.382zM141.226 554.040l43.923-90.572-79.063-42.13c0.45 4.876 0.956 9.758 1.582 14.64 5.304 41.435 16.695 81.111 33.558 118.061zM104.552 369.808l113.985 60.735 91.684-14.987 63.1-194.196-40.498-53.753-146.488-28.628c-50.93 67.64-79.031 147.677-81.783 230.829zM219.694 99.897l106.595 20.834 13.27-106.352c-44.453 20.736-85.054 49.543-119.865 85.518zM386.985-4.21l-18.13 145.28 40.499 53.753h208.37l49.582-54.92-17.45-139.829c-43.602-15.655-89.807-23.785-137.332-23.785-43.366 0-85.606 6.707-125.539 19.501zM761.655 61.474c-47.925-37.314-105.545-64.585-168.389-77.573l116.757 136.83 96.584-18.874c-43.409-45.165-96.894-80.313-156.865-101.859z"  horiz-adv-x="1024" />

    
    <glyph glyph-name="tuxing" unicode="&#58907;" d="M494.909 896h38.971c48.474-6.557 95.917-25.637 131.647-59.672 55.915-50.758 82.657-131.057 68.218-205.168-10.903-65.344-53.852-122.512-110.43-155.957 8.325-11.861 16.649-23.795 25.047-35.729 61.661 44.496 145.644 57.536 216.44 28.142 77.647-30.131 132.015-106.083 140.782-188.224v-39.634c-7.146-60.63-36.687-119.123-85.382-156.841-63.945-51.789-157.431-62.84-231.837-27.7-75.069 33.814-125.679 111.24-130.394 192.939-6.041 0-17.975 0-24.016 0.074-5.525-45.601-1.547-91.865 10.166-136.214 23.132-85.972 64.092-166.197 113.377-240.014h-271.765c40.886 36.172 57.757 90.539 75.511 140.413 22.837 75.732 45.601 156.473 27.7 235.815-5.673-0.074-17.018-0.074-22.69-0.074-4.567-63.429-34.403-125.237-84.94-164.65-63.724-52.231-157.357-63.503-231.837-28.436-72.711 32.193-122.217 105.273-131.057 183.583v39.487c8.251 86.266 68.070 165.608 150.874 193.16 70.354 25.342 151.022 9.577 210.473-34.551 7.072 13.555 13.776 27.258 20.185 41.181-22.101 15.323-43.686 32.046-60.335 53.484-56.357 68.66-65.123 171.649-21.217 248.928 34.993 64.902 103.652 107.925 176.511 115.66z"  horiz-adv-x="1024" />

    
    <glyph glyph-name="-fucaiD" unicode="&#58967;" d="M451.552791 385.289366l5.812379-2.029216 4.843309 63.808258s-23.88806-16.217357-42.612517-33.418111c19.364023-12.165064 31.956829-28.360931 31.956829-28.360931z m60.446697 509.235026c-281.956673 0-510.524392-228.567719-510.524392-510.524392 0-281.94951 228.567719-510.524392 510.524392-510.524392 281.94951 0 510.524392 228.574882 510.524393 510.524392-0.007163 281.956673-228.574882 510.524392-510.524393 510.524392z m363.784331-656.069233c-42.177612-47.504944-122.20425-89.669252-177.187515-107.937314-70.040193-23.289426-124.033921-23.702841-124.033921-23.702842l41.643445 224.800929-20.348443 22.2784-25.177426-128.6081H421.524894s-23.717168-33.659611-90.958618-50.376341c-45.090964-12.463869-110.416785-19.557428-185.072089 11.902074-14.900362 8.211009-26.010397 18.446118-34.258245 29.600156-34.101679 46.166459-19.016099 108.108207-19.016099 108.108206s82.005712 0.684592 118.158097 0c-7.591909-32.861432 2.407839-54.492078 23.24747-63.786768 36.751019-8.504698 84.271312 8.197706 95.886861 37.46324 32.613792 72.910567-53.267181 108.365056-53.267181 108.365056 122.360815 47.925522 93.942579 105.986893 79.413677 117.461225-65.539692 42.191938-93.942579-36.452213-93.942579-36.452213H139.681808c11.296277 68.180845 80.068593 137.716548 197.578937 137.716548 117.52467 1.345648 152.053068-62.782905 152.053068-62.782905l18.404162 84.050278h212.122165c111.684662 1.003863 168.805614-86.037539 169.474856-87.070055-24.059975-6.66684-41.793872-29.571503-41.793871-56.814983 0-32.470529 25.198915-58.795081 56.265468-58.795081 11.082406 0 21.395286 3.368724 30.113854 9.145287 0.421602-4.179183 13.020548-133.875057-58.116628-214.564797zM707.313849 538.646126c-63.644529 0-115.245767-46.38033-115.245767-112.981191s51.601238-112.974028 115.245767-112.974027c63.651692 0 115.252931 46.373167 115.252931 112.974027s-51.601238 112.981191-115.252931 112.981191z"  horiz-adv-x="1024" />

    
    <glyph glyph-name="jiangbei" unicode="&#58950;" d="M516.266667 117.333333c-194.133333 0-352 157.866667-352 352V832C164.266667 861.866667 187.733333 885.333333 217.6 885.333333h597.333333c29.866667 0 53.333333-23.466667 53.333334-53.333333v-362.666667c0-194.133333-157.866667-352-352-352z m-288 704V469.333333c0-157.866667 130.133333-288 288-288S804.266667 311.466667 804.266667 469.333333V821.333333h-576zM490.666667 128h64v-234.666667h-64zM704-128H362.666667c-12.8 0-21.333333 8.533333-21.333334 21.333333v21.333334c0 12.8 8.533333 21.333333 21.333334 21.333333h341.333333c12.8 0 21.333333-8.533333 21.333333-21.333333v-21.333334c0-12.8-8.533333-21.333333-21.333333-21.333333zM209.066667 309.333333c-102.4 0-183.466667 85.333333-183.466667 189.866667V686.933333c0 29.866667 23.466667 53.333333 53.333333 53.333334h121.6v-64H87.466667v-179.2c0-68.266667 53.333333-125.866667 119.466666-125.866667v-61.866667zM819.2 309.333333v64c66.133333 0 119.466667 55.466667 119.466667 125.866667v179.2h-110.933334v64h121.6c29.866667 0 53.333333-23.466667 53.333334-53.333333v-189.866667c0-104.533333-83.2-189.866667-183.466667-189.866667zM608 354.133333c-8.533333 0-14.933333 2.133333-23.466667 6.4l-66.133333 34.133334-68.266667-36.266667c-21.333333-8.533333-40.533333-4.266667-53.333333 10.666667-6.4 6.4-12.8 19.2-8.533333 38.4l12.8 72.533333-46.933334 49.066667c-12.8 12.8-19.2 29.866667-12.8 46.933333 4.266667 14.933333 19.2 27.733333 36.266667 29.866667l68.266667 10.666666 32 66.133334c8.533333 17.066667 23.466667 25.6 40.533333 25.6 17.066667 0 32-8.533333 40.533333-25.6l32-66.133334 68.266667-10.666666c19.2-4.266667 32-14.933333 36.266667-29.866667 4.266667-17.066667 0-32-12.8-44.8l-46.933334-51.2 12.8-74.666667c2.133333-14.933333-2.133333-27.733333-10.666666-38.4-6.4-8.533333-17.066667-12.8-29.866667-12.8z m-89.6 85.333334c4.266667 0 10.666667-2.133333 14.933333-4.266667l72.533334-38.4c2.133333 0 2.133333-2.133333 2.133333-2.133333v2.133333l-14.933333 78.933333c-2.133333 8.533333 2.133333 19.2 8.533333 27.733334l51.2 55.466666 2.133333 2.133334h-2.133333l-72.533333 14.933333c-10.666667 2.133333-19.2 8.533333-23.466667 17.066667l-36.266667 70.4c0 2.133333-2.133333 2.133333-2.133333 2.133333l-2.133333-2.133333-36.266667-70.4c-4.266667-8.533333-12.8-14.933333-23.466667-17.066667l-72.533333-10.666667c-2.133333 0-2.133333 0-2.133333-2.133333l2.133333-2.133333 51.2-55.466667c6.4-6.4 8.533333-17.066667 8.533333-27.733333l-12.8-76.8v-4.266667h2.133334l72.533333 36.266667c2.133333 4.266667 8.533333 6.4 12.8 6.4z"  horiz-adv-x="1024" />

    


  </font>
</defs>
</svg>
